%TF.GenerationSoftware,KiCad,Pcbnew,9.0.0*%
%TF.CreationDate,2025-06-27T23:21:56-04:00*%
%TF.ProjectId,microkey,6d696372-6f6b-4657-992e-6b696361645f,rev?*%
%TF.SameCoordinates,Original*%
%TF.FileFunction,Legend,Top*%
%TF.FilePolarity,Positive*%
%FSLAX46Y46*%
G04 Gerber Fmt 4.6, Leading zero omitted, Abs format (unit mm)*
G04 Created by KiCad (PCBNEW 9.0.0) date 2025-06-27 23:21:56*
%MOMM*%
%LPD*%
G01*
G04 APERTURE LIST*
%ADD10C,0.125000*%
%ADD11C,0.250000*%
%ADD12C,10.000000*%
%ADD13O,2.400000X1.200000*%
G04 APERTURE END LIST*
%LPC*%
D10*
G36*
X211389742Y-114561250D02*
G01*
X211389742Y-113794770D01*
X211849208Y-113794770D01*
X211849208Y-113909121D01*
X211518839Y-113909121D01*
X211518839Y-114108332D01*
X211812434Y-114108332D01*
X211812434Y-114222225D01*
X211518839Y-114222225D01*
X211518839Y-114446898D01*
X211849208Y-114446898D01*
X211849208Y-114561250D01*
X211389742Y-114561250D01*
G37*
G36*
X212157779Y-114561250D02*
G01*
X211967040Y-113983768D01*
X212102320Y-113983768D01*
X212212000Y-114334791D01*
X212230548Y-114399912D01*
X212243554Y-114453172D01*
X212257338Y-114399912D01*
X212274511Y-114335386D01*
X212382268Y-113983768D01*
X212515900Y-113983768D01*
X212326398Y-114561250D01*
X212157779Y-114561250D01*
G37*
G36*
X212930958Y-113976950D02*
G01*
X212975695Y-113987404D01*
X213013547Y-114003899D01*
X213045617Y-114026220D01*
X213072436Y-114054779D01*
X213091500Y-114087523D01*
X213103242Y-114125284D01*
X213107349Y-114169286D01*
X213107349Y-114561250D01*
X212979946Y-114561250D01*
X212979946Y-114460225D01*
X212977737Y-114460225D01*
X212977416Y-114463429D01*
X212968446Y-114490289D01*
X212953774Y-114513681D01*
X212932914Y-114534184D01*
X212899296Y-114554358D01*
X212857834Y-114567142D01*
X212806518Y-114571737D01*
X212762101Y-114568459D01*
X212724602Y-114559221D01*
X212692838Y-114544598D01*
X212665880Y-114524705D01*
X212643638Y-114499539D01*
X212627685Y-114470474D01*
X212617789Y-114436740D01*
X212614314Y-114397256D01*
X212615441Y-114385166D01*
X212745656Y-114385166D01*
X212748906Y-114411149D01*
X212758135Y-114432260D01*
X212773362Y-114449646D01*
X212793123Y-114462241D01*
X212818288Y-114470300D01*
X212850344Y-114473230D01*
X212886090Y-114469838D01*
X212915802Y-114460261D01*
X212940699Y-114444883D01*
X212960448Y-114423909D01*
X212972032Y-114399791D01*
X212976007Y-114371427D01*
X212976007Y-114301131D01*
X212834591Y-114301131D01*
X212808502Y-114303877D01*
X212787285Y-114311595D01*
X212769882Y-114324029D01*
X212756617Y-114340644D01*
X212748514Y-114360687D01*
X212745656Y-114385166D01*
X212615441Y-114385166D01*
X212618173Y-114355875D01*
X212629118Y-114321036D01*
X212646750Y-114291447D01*
X212671421Y-114266235D01*
X212700869Y-114246908D01*
X212736559Y-114232392D01*
X212779730Y-114223059D01*
X212831889Y-114219706D01*
X212976007Y-114219706D01*
X212976007Y-114170568D01*
X212972790Y-114143893D01*
X212963721Y-114122471D01*
X212948896Y-114105080D01*
X212929522Y-114092395D01*
X212905033Y-114084326D01*
X212874021Y-114081404D01*
X212833969Y-114086360D01*
X212802809Y-114100180D01*
X212786135Y-114114398D01*
X212775021Y-114131250D01*
X212768920Y-114151334D01*
X212640647Y-114151334D01*
X212648971Y-114111933D01*
X212663913Y-114077675D01*
X212685499Y-114047670D01*
X212714332Y-114021366D01*
X212747431Y-114000925D01*
X212785172Y-113985930D01*
X212828355Y-113976533D01*
X212877959Y-113973235D01*
X212930958Y-113976950D01*
G37*
G36*
X213265939Y-114561250D02*
G01*
X213265939Y-113983768D01*
X213394212Y-113983768D01*
X213394212Y-114093998D01*
X213429521Y-114093998D01*
X213394212Y-114124635D01*
X213399233Y-114078835D01*
X213413245Y-114042434D01*
X213435749Y-114013306D01*
X213465727Y-113991623D01*
X213502865Y-113978082D01*
X213549184Y-113973235D01*
X213590964Y-113977012D01*
X213626944Y-113987814D01*
X213658234Y-114005326D01*
X213685609Y-114029884D01*
X213707319Y-114059467D01*
X213723220Y-114094004D01*
X213733225Y-114134437D01*
X213736763Y-114181971D01*
X213736763Y-114561250D01*
X213605421Y-114561250D01*
X213605421Y-114195526D01*
X213602015Y-114161849D01*
X213592636Y-114135654D01*
X213577852Y-114115247D01*
X213557860Y-114099991D01*
X213532922Y-114090487D01*
X213501603Y-114087083D01*
X213470210Y-114090600D01*
X213445135Y-114100450D01*
X213424941Y-114116346D01*
X213410153Y-114137473D01*
X213400718Y-114164723D01*
X213397280Y-114199877D01*
X213397280Y-114561250D01*
X213265939Y-114561250D01*
G37*
G36*
X214693431Y-114561250D02*
G01*
X214693431Y-114282584D01*
X214468575Y-113794770D01*
X214605550Y-113794770D01*
X214725259Y-114060613D01*
X214748569Y-114122116D01*
X214761392Y-114170110D01*
X214774444Y-114122116D01*
X214796746Y-114060613D01*
X214913296Y-113794770D01*
X215049675Y-113794770D01*
X214824773Y-114282584D01*
X214824773Y-114561250D01*
X214693431Y-114561250D01*
G37*
G36*
X215388104Y-114571737D02*
G01*
X215333682Y-114567488D01*
X215287665Y-114555490D01*
X215248571Y-114536410D01*
X215215272Y-114510279D01*
X215188240Y-114477696D01*
X215168649Y-114439673D01*
X215156398Y-114395144D01*
X215152074Y-114342667D01*
X215152074Y-113983768D01*
X215283415Y-113983768D01*
X215283415Y-114342026D01*
X215286830Y-114377897D01*
X215296199Y-114405757D01*
X215310847Y-114427389D01*
X215330984Y-114443722D01*
X215356227Y-114453850D01*
X215388104Y-114457477D01*
X215419870Y-114453867D01*
X215445243Y-114443749D01*
X215465682Y-114427389D01*
X215480645Y-114405713D01*
X215490189Y-114377852D01*
X215493663Y-114342026D01*
X215493663Y-113983768D01*
X215625004Y-113983768D01*
X215625004Y-114342667D01*
X215620622Y-114395422D01*
X215608218Y-114440073D01*
X215588390Y-114478103D01*
X215561028Y-114510600D01*
X215527392Y-114536633D01*
X215488137Y-114555615D01*
X215442180Y-114567528D01*
X215388104Y-114571737D01*
G37*
D11*
G36*
X210471651Y-113415000D02*
G01*
X210471651Y-112393026D01*
X210678646Y-112393026D01*
X210777687Y-112718480D01*
X210802783Y-112806957D01*
X210815667Y-112866247D01*
X210828550Y-112806957D01*
X210851692Y-112717930D01*
X210947619Y-112393026D01*
X211154554Y-112393026D01*
X211154554Y-113415000D01*
X210991216Y-113415000D01*
X210991216Y-113097240D01*
X210995002Y-112944588D01*
X211005016Y-112779357D01*
X211018449Y-112622126D01*
X211031394Y-112492861D01*
X210894008Y-112975179D01*
X210734822Y-112975179D01*
X210593589Y-112492861D01*
X210607572Y-112617913D01*
X210620578Y-112772152D01*
X210630836Y-112938176D01*
X210635049Y-113097240D01*
X210635049Y-113415000D01*
X210471651Y-113415000D01*
G37*
G36*
X211339079Y-113415000D02*
G01*
X211339079Y-113255997D01*
X211607990Y-113255997D01*
X211607990Y-112803171D01*
X211374067Y-112803171D01*
X211374067Y-112645024D01*
X211774930Y-112645024D01*
X211774930Y-113255997D01*
X212013434Y-113255997D01*
X212013434Y-113415000D01*
X211339079Y-113415000D01*
G37*
G36*
X211677539Y-112516247D02*
G01*
X211643345Y-112512943D01*
X211615875Y-112503741D01*
X211593702Y-112489136D01*
X211576614Y-112469191D01*
X211566262Y-112445144D01*
X211562622Y-112415741D01*
X211566276Y-112385883D01*
X211576642Y-112361563D01*
X211593702Y-112341491D01*
X211615898Y-112326710D01*
X211643368Y-112317411D01*
X211677539Y-112314075D01*
X211711751Y-112317413D01*
X211739239Y-112326713D01*
X211761436Y-112341491D01*
X211778496Y-112361563D01*
X211788863Y-112385883D01*
X211792516Y-112415741D01*
X211788877Y-112445144D01*
X211778525Y-112469191D01*
X211761436Y-112489136D01*
X211739262Y-112503738D01*
X211711774Y-112512941D01*
X211677539Y-112516247D01*
G37*
G36*
X212496363Y-113428982D02*
G01*
X212431760Y-113424613D01*
X212374812Y-113412092D01*
X212324355Y-113391980D01*
X212278491Y-113363502D01*
X212240768Y-113328593D01*
X212210354Y-113286772D01*
X212188398Y-113239832D01*
X212174835Y-113186917D01*
X212170115Y-113126793D01*
X212170115Y-112933169D01*
X212174871Y-112872147D01*
X212188467Y-112819070D01*
X212210354Y-112772580D01*
X212240725Y-112731178D01*
X212278442Y-112696482D01*
X212324355Y-112668044D01*
X212374816Y-112647897D01*
X212431763Y-112635356D01*
X212496363Y-112630980D01*
X212568420Y-112636153D01*
X212629891Y-112650785D01*
X212682529Y-112674018D01*
X212727722Y-112705657D01*
X212765665Y-112745845D01*
X212793470Y-112792332D01*
X212811618Y-112846263D01*
X212819679Y-112909295D01*
X212644557Y-112909295D01*
X212637536Y-112871485D01*
X212623113Y-112841218D01*
X212601387Y-112816910D01*
X212573671Y-112799180D01*
X212539258Y-112787970D01*
X212496363Y-112783937D01*
X212450425Y-112788625D01*
X212414091Y-112801630D01*
X212385232Y-112822283D01*
X212363728Y-112850248D01*
X212350159Y-112886226D01*
X212345237Y-112932620D01*
X212345237Y-113126793D01*
X212350123Y-113172663D01*
X212363664Y-113208675D01*
X212385232Y-113237069D01*
X212414138Y-113258076D01*
X212450473Y-113271274D01*
X212496363Y-113276025D01*
X212539272Y-113272012D01*
X212573685Y-113260860D01*
X212601387Y-113243236D01*
X212623101Y-113218959D01*
X212637528Y-113188659D01*
X212644557Y-113150729D01*
X212819679Y-113150729D01*
X212811619Y-113213728D01*
X212793473Y-113267639D01*
X212765668Y-113314117D01*
X212727722Y-113354305D01*
X212682529Y-113385944D01*
X212629891Y-113409177D01*
X212568420Y-113423810D01*
X212496363Y-113428982D01*
G37*
G36*
X213042429Y-113415000D02*
G01*
X213042429Y-112645024D01*
X213208208Y-112645024D01*
X213208208Y-112791997D01*
X213251562Y-112791997D01*
X213199477Y-112882184D01*
X213203593Y-112819107D01*
X213214931Y-112768151D01*
X213232377Y-112727138D01*
X213255408Y-112694300D01*
X213285390Y-112667510D01*
X213321864Y-112647887D01*
X213366187Y-112635438D01*
X213420211Y-112630980D01*
X213481933Y-112636223D01*
X213534141Y-112651073D01*
X213578597Y-112674844D01*
X213616583Y-112707733D01*
X213646635Y-112747879D01*
X213668792Y-112795629D01*
X213682838Y-112852481D01*
X213687840Y-112920347D01*
X213687840Y-112976400D01*
X213504536Y-112976400D01*
X213504536Y-112933169D01*
X213499776Y-112884862D01*
X213486688Y-112847300D01*
X213466129Y-112818070D01*
X213438189Y-112796019D01*
X213403644Y-112782386D01*
X213360555Y-112777526D01*
X213316735Y-112782469D01*
X213282219Y-112796239D01*
X213254859Y-112818375D01*
X213234895Y-112847694D01*
X213222174Y-112885185D01*
X213217551Y-112933169D01*
X213217551Y-113415000D01*
X213042429Y-113415000D01*
G37*
G36*
X214235111Y-112636564D02*
G01*
X214291546Y-112649147D01*
X214340640Y-112669204D01*
X214385162Y-112697566D01*
X214421999Y-112732361D01*
X214451893Y-112774106D01*
X214473459Y-112820812D01*
X214486808Y-112873622D01*
X214491460Y-112933780D01*
X214491460Y-113125633D01*
X214486814Y-113185793D01*
X214473469Y-113238712D01*
X214451893Y-113285612D01*
X214421980Y-113327548D01*
X214385140Y-113362440D01*
X214340640Y-113390819D01*
X214291549Y-113410843D01*
X214235114Y-113423405D01*
X214169976Y-113427822D01*
X214105417Y-113423425D01*
X214049096Y-113410881D01*
X213999739Y-113390819D01*
X213954967Y-113362415D01*
X213917993Y-113327520D01*
X213888058Y-113285612D01*
X213866517Y-113238715D01*
X213853192Y-113185796D01*
X213848552Y-113125633D01*
X213848552Y-112934391D01*
X214023674Y-112934391D01*
X214023674Y-113125633D01*
X214028467Y-113172384D01*
X214041638Y-113208513D01*
X214062387Y-113236458D01*
X214090421Y-113257197D01*
X214125598Y-113270193D01*
X214169976Y-113274865D01*
X214215333Y-113270142D01*
X214250680Y-113257104D01*
X214278297Y-113236458D01*
X214298657Y-113208567D01*
X214311616Y-113172440D01*
X214316338Y-113125633D01*
X214316338Y-112934391D01*
X214311587Y-112887007D01*
X214298604Y-112850786D01*
X214278297Y-112823138D01*
X214250709Y-112802705D01*
X214215363Y-112789783D01*
X214169976Y-112785097D01*
X214125569Y-112789732D01*
X214090393Y-112802612D01*
X214062387Y-112823138D01*
X214041692Y-112850840D01*
X214028497Y-112887064D01*
X214023674Y-112934391D01*
X213848552Y-112934391D01*
X213853208Y-112873819D01*
X213866547Y-112820816D01*
X213888058Y-112774106D01*
X213917974Y-112732390D01*
X213954945Y-112697591D01*
X213999739Y-112669204D01*
X214049100Y-112649108D01*
X214105420Y-112636544D01*
X214169976Y-112632140D01*
X214235111Y-112636564D01*
G37*
G36*
X214695892Y-113415000D02*
G01*
X214695892Y-112393026D01*
X214871075Y-112393026D01*
X214871075Y-112806652D01*
X214991914Y-112806652D01*
X215184377Y-112393026D01*
X215374765Y-112393026D01*
X215146764Y-112882733D01*
X215385511Y-113415000D01*
X215190545Y-113415000D01*
X214990204Y-112965532D01*
X214871075Y-112965532D01*
X214871075Y-113415000D01*
X214695892Y-113415000D01*
G37*
G36*
X215913378Y-112635444D02*
G01*
X215969460Y-112648202D01*
X216018772Y-112668654D01*
X216063506Y-112697356D01*
X216100440Y-112732343D01*
X216130330Y-112774106D01*
X216151916Y-112820804D01*
X216165256Y-112873422D01*
X216169897Y-112933169D01*
X216169897Y-113071472D01*
X215695211Y-113071472D01*
X215695211Y-113126793D01*
X215700196Y-113178937D01*
X215713766Y-113218695D01*
X215734840Y-113248914D01*
X215763891Y-113271308D01*
X215801696Y-113285507D01*
X215850916Y-113290680D01*
X215906245Y-113285062D01*
X215945988Y-113270102D01*
X215967433Y-113254132D01*
X215982530Y-113234580D01*
X215991966Y-113210812D01*
X216164646Y-113210812D01*
X216150489Y-113257976D01*
X216128402Y-113299632D01*
X216098085Y-113336631D01*
X216058645Y-113369448D01*
X215998771Y-113401872D01*
X215929686Y-113421947D01*
X215849267Y-113428982D01*
X215785111Y-113424538D01*
X215728705Y-113411812D01*
X215678847Y-113391369D01*
X215633630Y-113362603D01*
X215596446Y-113327513D01*
X215566495Y-113285612D01*
X215544915Y-113238729D01*
X215531609Y-113186177D01*
X215526989Y-113126793D01*
X215526989Y-112933169D01*
X215695211Y-112933169D01*
X215695211Y-112962295D01*
X216001675Y-112960710D01*
X216001675Y-112931582D01*
X215996882Y-112879851D01*
X215983806Y-112840081D01*
X215963512Y-112809583D01*
X215935371Y-112786849D01*
X215898232Y-112772421D01*
X215849267Y-112767145D01*
X215800724Y-112772468D01*
X215763310Y-112787135D01*
X215734412Y-112810437D01*
X215713491Y-112841504D01*
X215700097Y-112881557D01*
X215695211Y-112933169D01*
X215526989Y-112933169D01*
X215531624Y-112873419D01*
X215544943Y-112820801D01*
X215566495Y-112774106D01*
X215596427Y-112732396D01*
X215633608Y-112697403D01*
X215678847Y-112668654D01*
X215728709Y-112648177D01*
X215785114Y-112635431D01*
X215849267Y-112630980D01*
X215913378Y-112635444D01*
G37*
G36*
X216499686Y-113666997D02*
G01*
X216608130Y-113373112D01*
X216320900Y-112645024D01*
X216512509Y-112645024D01*
X216654841Y-113039110D01*
X216677495Y-113116290D01*
X216695264Y-113190418D01*
X216712910Y-113116290D01*
X216735014Y-113039110D01*
X216870264Y-112645024D01*
X217054423Y-112645024D01*
X216684028Y-113666997D01*
X216499686Y-113666997D01*
G37*
D12*
%TO.C,J1*%
X192760297Y-107000000D03*
%TD*%
D13*
%TO.C,USB1*%
X216349999Y-111275000D03*
X216349999Y-102725000D03*
%TD*%
%LPD*%
M02*
