M48
; DRILL file {KiCad 9.0.0} date 2025-06-27T23:21:56-0400
; FORMAT={-:-/ absolute / inch / decimal}
; #@! TF.CreationDate,2025-06-27T23:21:56-04:00
; #@! TF.GenerationSoftware,Kicad,Pcbnew,9.0.0
; #@! TF.FileFunction,Plated,1,2,PTH
FMAT,2
INCH
; #@! TA.AperFunction,Plated,PTH,ComponentDrill
T1C0.0098
; #@! TA.AperFunction,Plated,PTH,ViaDrill
T2C0.0118
; #@! TA.AperFunction,Plated,PTH,ComponentDrill
T3C0.0197
%
G90
G05
T1
X7.9258Y-4.1506
X7.9258Y-4.2047
X7.9258Y-4.2589
X7.9799Y-4.1506
X7.9799Y-4.2047
X7.9799Y-4.2589
X8.0341Y-4.1506
X8.0341Y-4.2047
X8.0341Y-4.2589
T2
X7.374Y-4.252
X7.551Y-3.9862
X7.5787Y-3.9094
X7.5886Y-3.9961
X7.7165Y-4.5157
X7.7657Y-4.439
X7.7707Y-4.3455
X7.7923Y-3.9704
X7.7953Y-4.1437
X7.7991Y-4.265
X7.8012Y-4.0501
X7.8077Y-4.0945
X7.8346Y-4.378
X7.8474Y-4.0059
X7.8953Y-4.1797
X7.9323Y-4.3723
X8.0059Y-4.0295
X8.0059Y-4.124
X8.0118Y-4.374
X8.0118Y-4.2874
X8.0413Y-3.9094
X8.062Y-4.1811
X8.0969Y-4.3624
X8.1535Y-4.0796
X8.1722Y-4.5118
X8.1917Y-4.1811
X8.2075Y-4.4307
X8.2134Y-4.1811
X8.2193Y-4.0622
X8.2484Y-3.9704
X8.3268Y-4.3799
X8.3304Y-4.0859
X8.3453Y-3.9705
X8.3591Y-4.324
X8.387Y-4.126
X8.4138Y-3.95
X8.4535Y-4.0949
X8.5039Y-4.0823
X8.5433Y-4.1043
X8.5528Y-4.2598
X8.5531Y-4.3209
T3
G00X8.5433Y-4.0443
M15
G01X8.4921Y-4.0443
M16
G05
G00X8.5433Y-4.3809
M15
G01X8.4921Y-4.3809
M16
G05
M30
