%TF.GenerationSoftware,KiCad,Pcbnew,9.0.0*%
%TF.CreationDate,2025-06-28T17:36:13-04:00*%
%TF.ProjectId,microkey,6d696372-6f6b-4657-992e-6b696361645f,rev?*%
%TF.SameCoordinates,Original*%
%TF.FileFunction,Legend,Top*%
%TF.FilePolarity,Positive*%
%FSLAX46Y46*%
G04 Gerber Fmt 4.6, Leading zero omitted, Abs format (unit mm)*
G04 Created by KiCad (PCBNEW 9.0.0) date 2025-06-28 17:36:13*
%MOMM*%
%LPD*%
G01*
G04 APERTURE LIST*
G04 Aperture macros list*
%AMRoundRect*
0 Rectangle with rounded corners*
0 $1 Rounding radius*
0 $2 $3 $4 $5 $6 $7 $8 $9 X,Y pos of 4 corners*
0 Add a 4 corners polygon primitive as box body*
4,1,4,$2,$3,$4,$5,$6,$7,$8,$9,$2,$3,0*
0 Add four circle primitives for the rounded corners*
1,1,$1+$1,$2,$3*
1,1,$1+$1,$4,$5*
1,1,$1+$1,$6,$7*
1,1,$1+$1,$8,$9*
0 Add four rect primitives between the rounded corners*
20,1,$1+$1,$2,$3,$4,$5,0*
20,1,$1+$1,$4,$5,$6,$7,0*
20,1,$1+$1,$6,$7,$8,$9,0*
20,1,$1+$1,$8,$9,$2,$3,0*%
%AMFreePoly0*
4,1,113,2.938422,5.653886,3.383234,5.593632,3.820855,5.493748,4.247760,5.355039,4.660512,5.178620,5.055789,4.965912,5.430407,4.718629,5.781352,4.438760,6.105796,4.128560,6.401128,3.790525,6.664969,3.427378,6.895197,3.042042,7.089956,2.637621,7.247679,2.217369,7.367096,1.784670,7.447246,1.343010,7.487483,0.895942,7.490000,0.671505,7.487483,0.447068,7.447246,0.000000,
7.367096,-0.441660,7.247679,-0.874359,7.089956,-1.294611,6.895197,-1.699032,6.664969,-2.084368,6.401128,-2.447515,6.105796,-2.785550,5.781352,-3.095750,5.430407,-3.375619,5.055789,-3.622902,4.660512,-3.835610,4.247760,-4.012029,3.820855,-4.150738,3.383234,-4.250622,2.938422,-4.310876,2.490000,-4.331015,2.041578,-4.310876,1.596766,-4.250622,1.159145,-4.150738,0.732240,-4.012029,
0.319488,-3.835610,-0.075789,-3.622902,-0.450407,-3.375619,-0.801352,-3.095750,-1.125796,-2.785550,-1.421128,-2.447515,-1.684969,-2.084368,-1.915197,-1.699032,-2.109956,-1.294611,-2.267679,-0.874359,-2.387096,-0.441660,-2.467246,0.000000,-2.507483,0.447068,-2.510000,0.671505,1.240000,0.671505,1.242378,0.562352,1.280287,0.347363,1.354951,0.142223,1.464104,-0.046835,1.604428,-0.214067,
1.771660,-0.354391,1.960718,-0.463544,2.165858,-0.538208,2.380847,-0.576117,2.599153,-0.576117,2.814142,-0.538208,3.019282,-0.463544,3.208340,-0.354391,3.375572,-0.214067,3.515896,-0.046835,3.625049,0.142223,3.699713,0.347363,3.737622,0.562352,3.740000,0.671505,3.737622,0.780658,3.699713,0.995647,3.625049,1.200787,3.515896,1.389845,3.375572,1.557077,3.208340,1.697401,
3.019282,1.806554,2.814142,1.881218,2.599153,1.919127,2.380847,1.919127,2.165858,1.881218,1.960718,1.806554,1.771660,1.697401,1.604428,1.557077,1.464104,1.389845,1.354951,1.200787,1.280287,0.995647,1.242378,0.780658,1.240000,0.671505,-2.510000,0.671505,-2.507483,0.895942,-2.467246,1.343010,-2.387096,1.784670,-2.267679,2.217369,-2.109956,2.637621,-1.915197,3.042042,
-1.684969,3.427378,-1.421128,3.790525,-1.125796,4.128560,-0.801352,4.438760,-0.450407,4.718629,-0.075789,4.965912,0.319488,5.178620,0.732240,5.355039,1.159145,5.493748,1.596766,5.593632,2.041578,5.653886,2.490000,5.674025,2.938422,5.653886,2.938422,5.653886,$1*%
%AMFreePoly1*
4,1,17,2.740000,1.090000,2.798779,1.070902,2.835106,1.020902,2.840000,0.990000,2.840000,-0.820000,2.820902,-0.878779,2.770902,-0.915106,2.740000,-0.920000,-3.630000,-0.920000,-3.688779,-0.900902,-3.725106,-0.850902,-3.730000,-0.820000,-3.730000,0.990001,-3.710902,1.048780,-3.660902,1.085107,-3.630000,1.090001,2.740000,1.090000,2.740000,1.090000,$1*%
%AMFreePoly2*
4,1,15,0.045399,2.917528,0.070711,2.899138,5.904341,-2.934491,5.932399,-2.989559,5.922731,-3.050601,5.879029,-3.094303,5.833630,-3.105202,-5.833630,-3.105202,-5.892408,-3.086104,-5.928736,-3.036104,-5.928736,-2.974300,-5.904341,-2.934491,-0.070711,2.899138,-0.015643,2.927196,0.045399,2.917528,0.045399,2.917528,$1*%
G04 Aperture macros list end*
%ADD10C,0.000000*%
%ADD11C,0.125000*%
%ADD12C,0.250000*%
%ADD13FreePoly0,0.000000*%
%ADD14FreePoly1,90.000000*%
%ADD15FreePoly2,45.000000*%
%ADD16FreePoly2,135.000000*%
%ADD17RoundRect,0.190500X0.444500X-0.909500X0.444500X0.909500X-0.444500X0.909500X-0.444500X-0.909500X0*%
%ADD18RoundRect,0.190500X-0.444500X0.909500X-0.444500X-0.909500X0.444500X-0.909500X0.444500X0.909500X0*%
%ADD19RoundRect,0.165000X0.933381X-0.388909X-0.388909X0.933381X-0.933381X0.388909X0.388909X-0.933381X0*%
%ADD20RoundRect,0.190500X-0.909500X-0.444500X0.909500X-0.444500X0.909500X0.444500X-0.909500X0.444500X0*%
%ADD21RoundRect,0.165000X-0.388909X-0.933381X0.933381X0.388909X0.388909X0.933381X-0.933381X-0.388909X0*%
%ADD22O,2.400000X1.200000*%
G04 APERTURE END LIST*
%LPC*%
D10*
G36*
X218500000Y-115650000D02*
G01*
X190500000Y-115650000D01*
X190500000Y-114500000D01*
X218500000Y-114500000D01*
X218500000Y-115650000D01*
G37*
G36*
X218490000Y-99470000D02*
G01*
X189740000Y-99470000D01*
X189740000Y-98470000D01*
X218490000Y-98470000D01*
X218490000Y-99470000D01*
G37*
G36*
X218770000Y-115500000D02*
G01*
X217750000Y-115500000D01*
X217750000Y-111500000D01*
X218770000Y-111500000D01*
X218770000Y-115500000D01*
G37*
G36*
X218600000Y-102500000D02*
G01*
X217750000Y-102500000D01*
X217750000Y-98500000D01*
X218600000Y-98500000D01*
X218600000Y-102500000D01*
G37*
D11*
G36*
X211389742Y-114061250D02*
G01*
X211389742Y-113294770D01*
X211849208Y-113294770D01*
X211849208Y-113409121D01*
X211518839Y-113409121D01*
X211518839Y-113608332D01*
X211812434Y-113608332D01*
X211812434Y-113722225D01*
X211518839Y-113722225D01*
X211518839Y-113946898D01*
X211849208Y-113946898D01*
X211849208Y-114061250D01*
X211389742Y-114061250D01*
G37*
G36*
X212157779Y-114061250D02*
G01*
X211967040Y-113483768D01*
X212102320Y-113483768D01*
X212212000Y-113834791D01*
X212230548Y-113899912D01*
X212243554Y-113953172D01*
X212257338Y-113899912D01*
X212274511Y-113835386D01*
X212382268Y-113483768D01*
X212515900Y-113483768D01*
X212326398Y-114061250D01*
X212157779Y-114061250D01*
G37*
G36*
X212930958Y-113476950D02*
G01*
X212975695Y-113487404D01*
X213013547Y-113503899D01*
X213045617Y-113526220D01*
X213072436Y-113554779D01*
X213091500Y-113587523D01*
X213103242Y-113625284D01*
X213107349Y-113669286D01*
X213107349Y-114061250D01*
X212979946Y-114061250D01*
X212979946Y-113960225D01*
X212977737Y-113960225D01*
X212977416Y-113963429D01*
X212968446Y-113990289D01*
X212953774Y-114013681D01*
X212932914Y-114034184D01*
X212899296Y-114054358D01*
X212857834Y-114067142D01*
X212806518Y-114071737D01*
X212762101Y-114068459D01*
X212724602Y-114059221D01*
X212692838Y-114044598D01*
X212665880Y-114024705D01*
X212643638Y-113999539D01*
X212627685Y-113970474D01*
X212617789Y-113936740D01*
X212614314Y-113897256D01*
X212615441Y-113885166D01*
X212745656Y-113885166D01*
X212748906Y-113911149D01*
X212758135Y-113932260D01*
X212773362Y-113949646D01*
X212793123Y-113962241D01*
X212818288Y-113970300D01*
X212850344Y-113973230D01*
X212886090Y-113969838D01*
X212915802Y-113960261D01*
X212940699Y-113944883D01*
X212960448Y-113923909D01*
X212972032Y-113899791D01*
X212976007Y-113871427D01*
X212976007Y-113801131D01*
X212834591Y-113801131D01*
X212808502Y-113803877D01*
X212787285Y-113811595D01*
X212769882Y-113824029D01*
X212756617Y-113840644D01*
X212748514Y-113860687D01*
X212745656Y-113885166D01*
X212615441Y-113885166D01*
X212618173Y-113855875D01*
X212629118Y-113821036D01*
X212646750Y-113791447D01*
X212671421Y-113766235D01*
X212700869Y-113746908D01*
X212736559Y-113732392D01*
X212779730Y-113723059D01*
X212831889Y-113719706D01*
X212976007Y-113719706D01*
X212976007Y-113670568D01*
X212972790Y-113643893D01*
X212963721Y-113622471D01*
X212948896Y-113605080D01*
X212929522Y-113592395D01*
X212905033Y-113584326D01*
X212874021Y-113581404D01*
X212833969Y-113586360D01*
X212802809Y-113600180D01*
X212786135Y-113614398D01*
X212775021Y-113631250D01*
X212768920Y-113651334D01*
X212640647Y-113651334D01*
X212648971Y-113611933D01*
X212663913Y-113577675D01*
X212685499Y-113547670D01*
X212714332Y-113521366D01*
X212747431Y-113500925D01*
X212785172Y-113485930D01*
X212828355Y-113476533D01*
X212877959Y-113473235D01*
X212930958Y-113476950D01*
G37*
G36*
X213265939Y-114061250D02*
G01*
X213265939Y-113483768D01*
X213394212Y-113483768D01*
X213394212Y-113593998D01*
X213429521Y-113593998D01*
X213394212Y-113624635D01*
X213399233Y-113578835D01*
X213413245Y-113542434D01*
X213435749Y-113513306D01*
X213465727Y-113491623D01*
X213502865Y-113478082D01*
X213549184Y-113473235D01*
X213590964Y-113477012D01*
X213626944Y-113487814D01*
X213658234Y-113505326D01*
X213685609Y-113529884D01*
X213707319Y-113559467D01*
X213723220Y-113594004D01*
X213733225Y-113634437D01*
X213736763Y-113681971D01*
X213736763Y-114061250D01*
X213605421Y-114061250D01*
X213605421Y-113695526D01*
X213602015Y-113661849D01*
X213592636Y-113635654D01*
X213577852Y-113615247D01*
X213557860Y-113599991D01*
X213532922Y-113590487D01*
X213501603Y-113587083D01*
X213470210Y-113590600D01*
X213445135Y-113600450D01*
X213424941Y-113616346D01*
X213410153Y-113637473D01*
X213400718Y-113664723D01*
X213397280Y-113699877D01*
X213397280Y-114061250D01*
X213265939Y-114061250D01*
G37*
G36*
X214693431Y-114061250D02*
G01*
X214693431Y-113782584D01*
X214468575Y-113294770D01*
X214605550Y-113294770D01*
X214725259Y-113560613D01*
X214748569Y-113622116D01*
X214761392Y-113670110D01*
X214774444Y-113622116D01*
X214796746Y-113560613D01*
X214913296Y-113294770D01*
X215049675Y-113294770D01*
X214824773Y-113782584D01*
X214824773Y-114061250D01*
X214693431Y-114061250D01*
G37*
G36*
X215388104Y-114071737D02*
G01*
X215333682Y-114067488D01*
X215287665Y-114055490D01*
X215248571Y-114036410D01*
X215215272Y-114010279D01*
X215188240Y-113977696D01*
X215168649Y-113939673D01*
X215156398Y-113895144D01*
X215152074Y-113842667D01*
X215152074Y-113483768D01*
X215283415Y-113483768D01*
X215283415Y-113842026D01*
X215286830Y-113877897D01*
X215296199Y-113905757D01*
X215310847Y-113927389D01*
X215330984Y-113943722D01*
X215356227Y-113953850D01*
X215388104Y-113957477D01*
X215419870Y-113953867D01*
X215445243Y-113943749D01*
X215465682Y-113927389D01*
X215480645Y-113905713D01*
X215490189Y-113877852D01*
X215493663Y-113842026D01*
X215493663Y-113483768D01*
X215625004Y-113483768D01*
X215625004Y-113842667D01*
X215620622Y-113895422D01*
X215608218Y-113940073D01*
X215588390Y-113978103D01*
X215561028Y-114010600D01*
X215527392Y-114036633D01*
X215488137Y-114055615D01*
X215442180Y-114067528D01*
X215388104Y-114071737D01*
G37*
D12*
G36*
X210471651Y-113165000D02*
G01*
X210471651Y-112143026D01*
X210678646Y-112143026D01*
X210777687Y-112468480D01*
X210802783Y-112556957D01*
X210815667Y-112616247D01*
X210828550Y-112556957D01*
X210851692Y-112467930D01*
X210947619Y-112143026D01*
X211154554Y-112143026D01*
X211154554Y-113165000D01*
X210991216Y-113165000D01*
X210991216Y-112847240D01*
X210995002Y-112694588D01*
X211005016Y-112529357D01*
X211018449Y-112372126D01*
X211031394Y-112242861D01*
X210894008Y-112725179D01*
X210734822Y-112725179D01*
X210593589Y-112242861D01*
X210607572Y-112367913D01*
X210620578Y-112522152D01*
X210630836Y-112688176D01*
X210635049Y-112847240D01*
X210635049Y-113165000D01*
X210471651Y-113165000D01*
G37*
G36*
X211339079Y-113165000D02*
G01*
X211339079Y-113005997D01*
X211607990Y-113005997D01*
X211607990Y-112553171D01*
X211374067Y-112553171D01*
X211374067Y-112395024D01*
X211774930Y-112395024D01*
X211774930Y-113005997D01*
X212013434Y-113005997D01*
X212013434Y-113165000D01*
X211339079Y-113165000D01*
G37*
G36*
X211677539Y-112266247D02*
G01*
X211643345Y-112262943D01*
X211615875Y-112253741D01*
X211593702Y-112239136D01*
X211576614Y-112219191D01*
X211566262Y-112195144D01*
X211562622Y-112165741D01*
X211566276Y-112135883D01*
X211576642Y-112111563D01*
X211593702Y-112091491D01*
X211615898Y-112076710D01*
X211643368Y-112067411D01*
X211677539Y-112064075D01*
X211711751Y-112067413D01*
X211739239Y-112076713D01*
X211761436Y-112091491D01*
X211778496Y-112111563D01*
X211788863Y-112135883D01*
X211792516Y-112165741D01*
X211788877Y-112195144D01*
X211778525Y-112219191D01*
X211761436Y-112239136D01*
X211739262Y-112253738D01*
X211711774Y-112262941D01*
X211677539Y-112266247D01*
G37*
G36*
X212496363Y-113178982D02*
G01*
X212431760Y-113174613D01*
X212374812Y-113162092D01*
X212324355Y-113141980D01*
X212278491Y-113113502D01*
X212240768Y-113078593D01*
X212210354Y-113036772D01*
X212188398Y-112989832D01*
X212174835Y-112936917D01*
X212170115Y-112876793D01*
X212170115Y-112683169D01*
X212174871Y-112622147D01*
X212188467Y-112569070D01*
X212210354Y-112522580D01*
X212240725Y-112481178D01*
X212278442Y-112446482D01*
X212324355Y-112418044D01*
X212374816Y-112397897D01*
X212431763Y-112385356D01*
X212496363Y-112380980D01*
X212568420Y-112386153D01*
X212629891Y-112400785D01*
X212682529Y-112424018D01*
X212727722Y-112455657D01*
X212765665Y-112495845D01*
X212793470Y-112542332D01*
X212811618Y-112596263D01*
X212819679Y-112659295D01*
X212644557Y-112659295D01*
X212637536Y-112621485D01*
X212623113Y-112591218D01*
X212601387Y-112566910D01*
X212573671Y-112549180D01*
X212539258Y-112537970D01*
X212496363Y-112533937D01*
X212450425Y-112538625D01*
X212414091Y-112551630D01*
X212385232Y-112572283D01*
X212363728Y-112600248D01*
X212350159Y-112636226D01*
X212345237Y-112682620D01*
X212345237Y-112876793D01*
X212350123Y-112922663D01*
X212363664Y-112958675D01*
X212385232Y-112987069D01*
X212414138Y-113008076D01*
X212450473Y-113021274D01*
X212496363Y-113026025D01*
X212539272Y-113022012D01*
X212573685Y-113010860D01*
X212601387Y-112993236D01*
X212623101Y-112968959D01*
X212637528Y-112938659D01*
X212644557Y-112900729D01*
X212819679Y-112900729D01*
X212811619Y-112963728D01*
X212793473Y-113017639D01*
X212765668Y-113064117D01*
X212727722Y-113104305D01*
X212682529Y-113135944D01*
X212629891Y-113159177D01*
X212568420Y-113173810D01*
X212496363Y-113178982D01*
G37*
G36*
X213042429Y-113165000D02*
G01*
X213042429Y-112395024D01*
X213208208Y-112395024D01*
X213208208Y-112541997D01*
X213251562Y-112541997D01*
X213199477Y-112632184D01*
X213203593Y-112569107D01*
X213214931Y-112518151D01*
X213232377Y-112477138D01*
X213255408Y-112444300D01*
X213285390Y-112417510D01*
X213321864Y-112397887D01*
X213366187Y-112385438D01*
X213420211Y-112380980D01*
X213481933Y-112386223D01*
X213534141Y-112401073D01*
X213578597Y-112424844D01*
X213616583Y-112457733D01*
X213646635Y-112497879D01*
X213668792Y-112545629D01*
X213682838Y-112602481D01*
X213687840Y-112670347D01*
X213687840Y-112726400D01*
X213504536Y-112726400D01*
X213504536Y-112683169D01*
X213499776Y-112634862D01*
X213486688Y-112597300D01*
X213466129Y-112568070D01*
X213438189Y-112546019D01*
X213403644Y-112532386D01*
X213360555Y-112527526D01*
X213316735Y-112532469D01*
X213282219Y-112546239D01*
X213254859Y-112568375D01*
X213234895Y-112597694D01*
X213222174Y-112635185D01*
X213217551Y-112683169D01*
X213217551Y-113165000D01*
X213042429Y-113165000D01*
G37*
G36*
X214235111Y-112386564D02*
G01*
X214291546Y-112399147D01*
X214340640Y-112419204D01*
X214385162Y-112447566D01*
X214421999Y-112482361D01*
X214451893Y-112524106D01*
X214473459Y-112570812D01*
X214486808Y-112623622D01*
X214491460Y-112683780D01*
X214491460Y-112875633D01*
X214486814Y-112935793D01*
X214473469Y-112988712D01*
X214451893Y-113035612D01*
X214421980Y-113077548D01*
X214385140Y-113112440D01*
X214340640Y-113140819D01*
X214291549Y-113160843D01*
X214235114Y-113173405D01*
X214169976Y-113177822D01*
X214105417Y-113173425D01*
X214049096Y-113160881D01*
X213999739Y-113140819D01*
X213954967Y-113112415D01*
X213917993Y-113077520D01*
X213888058Y-113035612D01*
X213866517Y-112988715D01*
X213853192Y-112935796D01*
X213848552Y-112875633D01*
X213848552Y-112684391D01*
X214023674Y-112684391D01*
X214023674Y-112875633D01*
X214028467Y-112922384D01*
X214041638Y-112958513D01*
X214062387Y-112986458D01*
X214090421Y-113007197D01*
X214125598Y-113020193D01*
X214169976Y-113024865D01*
X214215333Y-113020142D01*
X214250680Y-113007104D01*
X214278297Y-112986458D01*
X214298657Y-112958567D01*
X214311616Y-112922440D01*
X214316338Y-112875633D01*
X214316338Y-112684391D01*
X214311587Y-112637007D01*
X214298604Y-112600786D01*
X214278297Y-112573138D01*
X214250709Y-112552705D01*
X214215363Y-112539783D01*
X214169976Y-112535097D01*
X214125569Y-112539732D01*
X214090393Y-112552612D01*
X214062387Y-112573138D01*
X214041692Y-112600840D01*
X214028497Y-112637064D01*
X214023674Y-112684391D01*
X213848552Y-112684391D01*
X213853208Y-112623819D01*
X213866547Y-112570816D01*
X213888058Y-112524106D01*
X213917974Y-112482390D01*
X213954945Y-112447591D01*
X213999739Y-112419204D01*
X214049100Y-112399108D01*
X214105420Y-112386544D01*
X214169976Y-112382140D01*
X214235111Y-112386564D01*
G37*
G36*
X214695892Y-113165000D02*
G01*
X214695892Y-112143026D01*
X214871075Y-112143026D01*
X214871075Y-112556652D01*
X214991914Y-112556652D01*
X215184377Y-112143026D01*
X215374765Y-112143026D01*
X215146764Y-112632733D01*
X215385511Y-113165000D01*
X215190545Y-113165000D01*
X214990204Y-112715532D01*
X214871075Y-112715532D01*
X214871075Y-113165000D01*
X214695892Y-113165000D01*
G37*
G36*
X215913378Y-112385444D02*
G01*
X215969460Y-112398202D01*
X216018772Y-112418654D01*
X216063506Y-112447356D01*
X216100440Y-112482343D01*
X216130330Y-112524106D01*
X216151916Y-112570804D01*
X216165256Y-112623422D01*
X216169897Y-112683169D01*
X216169897Y-112821472D01*
X215695211Y-112821472D01*
X215695211Y-112876793D01*
X215700196Y-112928937D01*
X215713766Y-112968695D01*
X215734840Y-112998914D01*
X215763891Y-113021308D01*
X215801696Y-113035507D01*
X215850916Y-113040680D01*
X215906245Y-113035062D01*
X215945988Y-113020102D01*
X215967433Y-113004132D01*
X215982530Y-112984580D01*
X215991966Y-112960812D01*
X216164646Y-112960812D01*
X216150489Y-113007976D01*
X216128402Y-113049632D01*
X216098085Y-113086631D01*
X216058645Y-113119448D01*
X215998771Y-113151872D01*
X215929686Y-113171947D01*
X215849267Y-113178982D01*
X215785111Y-113174538D01*
X215728705Y-113161812D01*
X215678847Y-113141369D01*
X215633630Y-113112603D01*
X215596446Y-113077513D01*
X215566495Y-113035612D01*
X215544915Y-112988729D01*
X215531609Y-112936177D01*
X215526989Y-112876793D01*
X215526989Y-112683169D01*
X215695211Y-112683169D01*
X215695211Y-112712295D01*
X216001675Y-112710710D01*
X216001675Y-112681582D01*
X215996882Y-112629851D01*
X215983806Y-112590081D01*
X215963512Y-112559583D01*
X215935371Y-112536849D01*
X215898232Y-112522421D01*
X215849267Y-112517145D01*
X215800724Y-112522468D01*
X215763310Y-112537135D01*
X215734412Y-112560437D01*
X215713491Y-112591504D01*
X215700097Y-112631557D01*
X215695211Y-112683169D01*
X215526989Y-112683169D01*
X215531624Y-112623419D01*
X215544943Y-112570801D01*
X215566495Y-112524106D01*
X215596427Y-112482396D01*
X215633608Y-112447403D01*
X215678847Y-112418654D01*
X215728709Y-112398177D01*
X215785114Y-112385431D01*
X215849267Y-112380980D01*
X215913378Y-112385444D01*
G37*
G36*
X216499686Y-113416997D02*
G01*
X216608130Y-113123112D01*
X216320900Y-112395024D01*
X216512509Y-112395024D01*
X216654841Y-112789110D01*
X216677495Y-112866290D01*
X216695264Y-112940418D01*
X216712910Y-112866290D01*
X216735014Y-112789110D01*
X216870264Y-112395024D01*
X217054423Y-112395024D01*
X216684028Y-113416997D01*
X216499686Y-113416997D01*
G37*
D10*
%TO.C,J1*%
G36*
X192011995Y-104835502D02*
G01*
X192302392Y-104913313D01*
X192580148Y-105028363D01*
X192840510Y-105178684D01*
X193079025Y-105361703D01*
X193291610Y-105574288D01*
X193474629Y-105812803D01*
X193624950Y-106073165D01*
X193740000Y-106350921D01*
X193817811Y-106641318D01*
X193857053Y-106939387D01*
X193857053Y-107240029D01*
X193817811Y-107538098D01*
X193740000Y-107828495D01*
X193624950Y-108106251D01*
X193474629Y-108366613D01*
X193291610Y-108605128D01*
X193079025Y-108817713D01*
X192840510Y-109000732D01*
X192580148Y-109151053D01*
X192302392Y-109266103D01*
X192011995Y-109343914D01*
X191713926Y-109383156D01*
X191413284Y-109383156D01*
X191115215Y-109343914D01*
X190824818Y-109266103D01*
X190547062Y-109151053D01*
X190286700Y-109000732D01*
X190048185Y-108817713D01*
X189835600Y-108605128D01*
X189652581Y-108366613D01*
X189502260Y-108106251D01*
X189387210Y-107828495D01*
X189309399Y-107538098D01*
X189270157Y-107240029D01*
X189270157Y-106939387D01*
X189309399Y-106641318D01*
X189387210Y-106350921D01*
X189502260Y-106073165D01*
X189652581Y-105812803D01*
X189835600Y-105574288D01*
X190048185Y-105361703D01*
X190286700Y-105178684D01*
X190547062Y-105028363D01*
X190824818Y-104913313D01*
X191115215Y-104835502D01*
X191413284Y-104796260D01*
X191713926Y-104796260D01*
X192011995Y-104835502D01*
G37*
%TD*%
D13*
%TO.C,J1*%
X189000000Y-107750000D03*
%TD*%
D14*
%TO.C,H1*%
X184360000Y-106855000D03*
D15*
X185370000Y-100395000D03*
D16*
X185370000Y-113655000D03*
D17*
X185470000Y-112655000D03*
D18*
X185530000Y-101245000D03*
D19*
X186220000Y-112745000D03*
D20*
X186220000Y-113495000D03*
D21*
X186280000Y-101245000D03*
D20*
X186370000Y-100495000D03*
%TD*%
D22*
%TO.C,USB1*%
X216349999Y-102725000D03*
X216349999Y-111275000D03*
%TD*%
%LPD*%
M02*
