%TF.GenerationSoftware,KiCad,Pcbnew,9.0.0*%
%TF.CreationDate,2025-06-27T23:21:56-04:00*%
%TF.ProjectId,microkey,6d696372-6f6b-4657-992e-6b696361645f,rev?*%
%TF.SameCoordinates,Original*%
%TF.FileFunction,Soldermask,Bot*%
%TF.FilePolarity,Negative*%
%FSLAX46Y46*%
G04 Gerber Fmt 4.6, Leading zero omitted, Abs format (unit mm)*
G04 Created by KiCad (PCBNEW 9.0.0) date 2025-06-27 23:21:56*
%MOMM*%
%LPD*%
G01*
G04 APERTURE LIST*
G04 Aperture macros list*
%AMRoundRect*
0 Rectangle with rounded corners*
0 $1 Rounding radius*
0 $2 $3 $4 $5 $6 $7 $8 $9 X,Y pos of 4 corners*
0 Add a 4 corners polygon primitive as box body*
4,1,4,$2,$3,$4,$5,$6,$7,$8,$9,$2,$3,0*
0 Add four circle primitives for the rounded corners*
1,1,$1+$1,$2,$3*
1,1,$1+$1,$4,$5*
1,1,$1+$1,$6,$7*
1,1,$1+$1,$8,$9*
0 Add four rect primitives between the rounded corners*
20,1,$1+$1,$2,$3,$4,$5,0*
20,1,$1+$1,$4,$5,$6,$7,0*
20,1,$1+$1,$6,$7,$8,$9,0*
20,1,$1+$1,$8,$9,$2,$3,0*%
%AMRotRect*
0 Rectangle, with rotation*
0 The origin of the aperture is its center*
0 $1 length*
0 $2 width*
0 $3 Rotation angle, in degrees counterclockwise*
0 Add horizontal line*
21,1,$1,$2,0,0,$3*%
%AMFreePoly0*
4,1,18,-0.437500,0.050000,-0.433694,0.069134,-0.422855,0.085355,-0.406634,0.096194,-0.387500,0.100000,0.387500,0.100000,0.406634,0.096194,0.422855,0.085355,0.433694,0.069134,0.437500,0.050000,0.437500,-0.050000,0.387500,-0.100000,-0.387500,-0.100000,-0.406634,-0.096194,-0.422855,-0.085355,-0.433694,-0.069134,-0.437500,-0.050000,-0.437500,0.050000,-0.437500,0.050000,$1*%
%AMFreePoly1*
4,1,18,-0.437500,0.050000,-0.433694,0.069134,-0.422855,0.085355,-0.406634,0.096194,-0.387500,0.100000,0.387500,0.100000,0.437500,0.050000,0.437500,-0.050000,0.433694,-0.069134,0.422855,-0.085355,0.406634,-0.096194,0.387500,-0.100000,-0.387500,-0.100000,-0.406634,-0.096194,-0.422855,-0.085355,-0.433694,-0.069134,-0.437500,-0.050000,-0.437500,0.050000,-0.437500,0.050000,$1*%
%AMFreePoly2*
4,1,18,-0.100000,0.387500,-0.096194,0.406634,-0.085355,0.422855,-0.069134,0.433694,-0.050000,0.437500,0.050000,0.437500,0.069134,0.433694,0.085355,0.422855,0.096194,0.406634,0.100000,0.387500,0.100000,-0.387500,0.096194,-0.406634,0.085355,-0.422855,0.069134,-0.433694,0.050000,-0.437500,-0.050000,-0.437500,-0.100000,-0.387500,-0.100000,0.387500,-0.100000,0.387500,$1*%
%AMFreePoly3*
4,1,18,-0.100000,0.387500,-0.096194,0.406634,-0.085355,0.422855,-0.069134,0.433694,-0.050000,0.437500,0.050000,0.437500,0.069134,0.433694,0.085355,0.422855,0.096194,0.406634,0.100000,0.387500,0.100000,-0.387500,0.050000,-0.437500,-0.050000,-0.437500,-0.069134,-0.433694,-0.085355,-0.422855,-0.096194,-0.406634,-0.100000,-0.387500,-0.100000,0.387500,-0.100000,0.387500,$1*%
%AMFreePoly4*
4,1,18,-0.437500,0.050000,-0.387500,0.100000,0.387500,0.100000,0.406634,0.096194,0.422855,0.085355,0.433694,0.069134,0.437500,0.050000,0.437500,-0.050000,0.433694,-0.069134,0.422855,-0.085355,0.406634,-0.096194,0.387500,-0.100000,-0.387500,-0.100000,-0.406634,-0.096194,-0.422855,-0.085355,-0.433694,-0.069134,-0.437500,-0.050000,-0.437500,0.050000,-0.437500,0.050000,$1*%
%AMFreePoly5*
4,1,18,-0.437500,0.050000,-0.433694,0.069134,-0.422855,0.085355,-0.406634,0.096194,-0.387500,0.100000,0.387500,0.100000,0.406634,0.096194,0.422855,0.085355,0.433694,0.069134,0.437500,0.050000,0.437500,-0.050000,0.433694,-0.069134,0.422855,-0.085355,0.406634,-0.096194,0.387500,-0.100000,-0.387500,-0.100000,-0.437500,-0.050000,-0.437500,0.050000,-0.437500,0.050000,$1*%
%AMFreePoly6*
4,1,18,-0.100000,0.387500,-0.096194,0.406634,-0.085355,0.422855,-0.069134,0.433694,-0.050000,0.437500,0.050000,0.437500,0.100000,0.387500,0.100000,-0.387500,0.096194,-0.406634,0.085355,-0.422855,0.069134,-0.433694,0.050000,-0.437500,-0.050000,-0.437500,-0.069134,-0.433694,-0.085355,-0.422855,-0.096194,-0.406634,-0.100000,-0.387500,-0.100000,0.387500,-0.100000,0.387500,$1*%
%AMFreePoly7*
4,1,18,-0.100000,0.387500,-0.050000,0.437500,0.050000,0.437500,0.069134,0.433694,0.085355,0.422855,0.096194,0.406634,0.100000,0.387500,0.100000,-0.387500,0.096194,-0.406634,0.085355,-0.422855,0.069134,-0.433694,0.050000,-0.437500,-0.050000,-0.437500,-0.069134,-0.433694,-0.085355,-0.422855,-0.096194,-0.406634,-0.100000,-0.387500,-0.100000,0.387500,-0.100000,0.387500,$1*%
G04 Aperture macros list end*
%ADD10FreePoly0,90.000000*%
%ADD11RoundRect,0.050000X0.050000X-0.387500X0.050000X0.387500X-0.050000X0.387500X-0.050000X-0.387500X0*%
%ADD12FreePoly1,90.000000*%
%ADD13FreePoly2,90.000000*%
%ADD14RoundRect,0.050000X0.387500X-0.050000X0.387500X0.050000X-0.387500X0.050000X-0.387500X-0.050000X0*%
%ADD15FreePoly3,90.000000*%
%ADD16FreePoly4,90.000000*%
%ADD17FreePoly5,90.000000*%
%ADD18FreePoly6,90.000000*%
%ADD19FreePoly7,90.000000*%
%ADD20RoundRect,0.153000X-1.547000X-1.547000X1.547000X-1.547000X1.547000X1.547000X-1.547000X1.547000X0*%
%ADD21C,1.000000*%
%ADD22RoundRect,0.140000X-0.170000X0.140000X-0.170000X-0.140000X0.170000X-0.140000X0.170000X0.140000X0*%
%ADD23R,0.700000X0.700000*%
%ADD24R,1.500000X1.500000*%
%ADD25RoundRect,0.135000X-0.135000X-0.185000X0.135000X-0.185000X0.135000X0.185000X-0.135000X0.185000X0*%
%ADD26RoundRect,0.250000X-0.250000X-0.475000X0.250000X-0.475000X0.250000X0.475000X-0.250000X0.475000X0*%
%ADD27RoundRect,0.135000X0.035355X-0.226274X0.226274X-0.035355X-0.035355X0.226274X-0.226274X0.035355X0*%
%ADD28RotRect,0.600000X1.000000X315.000000*%
%ADD29R,0.280000X0.600000*%
%ADD30R,1.700000X0.300000*%
%ADD31R,0.530000X0.470000*%
%ADD32RoundRect,0.140000X0.021213X-0.219203X0.219203X-0.021213X-0.021213X0.219203X-0.219203X0.021213X0*%
%ADD33RoundRect,0.135000X0.135000X0.185000X-0.135000X0.185000X-0.135000X-0.185000X0.135000X-0.185000X0*%
%ADD34R,1.700000X0.700000*%
%ADD35R,0.900000X0.300000*%
%ADD36R,1.000000X1.430000*%
%ADD37O,2.400000X1.200000*%
%ADD38RoundRect,0.140000X0.170000X-0.140000X0.170000X0.140000X-0.170000X0.140000X-0.170000X-0.140000X0*%
%ADD39RoundRect,0.135000X0.185000X-0.135000X0.185000X0.135000X-0.185000X0.135000X-0.185000X-0.135000X0*%
%ADD40RoundRect,0.140000X-0.219203X-0.021213X-0.021213X-0.219203X0.219203X0.021213X0.021213X0.219203X0*%
%ADD41RoundRect,0.140000X-0.140000X-0.170000X0.140000X-0.170000X0.140000X0.170000X-0.140000X0.170000X0*%
%ADD42RoundRect,0.140000X0.140000X0.170000X-0.140000X0.170000X-0.140000X-0.170000X0.140000X-0.170000X0*%
%ADD43R,1.200000X1.400000*%
%ADD44RoundRect,0.250000X0.250000X0.475000X-0.250000X0.475000X-0.250000X-0.475000X0.250000X-0.475000X0*%
%ADD45RoundRect,0.250000X-0.475000X0.250000X-0.475000X-0.250000X0.475000X-0.250000X0.475000X0.250000X0*%
G04 APERTURE END LIST*
D10*
%TO.C,U1*%
X205490000Y-110237501D03*
D11*
X205090000Y-110237500D03*
X204690000Y-110237500D03*
X204290000Y-110237500D03*
X203890001Y-110237500D03*
X203090000Y-110237500D03*
X202690000Y-110237501D03*
X202290000Y-110237500D03*
X201890000Y-110237500D03*
X201489999Y-110237500D03*
X201090000Y-110237500D03*
X200690000Y-110237500D03*
X200290000Y-110237500D03*
D12*
X199890000Y-110237501D03*
D13*
X199252499Y-109600000D03*
D14*
X199252500Y-109200000D03*
X199252500Y-108800000D03*
X199252500Y-108400000D03*
X199252500Y-108000001D03*
X199252500Y-107600000D03*
X199252500Y-107200000D03*
X199252500Y-106400000D03*
X199252500Y-106000000D03*
X199252500Y-105599999D03*
X199252500Y-105200000D03*
X199252500Y-104800000D03*
X199252500Y-104400000D03*
D15*
X199252499Y-104000000D03*
D16*
X199890000Y-103362499D03*
D11*
X200290000Y-103362500D03*
X200690000Y-103362500D03*
X201090000Y-103362500D03*
X201489999Y-103362500D03*
X201890000Y-103362500D03*
X202290000Y-103362500D03*
X202690000Y-103362499D03*
X203490000Y-103362500D03*
X203890001Y-103362500D03*
X204290000Y-103362500D03*
X204690000Y-103362500D03*
X205090000Y-103362500D03*
D17*
X205490000Y-103362499D03*
D18*
X206127501Y-104000000D03*
D14*
X206127500Y-104400000D03*
X206127500Y-104800000D03*
X206127500Y-105200000D03*
X206127500Y-105599999D03*
X206127500Y-106000000D03*
X206127500Y-106400000D03*
X206127501Y-106800000D03*
X206127500Y-107200000D03*
X206127500Y-108000001D03*
X206127500Y-108400000D03*
X206127500Y-108800000D03*
X206127500Y-109200000D03*
D19*
X206127501Y-109600000D03*
D11*
X203090000Y-103362500D03*
D14*
X199252499Y-106800000D03*
D11*
X203490000Y-110237500D03*
D14*
X206127500Y-107600000D03*
D20*
X202690000Y-106800000D03*
%TD*%
D21*
%TO.C,TP6*%
X196250000Y-106000000D03*
%TD*%
%TO.C,TP5*%
X196250000Y-104000000D03*
%TD*%
D22*
%TO.C,C4*%
X194250000Y-106270000D03*
X194250000Y-107230000D03*
%TD*%
D23*
%TO.C,D1*%
X187900000Y-106085000D03*
X189000000Y-106085000D03*
X189000000Y-107915000D03*
X187900000Y-107915000D03*
%TD*%
D24*
%TO.C,TP4*%
X188250000Y-113750000D03*
%TD*%
%TO.C,TP3*%
X188250000Y-111250000D03*
%TD*%
%TO.C,TP2*%
X188400000Y-102750000D03*
%TD*%
%TO.C,TP1*%
X188400000Y-100250000D03*
%TD*%
D25*
%TO.C,R4*%
X197009999Y-100250000D03*
X195990001Y-100250000D03*
%TD*%
D26*
%TO.C,C1*%
X215260001Y-100290000D03*
X217159999Y-100290000D03*
%TD*%
D27*
%TO.C,R16*%
X213719376Y-103370624D03*
X214440624Y-102649376D03*
%TD*%
D28*
%TO.C,U2*%
X212606066Y-100050431D03*
X213277817Y-100722183D03*
X213949569Y-101393934D03*
X212393934Y-102949569D03*
X211050431Y-101606066D03*
%TD*%
D29*
%TO.C,U3*%
X210580251Y-112845251D03*
X210080250Y-112845251D03*
X209580250Y-112845251D03*
X209080249Y-112845251D03*
X209080249Y-109830251D03*
X209580250Y-109830251D03*
X210080250Y-109830251D03*
X210580251Y-109830251D03*
D30*
X209830250Y-111337751D03*
%TD*%
D31*
%TO.C,C7*%
X208490000Y-104245000D03*
X208490000Y-105275000D03*
%TD*%
D32*
%TO.C,C9*%
X208159411Y-102540589D03*
X207480589Y-103219411D03*
%TD*%
D31*
%TO.C,C6*%
X207540000Y-105275000D03*
X207540000Y-104245000D03*
%TD*%
D33*
%TO.C,R6*%
X205415001Y-113750000D03*
X206434999Y-113750000D03*
%TD*%
%TO.C,R8*%
X209115001Y-106925000D03*
X210134999Y-106925000D03*
%TD*%
D34*
%TO.C,L1*%
X210050000Y-105499947D03*
X210050000Y-104099947D03*
%TD*%
D33*
%TO.C,R2*%
X194240001Y-109250000D03*
X195259999Y-109250000D03*
%TD*%
D35*
%TO.C,USB1*%
X216000000Y-109750000D03*
D36*
X217000000Y-102999999D03*
D37*
X216349999Y-111275000D03*
D36*
X217000000Y-111000001D03*
D37*
X216349999Y-102725000D03*
D35*
X216000001Y-107750000D03*
X216000000Y-109250000D03*
X216000000Y-104250000D03*
X216000000Y-108749999D03*
X216000000Y-108250000D03*
X216000000Y-105750000D03*
X216000000Y-105250001D03*
X216000000Y-104750000D03*
X216000001Y-106250000D03*
X216000000Y-106750000D03*
X216000000Y-107250000D03*
%TD*%
D38*
%TO.C,C15*%
X202270000Y-101120000D03*
X202270000Y-100160000D03*
%TD*%
%TO.C,C8*%
X203500000Y-101530000D03*
X203500000Y-100570000D03*
%TD*%
D39*
%TO.C,R9*%
X214470000Y-108289999D03*
X214470000Y-107270001D03*
%TD*%
D22*
%TO.C,C11*%
X203500000Y-112710000D03*
X203500000Y-111750000D03*
%TD*%
%TO.C,C12*%
X204580000Y-112710000D03*
X204580000Y-111750000D03*
%TD*%
D40*
%TO.C,C14*%
X213790589Y-109530589D03*
X214469411Y-110209411D03*
%TD*%
D41*
%TO.C,C17*%
X215690000Y-113130000D03*
X216650000Y-113130000D03*
%TD*%
D33*
%TO.C,R7*%
X210134999Y-107900000D03*
X209115001Y-107900000D03*
%TD*%
D25*
%TO.C,R5*%
X208565000Y-99950000D03*
X209585000Y-99950000D03*
%TD*%
D38*
%TO.C,C18*%
X198750000Y-100790000D03*
X198750000Y-101750000D03*
%TD*%
D42*
%TO.C,C2*%
X204620000Y-101760000D03*
X205580000Y-101760000D03*
%TD*%
D38*
%TO.C,C10*%
X197750000Y-102770000D03*
X197750000Y-103730000D03*
%TD*%
D22*
%TO.C,C13*%
X198000000Y-108770000D03*
X198000000Y-109730000D03*
%TD*%
D43*
%TO.C,Y1*%
X191050000Y-105650000D03*
X192750000Y-107850000D03*
X191050000Y-107850000D03*
X192750000Y-105650000D03*
%TD*%
D44*
%TO.C,C5*%
X206749999Y-100140000D03*
X204850001Y-100140000D03*
%TD*%
D22*
%TO.C,C16*%
X201500000Y-112730000D03*
X201500000Y-111770000D03*
%TD*%
D45*
%TO.C,C19*%
X194180000Y-101970001D03*
X194180000Y-103869999D03*
%TD*%
D41*
%TO.C,C3*%
X192710000Y-109500000D03*
X191750000Y-109500000D03*
%TD*%
M02*
