%TF.GenerationSoftware,KiCad,Pcbnew,9.0.0*%
%TF.CreationDate,2025-06-27T23:21:56-04:00*%
%TF.ProjectId,microkey,6d696372-6f6b-4657-992e-6b696361645f,rev?*%
%TF.SameCoordinates,Original*%
%TF.FileFunction,Copper,L1,Top*%
%TF.FilePolarity,Positive*%
%FSLAX46Y46*%
G04 Gerber Fmt 4.6, Leading zero omitted, Abs format (unit mm)*
G04 Created by KiCad (PCBNEW 9.0.0) date 2025-06-27 23:21:56*
%MOMM*%
%LPD*%
G01*
G04 APERTURE LIST*
%TA.AperFunction,ComponentPad*%
%ADD10C,0.600000*%
%TD*%
%TA.AperFunction,SMDPad,CuDef*%
%ADD11C,10.000000*%
%TD*%
%TA.AperFunction,ComponentPad*%
%ADD12O,2.400000X1.200000*%
%TD*%
%TA.AperFunction,ViaPad*%
%ADD13C,0.600000*%
%TD*%
%TA.AperFunction,ViaPad*%
%ADD14C,0.500000*%
%TD*%
%TA.AperFunction,Conductor*%
%ADD15C,0.400000*%
%TD*%
%TA.AperFunction,Conductor*%
%ADD16C,0.300000*%
%TD*%
%TA.AperFunction,Conductor*%
%ADD17C,0.200000*%
%TD*%
%TA.AperFunction,Conductor*%
%ADD18C,0.500000*%
%TD*%
G04 APERTURE END LIST*
D10*
%TO.P,U1,61,GND*%
%TO.N,GND*%
X202690000Y-108175000D03*
X204065000Y-105425000D03*
X201315000Y-106800000D03*
X204065000Y-108175000D03*
X202690000Y-105425000D03*
X204065000Y-106800000D03*
X201315000Y-105425000D03*
X202690000Y-106800000D03*
X201315000Y-108175000D03*
%TD*%
D11*
%TO.P,J1,1,Pin_1*%
%TO.N,/GPIO10*%
X192760297Y-107000000D03*
%TD*%
D12*
%TO.P,USB1,26,SHELL*%
%TO.N,GND*%
X216349999Y-111275000D03*
%TO.P,USB1,25,SHELL*%
X216349999Y-102725000D03*
%TD*%
D13*
%TO.N,GND*%
X197925000Y-100849000D03*
%TO.N,VBUS*%
X187300000Y-108000000D03*
D14*
%TO.N,+1V1*%
X204775000Y-106200000D03*
X203500000Y-108900000D03*
X203350000Y-104750000D03*
D13*
%TO.N,GND*%
X198150000Y-102871740D03*
%TO.N,/RUN*%
X192750000Y-101500000D03*
X198000000Y-105250000D03*
%TO.N,GND*%
X197375000Y-110375000D03*
%TO.N,+1V1*%
X198314999Y-103999843D03*
%TO.N,GND*%
X213028798Y-104801385D03*
X217250000Y-109750000D03*
X217000000Y-104250000D03*
X196000000Y-114700000D03*
X211500000Y-111250000D03*
X192500000Y-99300000D03*
X204250000Y-99300000D03*
D14*
X191795685Y-101249000D03*
D13*
X216000000Y-103690000D03*
%TO.N,VBUS*%
X217240000Y-108200000D03*
%TO.N,GND*%
X207575000Y-114600000D03*
%TO.N,VBUS*%
X214720000Y-104010000D03*
%TO.N,GND*%
X213710000Y-100330000D03*
%TO.N,VBUS*%
X211970000Y-100850000D03*
%TO.N,GND*%
X208470000Y-112540000D03*
X208770000Y-103180000D03*
%TO.N,/VREG_AVDD*%
X209510000Y-100849000D03*
X207099733Y-103622821D03*
D14*
%TO.N,+1V1*%
X203498655Y-111098730D03*
X200540000Y-106165232D03*
X203350000Y-102350000D03*
%TO.N,GND*%
X197250000Y-112750000D03*
D13*
%TO.N,/GPIO10*%
X199000000Y-111200000D03*
D14*
%TO.N,+1V1*%
X208070000Y-106200000D03*
X208620000Y-106200000D03*
D13*
%TO.N,+3V3*%
X201480682Y-111057531D03*
X199325000Y-101750000D03*
X198096654Y-108331660D03*
X212320000Y-109830251D03*
X205660522Y-110805354D03*
X211591000Y-103781000D03*
%TD*%
D15*
%TO.N,GND*%
X200731520Y-105425000D02*
X201315000Y-105425000D01*
X198178260Y-102871740D02*
X200731520Y-105425000D01*
X198150000Y-102871740D02*
X198178260Y-102871740D01*
X197230000Y-101951740D02*
X197230000Y-101544000D01*
X198150000Y-102871740D02*
X197230000Y-101951740D01*
X197230000Y-101544000D02*
X197925000Y-100849000D01*
D16*
%TO.N,VBUS*%
X211319000Y-100199000D02*
X211970000Y-100850000D01*
X191993840Y-100199000D02*
X211319000Y-100199000D01*
X187300000Y-104892840D02*
X191993840Y-100199000D01*
X187300000Y-108000000D02*
X187300000Y-104892840D01*
D17*
%TO.N,+3V3*%
X201791000Y-107575000D02*
X201916000Y-107450000D01*
X198096654Y-108331660D02*
X198853314Y-107575000D01*
X198853314Y-107575000D02*
X201791000Y-107575000D01*
D18*
%TO.N,+1V1*%
X204775000Y-106200000D02*
X207950000Y-106200000D01*
D15*
X203500000Y-111097385D02*
X203500000Y-108900000D01*
X203498655Y-111098730D02*
X203500000Y-111097385D01*
D17*
X203350000Y-102350000D02*
X203350000Y-104750000D01*
D15*
%TO.N,GND*%
X206355000Y-113380000D02*
X204859271Y-113380000D01*
X204859271Y-113380000D02*
X204064635Y-112585365D01*
X207575000Y-114600000D02*
X206355000Y-113380000D01*
X207100000Y-104850000D02*
X208770000Y-103180000D01*
X204640000Y-104850000D02*
X207100000Y-104850000D01*
X202690000Y-106800000D02*
X204640000Y-104850000D01*
X201315000Y-108175000D02*
X199575000Y-108175000D01*
X199575000Y-108175000D02*
X197375000Y-110375000D01*
X201315000Y-106800000D02*
X201315000Y-105425000D01*
X202690000Y-111210729D02*
X204064635Y-112585365D01*
X202690000Y-108175000D02*
X204065000Y-108175000D01*
X202690000Y-108175000D02*
X202690000Y-111210729D01*
D17*
%TO.N,/RUN*%
X195000000Y-101500000D02*
X192750000Y-101500000D01*
X195250000Y-101750000D02*
X195000000Y-101500000D01*
X197714000Y-104964000D02*
X197714000Y-104214000D01*
X198000000Y-105250000D02*
X197714000Y-104964000D01*
X197714000Y-104214000D02*
X195250000Y-101750000D01*
%TO.N,/GPIO10*%
X192500000Y-107500000D02*
X192500000Y-107260297D01*
X199000000Y-111200000D02*
X196200000Y-111200000D01*
X192500000Y-107260297D02*
X192760297Y-107000000D01*
X196200000Y-111200000D02*
X192500000Y-107500000D01*
D16*
%TO.N,VBUS*%
X214720000Y-105680000D02*
X217240000Y-108200000D01*
X214720000Y-104010000D02*
X214720000Y-105680000D01*
X214720000Y-103600000D02*
X214720000Y-104010000D01*
X214720000Y-103600000D02*
X211970000Y-100850000D01*
D17*
%TO.N,GND*%
X215983500Y-109750000D02*
X215983500Y-110925001D01*
X215983500Y-109750000D02*
X215983500Y-110000001D01*
X215983500Y-110000001D02*
X216983500Y-111000001D01*
X215983500Y-110925001D02*
X216333499Y-111275000D01*
D18*
%TO.N,+1V1*%
X208070000Y-106200000D02*
X208620000Y-106200000D01*
D17*
%TO.N,+3V3*%
X201916000Y-110622213D02*
X201480682Y-111057531D01*
X205660522Y-110669478D02*
X205660522Y-110805354D01*
X201916000Y-107450000D02*
X204189943Y-107450000D01*
X206499749Y-109759806D02*
X206499749Y-109830251D01*
X211775000Y-103965000D02*
X211775000Y-109285251D01*
X211591000Y-103781000D02*
X211775000Y-103965000D01*
X204189943Y-107450000D02*
X206499749Y-109759806D01*
X201916000Y-107450000D02*
X201916000Y-110622213D01*
X212320000Y-109830251D02*
X206499749Y-109830251D01*
X211775000Y-109285251D02*
X212320000Y-109830251D01*
X206499749Y-109830251D02*
X205660522Y-110669478D01*
%TO.N,/VREG_AVDD*%
X209590000Y-101190000D02*
X207157179Y-103622821D01*
X209590000Y-100929000D02*
X209590000Y-101190000D01*
X209510000Y-100849000D02*
X209590000Y-100929000D01*
X207157179Y-103622821D02*
X207099733Y-103622821D01*
D15*
%TO.N,GND*%
X204365000Y-112285000D02*
X204064635Y-112585365D01*
X204065000Y-108175000D02*
X204365000Y-108475000D01*
X204365000Y-108475000D02*
X204365000Y-112285000D01*
%TO.N,+1V1*%
X198610156Y-104295000D02*
X198314999Y-103999843D01*
X198615000Y-104295000D02*
X198610156Y-104295000D01*
X200485232Y-106165232D02*
X198615000Y-104295000D01*
X200540000Y-106165232D02*
X200485232Y-106165232D01*
D17*
%TO.N,+3V3*%
X201916000Y-105176057D02*
X201916000Y-107450000D01*
X199189943Y-102450000D02*
X201916000Y-105176057D01*
X199189943Y-101885057D02*
X199189943Y-102450000D01*
X199325000Y-101750000D02*
X199189943Y-101885057D01*
%TD*%
%TA.AperFunction,Conductor*%
%TO.N,GND*%
G36*
X208621769Y-100858196D02*
G01*
X208651924Y-100864857D01*
X208655002Y-100867955D01*
X208659191Y-100869185D01*
X208679405Y-100892513D01*
X208701172Y-100914419D01*
X208703241Y-100920021D01*
X208704946Y-100921989D01*
X208711751Y-100943062D01*
X208713401Y-100947527D01*
X208713605Y-100948482D01*
X208740263Y-101082497D01*
X208744510Y-101092750D01*
X208746877Y-101103800D01*
X208741672Y-101173475D01*
X208713309Y-101217454D01*
X207144763Y-102786002D01*
X207083440Y-102819487D01*
X207057082Y-102822321D01*
X207020888Y-102822321D01*
X206866243Y-102853082D01*
X206866231Y-102853085D01*
X206720560Y-102913423D01*
X206720547Y-102913430D01*
X206589444Y-103001031D01*
X206589440Y-103001034D01*
X206477946Y-103112528D01*
X206477943Y-103112532D01*
X206390342Y-103243635D01*
X206390335Y-103243648D01*
X206329997Y-103389319D01*
X206329994Y-103389331D01*
X206299233Y-103543974D01*
X206299233Y-103701667D01*
X206329994Y-103856310D01*
X206329997Y-103856322D01*
X206390335Y-104001993D01*
X206390342Y-104002006D01*
X206477943Y-104133109D01*
X206477946Y-104133113D01*
X206589440Y-104244607D01*
X206589444Y-104244610D01*
X206720547Y-104332211D01*
X206720560Y-104332218D01*
X206858061Y-104389172D01*
X206866236Y-104392558D01*
X207020886Y-104423320D01*
X207020889Y-104423321D01*
X207020891Y-104423321D01*
X207178577Y-104423321D01*
X207178578Y-104423320D01*
X207333230Y-104392558D01*
X207478912Y-104332215D01*
X207610022Y-104244610D01*
X207721522Y-104133110D01*
X207809127Y-104002000D01*
X207869470Y-103856318D01*
X207886106Y-103772679D01*
X207918488Y-103710772D01*
X207919983Y-103709250D01*
X209948506Y-101680728D01*
X209948511Y-101680724D01*
X209958714Y-101670520D01*
X209958716Y-101670520D01*
X210070520Y-101558716D01*
X210149577Y-101421784D01*
X210184145Y-101292772D01*
X210200818Y-101255978D01*
X210219394Y-101228179D01*
X210279737Y-101082497D01*
X210293312Y-101014253D01*
X210306231Y-100949308D01*
X210338616Y-100887397D01*
X210399332Y-100852823D01*
X210427848Y-100849500D01*
X210998192Y-100849500D01*
X211027632Y-100858144D01*
X211057619Y-100864668D01*
X211062634Y-100868422D01*
X211065231Y-100869185D01*
X211085873Y-100885819D01*
X211152984Y-100952930D01*
X211186469Y-101014253D01*
X211186920Y-101016420D01*
X211200261Y-101083489D01*
X211200264Y-101083501D01*
X211260602Y-101229172D01*
X211260609Y-101229185D01*
X211348210Y-101360288D01*
X211348213Y-101360292D01*
X211459707Y-101471786D01*
X211459711Y-101471789D01*
X211590814Y-101559390D01*
X211590827Y-101559397D01*
X211678230Y-101595599D01*
X211736503Y-101619737D01*
X211803580Y-101633079D01*
X211865490Y-101665463D01*
X211867069Y-101667015D01*
X213907758Y-103707704D01*
X213941243Y-103769027D01*
X213941694Y-103819576D01*
X213919500Y-103931153D01*
X213919500Y-104088846D01*
X213950261Y-104243489D01*
X213950264Y-104243501D01*
X214010602Y-104389172D01*
X214010606Y-104389179D01*
X214048602Y-104446044D01*
X214069480Y-104512721D01*
X214069500Y-104514935D01*
X214069500Y-105744069D01*
X214072726Y-105760288D01*
X214075963Y-105776557D01*
X214075963Y-105776560D01*
X214094497Y-105869736D01*
X214094499Y-105869744D01*
X214126217Y-105946319D01*
X214143535Y-105988127D01*
X214214723Y-106094669D01*
X214214726Y-106094673D01*
X214214727Y-106094674D01*
X216422983Y-108302929D01*
X216456468Y-108364252D01*
X216456919Y-108366418D01*
X216470261Y-108433491D01*
X216470263Y-108433499D01*
X216530602Y-108579172D01*
X216530609Y-108579185D01*
X216618210Y-108710288D01*
X216618213Y-108710292D01*
X216729707Y-108821786D01*
X216729711Y-108821789D01*
X216860814Y-108909390D01*
X216860827Y-108909397D01*
X216967180Y-108953449D01*
X217006503Y-108969737D01*
X217146076Y-108997500D01*
X217161153Y-109000499D01*
X217161156Y-109000500D01*
X217161158Y-109000500D01*
X217318844Y-109000500D01*
X217318845Y-109000499D01*
X217473497Y-108969737D01*
X217619179Y-108909394D01*
X217750289Y-108821789D01*
X217757549Y-108814529D01*
X217787819Y-108784260D01*
X217849142Y-108750775D01*
X217918834Y-108755759D01*
X217974767Y-108797631D01*
X217999184Y-108863095D01*
X217999500Y-108871941D01*
X217999500Y-114243907D01*
X217998903Y-114256061D01*
X217986296Y-114384064D01*
X217981554Y-114407906D01*
X217945993Y-114525134D01*
X217936690Y-114547592D01*
X217878942Y-114655630D01*
X217865438Y-114675840D01*
X217787725Y-114770535D01*
X217770535Y-114787725D01*
X217675840Y-114865438D01*
X217655630Y-114878942D01*
X217547592Y-114936690D01*
X217525134Y-114945993D01*
X217407906Y-114981554D01*
X217384064Y-114986296D01*
X217256062Y-114998903D01*
X217243908Y-114999500D01*
X187506962Y-114999500D01*
X187493078Y-114998720D01*
X187480553Y-114997308D01*
X187402735Y-114988540D01*
X187375666Y-114982362D01*
X187296462Y-114954648D01*
X187271444Y-114942600D01*
X187200395Y-114897957D01*
X187178686Y-114880644D01*
X187119355Y-114821313D01*
X187102042Y-114799604D01*
X187057399Y-114728555D01*
X187045351Y-114703537D01*
X187017637Y-114624333D01*
X187011459Y-114597263D01*
X187005862Y-114547592D01*
X187001280Y-114506922D01*
X187000500Y-114493038D01*
X187000500Y-108907702D01*
X187020185Y-108840663D01*
X187072989Y-108794908D01*
X187142147Y-108784964D01*
X187148667Y-108786080D01*
X187205435Y-108797372D01*
X187221157Y-108800500D01*
X187221158Y-108800500D01*
X187378844Y-108800500D01*
X187442570Y-108787824D01*
X187512162Y-108794051D01*
X187567339Y-108836914D01*
X187584693Y-108871122D01*
X187595793Y-108905283D01*
X187595794Y-108905286D01*
X187761201Y-109304615D01*
X187957430Y-109689735D01*
X187957433Y-109689740D01*
X187957439Y-109689751D01*
X188183263Y-110058262D01*
X188183268Y-110058269D01*
X188183270Y-110058272D01*
X188210649Y-110095956D01*
X188437322Y-110407946D01*
X188437332Y-110407960D01*
X188627615Y-110630751D01*
X188718040Y-110736624D01*
X189023673Y-111042257D01*
X189023679Y-111042262D01*
X189352336Y-111322964D01*
X189352343Y-111322969D01*
X189702025Y-111577027D01*
X189702029Y-111577029D01*
X189702034Y-111577033D01*
X190070545Y-111802857D01*
X190070551Y-111802860D01*
X190070562Y-111802867D01*
X190455682Y-111999096D01*
X190855011Y-112164503D01*
X190855016Y-112164505D01*
X190959537Y-112198465D01*
X191266087Y-112298070D01*
X191686375Y-112398972D01*
X192113284Y-112466588D01*
X192544182Y-112500500D01*
X192544190Y-112500500D01*
X192976404Y-112500500D01*
X192976412Y-112500500D01*
X193407310Y-112466588D01*
X193834219Y-112398972D01*
X194254507Y-112298070D01*
X194665583Y-112164503D01*
X195064912Y-111999096D01*
X195450032Y-111802867D01*
X195678935Y-111662594D01*
X195746379Y-111644350D01*
X195809088Y-111662948D01*
X195821266Y-111670502D01*
X195831284Y-111680520D01*
X195918095Y-111730639D01*
X195919801Y-111731624D01*
X195919822Y-111731637D01*
X195956865Y-111753024D01*
X195968215Y-111759577D01*
X196120943Y-111800500D01*
X196279057Y-111800500D01*
X198420234Y-111800500D01*
X198487273Y-111820185D01*
X198489125Y-111821398D01*
X198620814Y-111909390D01*
X198620827Y-111909397D01*
X198766498Y-111969735D01*
X198766503Y-111969737D01*
X198914100Y-111999096D01*
X198921153Y-112000499D01*
X198921156Y-112000500D01*
X198921158Y-112000500D01*
X199078844Y-112000500D01*
X199078845Y-112000499D01*
X199233497Y-111969737D01*
X199379179Y-111909394D01*
X199510289Y-111821789D01*
X199621789Y-111710289D01*
X199709394Y-111579179D01*
X199769737Y-111433497D01*
X199800500Y-111278842D01*
X199800500Y-111121158D01*
X199800500Y-111121155D01*
X199800499Y-111121153D01*
X199790760Y-111072192D01*
X199769737Y-110966503D01*
X199769735Y-110966498D01*
X199709397Y-110820827D01*
X199709390Y-110820814D01*
X199621789Y-110689711D01*
X199621786Y-110689707D01*
X199510292Y-110578213D01*
X199510288Y-110578210D01*
X199379185Y-110490609D01*
X199379172Y-110490602D01*
X199233501Y-110430264D01*
X199233489Y-110430261D01*
X199078845Y-110399500D01*
X199078842Y-110399500D01*
X198921158Y-110399500D01*
X198921155Y-110399500D01*
X198766510Y-110430261D01*
X198766498Y-110430264D01*
X198620827Y-110490602D01*
X198620814Y-110490609D01*
X198489125Y-110578602D01*
X198422447Y-110599480D01*
X198420234Y-110599500D01*
X197187463Y-110599500D01*
X197120424Y-110579815D01*
X197074669Y-110527011D01*
X197064725Y-110457853D01*
X197087145Y-110402615D01*
X197132245Y-110340540D01*
X197337324Y-110058272D01*
X197563164Y-109689735D01*
X197759393Y-109304615D01*
X197806116Y-109191814D01*
X197849955Y-109137412D01*
X197916249Y-109115347D01*
X197944867Y-109117651D01*
X198017807Y-109132159D01*
X198017810Y-109132160D01*
X198017812Y-109132160D01*
X198175498Y-109132160D01*
X198175499Y-109132159D01*
X198330151Y-109101397D01*
X198475833Y-109041054D01*
X198606943Y-108953449D01*
X198718443Y-108841949D01*
X198806048Y-108710839D01*
X198866391Y-108565157D01*
X198894950Y-108421584D01*
X198897292Y-108409810D01*
X198906056Y-108393053D01*
X198910077Y-108374574D01*
X198928822Y-108349532D01*
X198929677Y-108347899D01*
X198931121Y-108346427D01*
X199065732Y-108211816D01*
X199127053Y-108178334D01*
X199153411Y-108175500D01*
X201191500Y-108175500D01*
X201258539Y-108195185D01*
X201304294Y-108247989D01*
X201315500Y-108299500D01*
X201315500Y-110176642D01*
X201295815Y-110243681D01*
X201243011Y-110289436D01*
X201238953Y-110291203D01*
X201101506Y-110348135D01*
X201101496Y-110348140D01*
X200970393Y-110435741D01*
X200970389Y-110435744D01*
X200858895Y-110547238D01*
X200858892Y-110547242D01*
X200771291Y-110678345D01*
X200771284Y-110678358D01*
X200710946Y-110824029D01*
X200710943Y-110824041D01*
X200680182Y-110978684D01*
X200680182Y-111136377D01*
X200710943Y-111291020D01*
X200710946Y-111291032D01*
X200771284Y-111436703D01*
X200771291Y-111436716D01*
X200858892Y-111567819D01*
X200858895Y-111567823D01*
X200970389Y-111679317D01*
X200970393Y-111679320D01*
X201101496Y-111766921D01*
X201101509Y-111766928D01*
X201188275Y-111802867D01*
X201247185Y-111827268D01*
X201357595Y-111849230D01*
X201401835Y-111858030D01*
X201401838Y-111858031D01*
X201401840Y-111858031D01*
X201559526Y-111858031D01*
X201559527Y-111858030D01*
X201714179Y-111827268D01*
X201859861Y-111766925D01*
X201990971Y-111679320D01*
X202102471Y-111567820D01*
X202190076Y-111436710D01*
X202250419Y-111291028D01*
X202281182Y-111136373D01*
X202281182Y-111136371D01*
X202281319Y-111135683D01*
X202313703Y-111073772D01*
X202315256Y-111072192D01*
X202345187Y-111042262D01*
X202396520Y-110990929D01*
X202475577Y-110853997D01*
X202516501Y-110701270D01*
X202516501Y-110543155D01*
X202516501Y-110535560D01*
X202516500Y-110535542D01*
X202516500Y-109061540D01*
X202522008Y-109042778D01*
X202522566Y-109023230D01*
X202531651Y-109009941D01*
X202536185Y-108994501D01*
X202550962Y-108981696D01*
X202562000Y-108965552D01*
X202576826Y-108959285D01*
X202588989Y-108948746D01*
X202608343Y-108945963D01*
X202626357Y-108938349D01*
X202642216Y-108941092D01*
X202658147Y-108938802D01*
X202675935Y-108946925D01*
X202695204Y-108950259D01*
X202707061Y-108961140D01*
X202721703Y-108967827D01*
X202732276Y-108984279D01*
X202746683Y-108997500D01*
X202755648Y-109020648D01*
X202759477Y-109026605D01*
X202760424Y-109030009D01*
X202761383Y-109033656D01*
X202778342Y-109118913D01*
X202793282Y-109154983D01*
X202795424Y-109163127D01*
X202795148Y-109172783D01*
X202799500Y-109194658D01*
X202799500Y-110800825D01*
X202790062Y-110848273D01*
X202776999Y-110879812D01*
X202776996Y-110879820D01*
X202776995Y-110879823D01*
X202748155Y-111024809D01*
X202748155Y-111024812D01*
X202748155Y-111172648D01*
X202748155Y-111172650D01*
X202748154Y-111172650D01*
X202776995Y-111317637D01*
X202776998Y-111317647D01*
X202833567Y-111454218D01*
X202833574Y-111454231D01*
X202915703Y-111577145D01*
X202915706Y-111577149D01*
X203020235Y-111681678D01*
X203020239Y-111681681D01*
X203143153Y-111763810D01*
X203143166Y-111763817D01*
X203237442Y-111802867D01*
X203279742Y-111820388D01*
X203279746Y-111820388D01*
X203279747Y-111820389D01*
X203424734Y-111849230D01*
X203424737Y-111849230D01*
X203572575Y-111849230D01*
X203670117Y-111829826D01*
X203717568Y-111820388D01*
X203846632Y-111766928D01*
X203854143Y-111763817D01*
X203854143Y-111763816D01*
X203854150Y-111763814D01*
X203977071Y-111681681D01*
X204081606Y-111577146D01*
X204163739Y-111454225D01*
X204220313Y-111317643D01*
X204246791Y-111184533D01*
X204249155Y-111172650D01*
X204249155Y-111024809D01*
X204220314Y-110879822D01*
X204220313Y-110879821D01*
X204220313Y-110879817D01*
X204209939Y-110854771D01*
X204200500Y-110807319D01*
X204200500Y-109194658D01*
X204209939Y-109147206D01*
X204216171Y-109132159D01*
X204221658Y-109118913D01*
X204231096Y-109071462D01*
X204250500Y-108973920D01*
X204250500Y-108826079D01*
X204221659Y-108681092D01*
X204221658Y-108681091D01*
X204221658Y-108681087D01*
X204212633Y-108659300D01*
X204205165Y-108589833D01*
X204236440Y-108527354D01*
X204296528Y-108491701D01*
X204366354Y-108494194D01*
X204414876Y-108524168D01*
X205598055Y-109707347D01*
X205602393Y-109715292D01*
X205609641Y-109720718D01*
X205618875Y-109745477D01*
X205631540Y-109768670D01*
X205630894Y-109777699D01*
X205634058Y-109786182D01*
X205628441Y-109812002D01*
X205626556Y-109838362D01*
X205620737Y-109847416D01*
X205619206Y-109854455D01*
X205598057Y-109882706D01*
X205475001Y-110005763D01*
X205431943Y-110031577D01*
X205432651Y-110033286D01*
X205281349Y-110095956D01*
X205281336Y-110095963D01*
X205150233Y-110183564D01*
X205150229Y-110183567D01*
X205038735Y-110295061D01*
X205038732Y-110295065D01*
X204951131Y-110426168D01*
X204951124Y-110426181D01*
X204890786Y-110571852D01*
X204890783Y-110571864D01*
X204860022Y-110726507D01*
X204860022Y-110884200D01*
X204890783Y-111038843D01*
X204890786Y-111038855D01*
X204951124Y-111184526D01*
X204951131Y-111184539D01*
X205038732Y-111315642D01*
X205038735Y-111315646D01*
X205150229Y-111427140D01*
X205150233Y-111427143D01*
X205281336Y-111514744D01*
X205281349Y-111514751D01*
X205409471Y-111567820D01*
X205427025Y-111575091D01*
X205581675Y-111605853D01*
X205581678Y-111605854D01*
X205581680Y-111605854D01*
X205739366Y-111605854D01*
X205739367Y-111605853D01*
X205894019Y-111575091D01*
X206039701Y-111514748D01*
X206170811Y-111427143D01*
X206282311Y-111315643D01*
X206369916Y-111184533D01*
X206430259Y-111038851D01*
X206461022Y-110884196D01*
X206461022Y-110769574D01*
X206480707Y-110702535D01*
X206497341Y-110681893D01*
X206712165Y-110467070D01*
X206773488Y-110433585D01*
X206799846Y-110430751D01*
X211740234Y-110430751D01*
X211807273Y-110450436D01*
X211809125Y-110451649D01*
X211940814Y-110539641D01*
X211940827Y-110539648D01*
X212085325Y-110599500D01*
X212086503Y-110599988D01*
X212241153Y-110630750D01*
X212241156Y-110630751D01*
X212241158Y-110630751D01*
X212398844Y-110630751D01*
X212398845Y-110630750D01*
X212553497Y-110599988D01*
X212699179Y-110539645D01*
X212830289Y-110452040D01*
X212941789Y-110340540D01*
X213029394Y-110209430D01*
X213089737Y-110063748D01*
X213120500Y-109909093D01*
X213120500Y-109751409D01*
X213120500Y-109751406D01*
X213120499Y-109751404D01*
X213089738Y-109596761D01*
X213089737Y-109596754D01*
X213089735Y-109596749D01*
X213029397Y-109451078D01*
X213029390Y-109451065D01*
X212941789Y-109319962D01*
X212941786Y-109319958D01*
X212830292Y-109208464D01*
X212830288Y-109208461D01*
X212699185Y-109120860D01*
X212699172Y-109120853D01*
X212553501Y-109060515D01*
X212553492Y-109060513D01*
X212475307Y-109044960D01*
X212413397Y-109012574D01*
X212378823Y-108951858D01*
X212375500Y-108923343D01*
X212375500Y-103952490D01*
X212377883Y-103928298D01*
X212391500Y-103859844D01*
X212391500Y-103702155D01*
X212391499Y-103702153D01*
X212360738Y-103547510D01*
X212360737Y-103547503D01*
X212336734Y-103489554D01*
X212300397Y-103401827D01*
X212300390Y-103401814D01*
X212212789Y-103270711D01*
X212212786Y-103270707D01*
X212101292Y-103159213D01*
X212101288Y-103159210D01*
X211970185Y-103071609D01*
X211970172Y-103071602D01*
X211824501Y-103011264D01*
X211824489Y-103011261D01*
X211669845Y-102980500D01*
X211669842Y-102980500D01*
X211512158Y-102980500D01*
X211512155Y-102980500D01*
X211357510Y-103011261D01*
X211357498Y-103011264D01*
X211211827Y-103071602D01*
X211211814Y-103071609D01*
X211080711Y-103159210D01*
X211080707Y-103159213D01*
X210969213Y-103270707D01*
X210969210Y-103270711D01*
X210881609Y-103401814D01*
X210881602Y-103401827D01*
X210821264Y-103547498D01*
X210821261Y-103547510D01*
X210790500Y-103702153D01*
X210790500Y-103859846D01*
X210821261Y-104014489D01*
X210821264Y-104014501D01*
X210881602Y-104160172D01*
X210881609Y-104160185D01*
X210969210Y-104291288D01*
X210969213Y-104291292D01*
X211080705Y-104402784D01*
X211080710Y-104402788D01*
X211080711Y-104402789D01*
X211119389Y-104428633D01*
X211164195Y-104482244D01*
X211174500Y-104531735D01*
X211174500Y-109105751D01*
X211154815Y-109172790D01*
X211102011Y-109218545D01*
X211050500Y-109229751D01*
X206870291Y-109229751D01*
X206803252Y-109210066D01*
X206782610Y-109193432D01*
X204751359Y-107162181D01*
X204717874Y-107100858D01*
X204722858Y-107031166D01*
X204764730Y-106975233D01*
X204830194Y-106950816D01*
X204839040Y-106950500D01*
X208693920Y-106950500D01*
X208791462Y-106931096D01*
X208838913Y-106921658D01*
X208975495Y-106865084D01*
X209098416Y-106782951D01*
X209202951Y-106678416D01*
X209285084Y-106555495D01*
X209341658Y-106418913D01*
X209370500Y-106273918D01*
X209370500Y-106126082D01*
X209370500Y-106126079D01*
X209341659Y-105981092D01*
X209341658Y-105981091D01*
X209341658Y-105981087D01*
X209341656Y-105981082D01*
X209285087Y-105844511D01*
X209285080Y-105844498D01*
X209202951Y-105721584D01*
X209202948Y-105721580D01*
X209098419Y-105617051D01*
X209098415Y-105617048D01*
X208975501Y-105534919D01*
X208975488Y-105534912D01*
X208838917Y-105478343D01*
X208838907Y-105478340D01*
X208693920Y-105449500D01*
X208693918Y-105449500D01*
X208143918Y-105449500D01*
X208023918Y-105449500D01*
X204848918Y-105449500D01*
X204701082Y-105449500D01*
X204701080Y-105449500D01*
X204556092Y-105478340D01*
X204556082Y-105478343D01*
X204419511Y-105534912D01*
X204419498Y-105534919D01*
X204296584Y-105617048D01*
X204296580Y-105617051D01*
X204192051Y-105721580D01*
X204192048Y-105721584D01*
X204109919Y-105844498D01*
X204109912Y-105844511D01*
X204053343Y-105981082D01*
X204053340Y-105981092D01*
X204024500Y-106126079D01*
X204024500Y-106126082D01*
X204024500Y-106273918D01*
X204024500Y-106273920D01*
X204024499Y-106273920D01*
X204053340Y-106418907D01*
X204053343Y-106418917D01*
X204109912Y-106555488D01*
X204109919Y-106555501D01*
X204177478Y-106656609D01*
X204198356Y-106723286D01*
X204179872Y-106790667D01*
X204127893Y-106837357D01*
X204074376Y-106849500D01*
X202640500Y-106849500D01*
X202573461Y-106829815D01*
X202527706Y-106777011D01*
X202516500Y-106725500D01*
X202516500Y-105265074D01*
X202516501Y-105262175D01*
X202521468Y-105245278D01*
X202518187Y-105244732D01*
X202518188Y-105244726D01*
X202521470Y-105245273D01*
X202526432Y-105228395D01*
X202536186Y-105195179D01*
X202536202Y-105195164D01*
X202536209Y-105195143D01*
X202563592Y-105171431D01*
X202588990Y-105149424D01*
X202589010Y-105149421D01*
X202589028Y-105149406D01*
X202624308Y-105144345D01*
X202658148Y-105139480D01*
X202658168Y-105139489D01*
X202658190Y-105139486D01*
X202689717Y-105153897D01*
X202721704Y-105168505D01*
X202721723Y-105168527D01*
X202721736Y-105168533D01*
X202721755Y-105168563D01*
X202743603Y-105193327D01*
X202767048Y-105228416D01*
X202871580Y-105332948D01*
X202871584Y-105332951D01*
X202994498Y-105415080D01*
X202994511Y-105415087D01*
X203078307Y-105449796D01*
X203131087Y-105471658D01*
X203131091Y-105471658D01*
X203131092Y-105471659D01*
X203276079Y-105500500D01*
X203276082Y-105500500D01*
X203423920Y-105500500D01*
X203535321Y-105478340D01*
X203568913Y-105471658D01*
X203705495Y-105415084D01*
X203828416Y-105332951D01*
X203932951Y-105228416D01*
X204015084Y-105105495D01*
X204071658Y-104968913D01*
X204100500Y-104823918D01*
X204100500Y-104676082D01*
X204100500Y-104676079D01*
X204071659Y-104531092D01*
X204071658Y-104531091D01*
X204071658Y-104531087D01*
X204015084Y-104394505D01*
X203971396Y-104329121D01*
X203950520Y-104262444D01*
X203950500Y-104260232D01*
X203950500Y-102839767D01*
X203970185Y-102772728D01*
X203971398Y-102770876D01*
X204015080Y-102705501D01*
X204015080Y-102705500D01*
X204015084Y-102705495D01*
X204071658Y-102568913D01*
X204100500Y-102423918D01*
X204100500Y-102276082D01*
X204100500Y-102276079D01*
X204071659Y-102131092D01*
X204071658Y-102131091D01*
X204071658Y-102131087D01*
X204054921Y-102090680D01*
X204015087Y-101994511D01*
X204015080Y-101994498D01*
X203932951Y-101871584D01*
X203932948Y-101871580D01*
X203828419Y-101767051D01*
X203828415Y-101767048D01*
X203705501Y-101684919D01*
X203705488Y-101684912D01*
X203568917Y-101628343D01*
X203568907Y-101628340D01*
X203423920Y-101599500D01*
X203423918Y-101599500D01*
X203276082Y-101599500D01*
X203276080Y-101599500D01*
X203131092Y-101628340D01*
X203131082Y-101628343D01*
X202994511Y-101684912D01*
X202994498Y-101684919D01*
X202871584Y-101767048D01*
X202871580Y-101767051D01*
X202767051Y-101871580D01*
X202767048Y-101871584D01*
X202684919Y-101994498D01*
X202684912Y-101994511D01*
X202628343Y-102131082D01*
X202628340Y-102131092D01*
X202599500Y-102276079D01*
X202599500Y-102276082D01*
X202599500Y-102423918D01*
X202599500Y-102423920D01*
X202599499Y-102423920D01*
X202628340Y-102568907D01*
X202628343Y-102568917D01*
X202684912Y-102705488D01*
X202684919Y-102705501D01*
X202728602Y-102770876D01*
X202749480Y-102837553D01*
X202749500Y-102839767D01*
X202749500Y-104260232D01*
X202729815Y-104327271D01*
X202728603Y-104329122D01*
X202684914Y-104394508D01*
X202628343Y-104531082D01*
X202628340Y-104531092D01*
X202599500Y-104676079D01*
X202599500Y-104710959D01*
X202579815Y-104777998D01*
X202527011Y-104823753D01*
X202457853Y-104833697D01*
X202394297Y-104804672D01*
X202387819Y-104798640D01*
X199979766Y-102390587D01*
X199946281Y-102329264D01*
X199951265Y-102259572D01*
X199964345Y-102234015D01*
X200034390Y-102129185D01*
X200034390Y-102129184D01*
X200034394Y-102129179D01*
X200094737Y-101983497D01*
X200125500Y-101828842D01*
X200125500Y-101671158D01*
X200125500Y-101671155D01*
X200125499Y-101671153D01*
X200117925Y-101633078D01*
X200094737Y-101516503D01*
X200055504Y-101421785D01*
X200034397Y-101370827D01*
X200034390Y-101370814D01*
X199946789Y-101239711D01*
X199946786Y-101239707D01*
X199835292Y-101128213D01*
X199835288Y-101128210D01*
X199758052Y-101076602D01*
X199713247Y-101022989D01*
X199704540Y-100953664D01*
X199734695Y-100890637D01*
X199794138Y-100853918D01*
X199826943Y-100849500D01*
X208592152Y-100849500D01*
X208621769Y-100858196D01*
G37*
%TD.AperFunction*%
%TA.AperFunction,Conductor*%
G36*
X203078768Y-108070185D02*
G01*
X203124523Y-108122989D01*
X203134467Y-108192147D01*
X203105442Y-108255703D01*
X203080620Y-108277602D01*
X203021584Y-108317048D01*
X203021580Y-108317051D01*
X202917051Y-108421580D01*
X202917048Y-108421584D01*
X202834919Y-108544498D01*
X202834912Y-108544511D01*
X202778343Y-108681082D01*
X202778340Y-108681092D01*
X202762117Y-108762651D01*
X202729732Y-108824562D01*
X202669016Y-108859136D01*
X202599246Y-108855395D01*
X202542575Y-108814529D01*
X202516993Y-108749510D01*
X202516500Y-108738459D01*
X202516500Y-108174500D01*
X202536185Y-108107461D01*
X202588989Y-108061706D01*
X202640500Y-108050500D01*
X203011729Y-108050500D01*
X203078768Y-108070185D01*
G37*
%TD.AperFunction*%
%TA.AperFunction,Conductor*%
G36*
X217506922Y-99001280D02*
G01*
X217597266Y-99011459D01*
X217624331Y-99017636D01*
X217703540Y-99045352D01*
X217728553Y-99057398D01*
X217799606Y-99102043D01*
X217821313Y-99119355D01*
X217880644Y-99178686D01*
X217897957Y-99200395D01*
X217942600Y-99271444D01*
X217954648Y-99296462D01*
X217982362Y-99375666D01*
X217988540Y-99402735D01*
X217998720Y-99493076D01*
X217999500Y-99506961D01*
X217999500Y-107528059D01*
X217979815Y-107595098D01*
X217927011Y-107640853D01*
X217857853Y-107650797D01*
X217794297Y-107621772D01*
X217787819Y-107615740D01*
X217750292Y-107578213D01*
X217750288Y-107578210D01*
X217619185Y-107490609D01*
X217619172Y-107490602D01*
X217473499Y-107430263D01*
X217473491Y-107430261D01*
X217406418Y-107416919D01*
X217344507Y-107384534D01*
X217342929Y-107382983D01*
X215406819Y-105446873D01*
X215373334Y-105385550D01*
X215370500Y-105359192D01*
X215370500Y-104514935D01*
X215390185Y-104447896D01*
X215391366Y-104446090D01*
X215429394Y-104389179D01*
X215489737Y-104243497D01*
X215520500Y-104088842D01*
X215520500Y-103931158D01*
X215520500Y-103931155D01*
X215520499Y-103931153D01*
X215506315Y-103859846D01*
X215489737Y-103776503D01*
X215458941Y-103702155D01*
X215429397Y-103630828D01*
X215429396Y-103630827D01*
X215429394Y-103630821D01*
X215386113Y-103566046D01*
X215367599Y-103521348D01*
X215361274Y-103489550D01*
X215345501Y-103410256D01*
X215296465Y-103291873D01*
X215264238Y-103243642D01*
X215225276Y-103185330D01*
X215225274Y-103185328D01*
X215225272Y-103185325D01*
X215225271Y-103185324D01*
X212787014Y-100747068D01*
X212753529Y-100685745D01*
X212753105Y-100683714D01*
X212739737Y-100616503D01*
X212715599Y-100558230D01*
X212679397Y-100470827D01*
X212679390Y-100470814D01*
X212591789Y-100339711D01*
X212591786Y-100339707D01*
X212480292Y-100228213D01*
X212480288Y-100228210D01*
X212349185Y-100140609D01*
X212349172Y-100140602D01*
X212203501Y-100080264D01*
X212203489Y-100080261D01*
X212136420Y-100066920D01*
X212074509Y-100034535D01*
X212072930Y-100032984D01*
X211733674Y-99693727D01*
X211733673Y-99693726D01*
X211627131Y-99622538D01*
X211627127Y-99622535D01*
X211627122Y-99622533D01*
X211508744Y-99573499D01*
X211508738Y-99573497D01*
X211383071Y-99548500D01*
X211383069Y-99548500D01*
X191929771Y-99548500D01*
X191929769Y-99548500D01*
X191804101Y-99573497D01*
X191804095Y-99573499D01*
X191685715Y-99622533D01*
X191685706Y-99622538D01*
X191579171Y-99693723D01*
X191579167Y-99693726D01*
X187212181Y-104060713D01*
X187150858Y-104094198D01*
X187081166Y-104089214D01*
X187025233Y-104047342D01*
X187000816Y-103981878D01*
X187000500Y-103973032D01*
X187000500Y-99506961D01*
X187001280Y-99493077D01*
X187001280Y-99493076D01*
X187011460Y-99402729D01*
X187017635Y-99375670D01*
X187045353Y-99296456D01*
X187057396Y-99271450D01*
X187102046Y-99200389D01*
X187119351Y-99178690D01*
X187178690Y-99119351D01*
X187200389Y-99102046D01*
X187271450Y-99057396D01*
X187296456Y-99045353D01*
X187375670Y-99017635D01*
X187402733Y-99011459D01*
X187465419Y-99004396D01*
X187493079Y-99001280D01*
X187506962Y-99000500D01*
X187565892Y-99000500D01*
X217434108Y-99000500D01*
X217493038Y-99000500D01*
X217506922Y-99001280D01*
G37*
%TD.AperFunction*%
%TA.AperFunction,Conductor*%
G36*
X198890096Y-100869185D02*
G01*
X198935851Y-100921989D01*
X198945795Y-100991147D01*
X198916770Y-101054703D01*
X198891948Y-101076602D01*
X198814711Y-101128210D01*
X198814707Y-101128213D01*
X198703213Y-101239707D01*
X198703210Y-101239711D01*
X198615609Y-101370814D01*
X198615602Y-101370827D01*
X198555264Y-101516498D01*
X198555261Y-101516510D01*
X198524500Y-101671153D01*
X198524500Y-101828846D01*
X198555261Y-101983489D01*
X198555264Y-101983501D01*
X198580004Y-102043228D01*
X198589443Y-102090680D01*
X198589443Y-102363330D01*
X198589442Y-102363348D01*
X198589442Y-102529054D01*
X198589441Y-102529054D01*
X198630367Y-102681787D01*
X198644054Y-102705493D01*
X198644055Y-102705495D01*
X198709420Y-102818712D01*
X198709424Y-102818717D01*
X198828292Y-102937585D01*
X198828298Y-102937590D01*
X201279181Y-105388473D01*
X201293884Y-105415400D01*
X201310477Y-105441219D01*
X201311368Y-105447419D01*
X201312666Y-105449796D01*
X201315500Y-105476154D01*
X201315500Y-105580002D01*
X201295815Y-105647041D01*
X201243011Y-105692796D01*
X201173853Y-105702740D01*
X201110297Y-105673715D01*
X201103819Y-105667683D01*
X201018419Y-105582283D01*
X201018415Y-105582280D01*
X200895501Y-105500151D01*
X200895492Y-105500146D01*
X200773705Y-105449701D01*
X200733477Y-105422821D01*
X199107644Y-103796987D01*
X199080767Y-103756764D01*
X199024393Y-103620664D01*
X199024391Y-103620661D01*
X199024389Y-103620657D01*
X198936788Y-103489554D01*
X198936785Y-103489550D01*
X198825291Y-103378056D01*
X198825287Y-103378053D01*
X198694184Y-103290452D01*
X198694171Y-103290445D01*
X198548500Y-103230107D01*
X198548488Y-103230104D01*
X198393844Y-103199343D01*
X198393841Y-103199343D01*
X198236157Y-103199343D01*
X198236154Y-103199343D01*
X198081509Y-103230104D01*
X198081497Y-103230107D01*
X197935826Y-103290445D01*
X197935813Y-103290452D01*
X197842913Y-103352527D01*
X197776235Y-103373405D01*
X197708855Y-103354921D01*
X197686341Y-103337106D01*
X195487590Y-101138355D01*
X195480521Y-101131286D01*
X195480520Y-101131284D01*
X195410414Y-101061178D01*
X195384792Y-101014253D01*
X195376932Y-100999858D01*
X195376960Y-100999473D01*
X195377555Y-100991147D01*
X195381916Y-100930166D01*
X195413933Y-100887397D01*
X195423788Y-100874232D01*
X195471468Y-100856448D01*
X195489252Y-100849816D01*
X195498098Y-100849500D01*
X198823057Y-100849500D01*
X198890096Y-100869185D01*
G37*
%TD.AperFunction*%
%TD*%
M02*
