M48
; DRILL file {KiCad 9.0.0} date 2025-06-28T17:36:13-0400
; FORMAT={-:-/ absolute / inch / decimal}
; #@! TF.CreationDate,2025-06-28T17:36:13-04:00
; #@! TF.GenerationSoftware,Kicad,Pcbnew,9.0.0
; #@! TF.FileFunction,Plated,1,2,PTH
FMAT,2
INCH
; #@! TA.AperFunction,Plated,PTH,ComponentDrill
T1C0.0098
; #@! TA.AperFunction,Plated,PTH,ViaDrill
T2C0.0118
; #@! TA.AperFunction,Plated,PTH,ComponentDrill
T3C0.0197
; #@! TA.AperFunction,Plated,PTH,ComponentDrill
T4C0.0591
; #@! TA.AperFunction,Plated,PTH,ComponentDrill
T5C0.0650
%
G90
G05
T1
X7.9258Y-4.1506
X7.9258Y-4.2047
X7.9258Y-4.2589
X7.9799Y-4.1506
X7.9799Y-4.2047
X7.9799Y-4.2589
X8.0341Y-4.1506
X8.0341Y-4.2047
X8.0341Y-4.2589
T2
X7.4366Y-4.4087
X7.4606Y-3.9961
X7.5235Y-3.9802
X7.5492Y-4.4488
X7.5591Y-3.9862
X7.6575Y-3.9961
X7.6575Y-4.4291
X7.747Y-4.0344
X7.7583Y-4.2732
X7.7752Y-4.3823
X7.7978Y-4.0845
X7.8012Y-4.0501
X7.8077Y-4.1452
X7.8461Y-4.0549
X7.8937Y-3.9823
X7.8953Y-4.1797
X7.9323Y-4.3723
X7.9724Y-4.439
X8.0059Y-4.0295
X8.0059Y-4.124
X8.0118Y-4.374
X8.0118Y-4.2874
X8.0579Y-3.9791
X8.062Y-4.1811
X8.0969Y-4.3624
X8.1535Y-4.0796
X8.1614Y-4.4134
X8.1917Y-4.1811
X8.2134Y-4.1811
X8.2175Y-4.4301
X8.2193Y-4.0622
X8.2484Y-3.9704
X8.3295Y-4.0185
X8.3354Y-3.9606
X8.3591Y-4.324
X8.387Y-4.126
X8.4205Y-3.9689
X8.4535Y-4.0949
X8.5039Y-4.0823
X8.5413Y-4.3209
X8.5433Y-4.1043
X8.5528Y-4.2598
T3
G00X8.5433Y-4.0443
M15
G01X8.4921Y-4.0443
M16
G05
G00X8.5433Y-4.3809
M15
G01X8.4921Y-4.3809
M16
G05
T4
G00X7.302Y-4.4648
M15
G01X7.302Y-4.4057
M16
G05
G00X7.3043Y-3.9565
M15
G01X7.3043Y-4.0156
M16
G05
G00X7.302Y-4.4683
M15
G01X7.361Y-4.4683
M16
G05
G00X7.3079Y-3.9565
M15
G01X7.3669Y-3.9565
M16
G05
T5
G00X7.3579Y-4.4652
M15
G01X7.305Y-4.4123
M16
G05
G00X7.3074Y-4.0125
M15
G01X7.3603Y-3.9596
M16
G05
M30
