%TF.GenerationSoftware,KiCad,Pcbnew,9.0.0*%
%TF.CreationDate,2025-06-28T17:36:13-04:00*%
%TF.ProjectId,microkey,6d696372-6f6b-4657-992e-6b696361645f,rev?*%
%TF.SameCoordinates,Original*%
%TF.FileFunction,Legend,Bot*%
%TF.FilePolarity,Positive*%
%FSLAX46Y46*%
G04 Gerber Fmt 4.6, Leading zero omitted, Abs format (unit mm)*
G04 Created by KiCad (PCBNEW 9.0.0) date 2025-06-28 17:36:13*
%MOMM*%
%LPD*%
G01*
G04 APERTURE LIST*
G04 Aperture macros list*
%AMRoundRect*
0 Rectangle with rounded corners*
0 $1 Rounding radius*
0 $2 $3 $4 $5 $6 $7 $8 $9 X,Y pos of 4 corners*
0 Add a 4 corners polygon primitive as box body*
4,1,4,$2,$3,$4,$5,$6,$7,$8,$9,$2,$3,0*
0 Add four circle primitives for the rounded corners*
1,1,$1+$1,$2,$3*
1,1,$1+$1,$4,$5*
1,1,$1+$1,$6,$7*
1,1,$1+$1,$8,$9*
0 Add four rect primitives between the rounded corners*
20,1,$1+$1,$2,$3,$4,$5,0*
20,1,$1+$1,$4,$5,$6,$7,0*
20,1,$1+$1,$6,$7,$8,$9,0*
20,1,$1+$1,$8,$9,$2,$3,0*%
%AMRotRect*
0 Rectangle, with rotation*
0 The origin of the aperture is its center*
0 $1 length*
0 $2 width*
0 $3 Rotation angle, in degrees counterclockwise*
0 Add horizontal line*
21,1,$1,$2,0,0,$3*%
%AMFreePoly0*
4,1,18,-0.100000,0.387500,-0.050000,0.437500,0.050000,0.437500,0.069134,0.433694,0.085355,0.422855,0.096194,0.406634,0.100000,0.387500,0.100000,-0.387500,0.096194,-0.406634,0.085355,-0.422855,0.069134,-0.433694,0.050000,-0.437500,-0.050000,-0.437500,-0.069134,-0.433694,-0.085355,-0.422855,-0.096194,-0.406634,-0.100000,-0.387500,-0.100000,0.387500,-0.100000,0.387500,$1*%
%AMFreePoly1*
4,1,18,-0.100000,0.387500,-0.096194,0.406634,-0.085355,0.422855,-0.069134,0.433694,-0.050000,0.437500,0.050000,0.437500,0.100000,0.387500,0.100000,-0.387500,0.096194,-0.406634,0.085355,-0.422855,0.069134,-0.433694,0.050000,-0.437500,-0.050000,-0.437500,-0.069134,-0.433694,-0.085355,-0.422855,-0.096194,-0.406634,-0.100000,-0.387500,-0.100000,0.387500,-0.100000,0.387500,$1*%
%AMFreePoly2*
4,1,18,-0.437500,0.050000,-0.433694,0.069134,-0.422855,0.085355,-0.406634,0.096194,-0.387500,0.100000,0.387500,0.100000,0.406634,0.096194,0.422855,0.085355,0.433694,0.069134,0.437500,0.050000,0.437500,-0.050000,0.433694,-0.069134,0.422855,-0.085355,0.406634,-0.096194,0.387500,-0.100000,-0.387500,-0.100000,-0.437500,-0.050000,-0.437500,0.050000,-0.437500,0.050000,$1*%
%AMFreePoly3*
4,1,18,-0.437500,0.050000,-0.387500,0.100000,0.387500,0.100000,0.406634,0.096194,0.422855,0.085355,0.433694,0.069134,0.437500,0.050000,0.437500,-0.050000,0.433694,-0.069134,0.422855,-0.085355,0.406634,-0.096194,0.387500,-0.100000,-0.387500,-0.100000,-0.406634,-0.096194,-0.422855,-0.085355,-0.433694,-0.069134,-0.437500,-0.050000,-0.437500,0.050000,-0.437500,0.050000,$1*%
%AMFreePoly4*
4,1,18,-0.100000,0.387500,-0.096194,0.406634,-0.085355,0.422855,-0.069134,0.433694,-0.050000,0.437500,0.050000,0.437500,0.069134,0.433694,0.085355,0.422855,0.096194,0.406634,0.100000,0.387500,0.100000,-0.387500,0.050000,-0.437500,-0.050000,-0.437500,-0.069134,-0.433694,-0.085355,-0.422855,-0.096194,-0.406634,-0.100000,-0.387500,-0.100000,0.387500,-0.100000,0.387500,$1*%
%AMFreePoly5*
4,1,18,-0.100000,0.387500,-0.096194,0.406634,-0.085355,0.422855,-0.069134,0.433694,-0.050000,0.437500,0.050000,0.437500,0.069134,0.433694,0.085355,0.422855,0.096194,0.406634,0.100000,0.387500,0.100000,-0.387500,0.096194,-0.406634,0.085355,-0.422855,0.069134,-0.433694,0.050000,-0.437500,-0.050000,-0.437500,-0.100000,-0.387500,-0.100000,0.387500,-0.100000,0.387500,$1*%
%AMFreePoly6*
4,1,18,-0.437500,0.050000,-0.433694,0.069134,-0.422855,0.085355,-0.406634,0.096194,-0.387500,0.100000,0.387500,0.100000,0.437500,0.050000,0.437500,-0.050000,0.433694,-0.069134,0.422855,-0.085355,0.406634,-0.096194,0.387500,-0.100000,-0.387500,-0.100000,-0.406634,-0.096194,-0.422855,-0.085355,-0.433694,-0.069134,-0.437500,-0.050000,-0.437500,0.050000,-0.437500,0.050000,$1*%
%AMFreePoly7*
4,1,18,-0.437500,0.050000,-0.433694,0.069134,-0.422855,0.085355,-0.406634,0.096194,-0.387500,0.100000,0.387500,0.100000,0.406634,0.096194,0.422855,0.085355,0.433694,0.069134,0.437500,0.050000,0.437500,-0.050000,0.387500,-0.100000,-0.387500,-0.100000,-0.406634,-0.096194,-0.422855,-0.085355,-0.433694,-0.069134,-0.437500,-0.050000,-0.437500,0.050000,-0.437500,0.050000,$1*%
%AMFreePoly8*
4,1,17,2.798779,0.900902,2.835106,0.850902,2.840000,0.820000,2.840000,-0.990000,2.820902,-1.048779,2.770902,-1.085106,2.740000,-1.090000,-3.630000,-1.090001,-3.688779,-1.070903,-3.725106,-1.020903,-3.730000,-0.990001,-3.730000,0.820000,-3.710902,0.878779,-3.660902,0.915106,-3.630000,0.920000,2.740000,0.920000,2.798779,0.900902,2.798779,0.900902,$1*%
%AMFreePoly9*
4,1,15,5.892408,3.086104,5.928736,3.036104,5.928736,2.974300,5.904341,2.934491,0.070711,-2.899138,0.015643,-2.927196,-0.045399,-2.917528,-0.070711,-2.899138,-5.904341,2.934491,-5.932399,2.989559,-5.922731,3.050601,-5.879029,3.094303,-5.833630,3.105202,5.833630,3.105202,5.892408,3.086104,5.892408,3.086104,$1*%
G04 Aperture macros list end*
%ADD10C,0.125000*%
%ADD11C,0.120000*%
%ADD12C,0.191421*%
%ADD13C,0.254000*%
%ADD14C,0.152500*%
%ADD15C,0.200000*%
%ADD16C,0.300000*%
%ADD17C,0.250000*%
%ADD18C,0.000000*%
%ADD19RoundRect,0.153000X-1.547000X-1.547000X1.547000X-1.547000X1.547000X1.547000X-1.547000X1.547000X0*%
%ADD20FreePoly0,90.000000*%
%ADD21RoundRect,0.050000X0.387500X-0.050000X0.387500X0.050000X-0.387500X0.050000X-0.387500X-0.050000X0*%
%ADD22FreePoly1,90.000000*%
%ADD23FreePoly2,90.000000*%
%ADD24RoundRect,0.050000X0.050000X-0.387500X0.050000X0.387500X-0.050000X0.387500X-0.050000X-0.387500X0*%
%ADD25FreePoly3,90.000000*%
%ADD26FreePoly4,90.000000*%
%ADD27FreePoly5,90.000000*%
%ADD28FreePoly6,90.000000*%
%ADD29FreePoly7,90.000000*%
%ADD30RoundRect,0.140000X-0.140000X-0.170000X0.140000X-0.170000X0.140000X0.170000X-0.140000X0.170000X0*%
%ADD31FreePoly8,270.000000*%
%ADD32FreePoly9,225.000000*%
%ADD33FreePoly9,315.000000*%
%ADD34RoundRect,0.190500X0.444500X-0.909500X0.444500X0.909500X-0.444500X0.909500X-0.444500X-0.909500X0*%
%ADD35RoundRect,0.190500X-0.444500X0.909500X-0.444500X-0.909500X0.444500X-0.909500X0.444500X0.909500X0*%
%ADD36RoundRect,0.165000X0.933381X-0.388909X-0.388909X0.933381X-0.933381X0.388909X0.388909X-0.933381X0*%
%ADD37RoundRect,0.190500X-0.909500X-0.444500X0.909500X-0.444500X0.909500X0.444500X-0.909500X0.444500X0*%
%ADD38RoundRect,0.165000X-0.388909X-0.933381X0.933381X0.388909X0.388909X0.933381X-0.933381X-0.388909X0*%
%ADD39RoundRect,0.140000X0.170000X-0.140000X0.170000X0.140000X-0.170000X0.140000X-0.170000X-0.140000X0*%
%ADD40RoundRect,0.135000X-0.135000X-0.185000X0.135000X-0.185000X0.135000X0.185000X-0.135000X0.185000X0*%
%ADD41RoundRect,0.135000X-0.185000X0.135000X-0.185000X-0.135000X0.185000X-0.135000X0.185000X0.135000X0*%
%ADD42RoundRect,0.140000X-0.170000X0.140000X-0.170000X-0.140000X0.170000X-0.140000X0.170000X0.140000X0*%
%ADD43RoundRect,0.135000X0.185000X-0.135000X0.185000X0.135000X-0.185000X0.135000X-0.185000X-0.135000X0*%
%ADD44C,1.000000*%
%ADD45R,0.530000X0.470000*%
%ADD46R,1.700000X0.700000*%
%ADD47RoundRect,0.140000X-0.219203X-0.021213X-0.021213X-0.219203X0.219203X0.021213X0.021213X0.219203X0*%
%ADD48RoundRect,0.135000X0.035355X-0.226274X0.226274X-0.035355X-0.035355X0.226274X-0.226274X0.035355X0*%
%ADD49RoundRect,0.135000X0.135000X0.185000X-0.135000X0.185000X-0.135000X-0.185000X0.135000X-0.185000X0*%
%ADD50RoundRect,0.250000X-0.159099X0.512652X-0.512652X0.159099X0.159099X-0.512652X0.512652X-0.159099X0*%
%ADD51RoundRect,0.140000X0.021213X-0.219203X0.219203X-0.021213X-0.021213X0.219203X-0.219203X0.021213X0*%
%ADD52RoundRect,0.140000X0.140000X0.170000X-0.140000X0.170000X-0.140000X-0.170000X0.140000X-0.170000X0*%
%ADD53R,1.200000X1.400000*%
%ADD54RoundRect,0.250000X0.250000X0.475000X-0.250000X0.475000X-0.250000X-0.475000X0.250000X-0.475000X0*%
%ADD55R,0.800000X1.400000*%
%ADD56RoundRect,0.250000X-0.475000X0.250000X-0.475000X-0.250000X0.475000X-0.250000X0.475000X0.250000X0*%
%ADD57R,0.280000X0.600000*%
%ADD58R,1.700000X0.300000*%
%ADD59O,2.400000X1.200000*%
%ADD60R,1.000000X1.430000*%
%ADD61R,0.900000X0.300000*%
%ADD62RotRect,0.600000X1.000000X315.000000*%
G04 APERTURE END LIST*
D10*
X192036811Y-112956119D02*
X192084430Y-112932309D01*
X192084430Y-112932309D02*
X192155859Y-112932309D01*
X192155859Y-112932309D02*
X192227287Y-112956119D01*
X192227287Y-112956119D02*
X192274906Y-113003738D01*
X192274906Y-113003738D02*
X192298716Y-113051357D01*
X192298716Y-113051357D02*
X192322525Y-113146595D01*
X192322525Y-113146595D02*
X192322525Y-113218023D01*
X192322525Y-113218023D02*
X192298716Y-113313261D01*
X192298716Y-113313261D02*
X192274906Y-113360880D01*
X192274906Y-113360880D02*
X192227287Y-113408500D01*
X192227287Y-113408500D02*
X192155859Y-113432309D01*
X192155859Y-113432309D02*
X192108240Y-113432309D01*
X192108240Y-113432309D02*
X192036811Y-113408500D01*
X192036811Y-113408500D02*
X192013002Y-113384690D01*
X192013002Y-113384690D02*
X192013002Y-113218023D01*
X192013002Y-113218023D02*
X192108240Y-113218023D01*
X200882049Y-113670404D02*
X200810621Y-113694214D01*
X200810621Y-113694214D02*
X200786811Y-113718023D01*
X200786811Y-113718023D02*
X200763002Y-113765642D01*
X200763002Y-113765642D02*
X200763002Y-113837071D01*
X200763002Y-113837071D02*
X200786811Y-113884690D01*
X200786811Y-113884690D02*
X200810621Y-113908500D01*
X200810621Y-113908500D02*
X200858240Y-113932309D01*
X200858240Y-113932309D02*
X201048716Y-113932309D01*
X201048716Y-113932309D02*
X201048716Y-113432309D01*
X201048716Y-113432309D02*
X200882049Y-113432309D01*
X200882049Y-113432309D02*
X200834430Y-113456119D01*
X200834430Y-113456119D02*
X200810621Y-113479928D01*
X200810621Y-113479928D02*
X200786811Y-113527547D01*
X200786811Y-113527547D02*
X200786811Y-113575166D01*
X200786811Y-113575166D02*
X200810621Y-113622785D01*
X200810621Y-113622785D02*
X200834430Y-113646595D01*
X200834430Y-113646595D02*
X200882049Y-113670404D01*
X200882049Y-113670404D02*
X201048716Y-113670404D01*
X197113002Y-102232309D02*
X197279668Y-101994214D01*
X197398716Y-102232309D02*
X197398716Y-101732309D01*
X197398716Y-101732309D02*
X197208240Y-101732309D01*
X197208240Y-101732309D02*
X197160621Y-101756119D01*
X197160621Y-101756119D02*
X197136811Y-101779928D01*
X197136811Y-101779928D02*
X197113002Y-101827547D01*
X197113002Y-101827547D02*
X197113002Y-101898976D01*
X197113002Y-101898976D02*
X197136811Y-101946595D01*
X197136811Y-101946595D02*
X197160621Y-101970404D01*
X197160621Y-101970404D02*
X197208240Y-101994214D01*
X197208240Y-101994214D02*
X197398716Y-101994214D01*
X216491428Y-114177190D02*
X216515237Y-114201000D01*
X216515237Y-114201000D02*
X216586666Y-114224809D01*
X216586666Y-114224809D02*
X216634285Y-114224809D01*
X216634285Y-114224809D02*
X216705713Y-114201000D01*
X216705713Y-114201000D02*
X216753332Y-114153380D01*
X216753332Y-114153380D02*
X216777142Y-114105761D01*
X216777142Y-114105761D02*
X216800951Y-114010523D01*
X216800951Y-114010523D02*
X216800951Y-113939095D01*
X216800951Y-113939095D02*
X216777142Y-113843857D01*
X216777142Y-113843857D02*
X216753332Y-113796238D01*
X216753332Y-113796238D02*
X216705713Y-113748619D01*
X216705713Y-113748619D02*
X216634285Y-113724809D01*
X216634285Y-113724809D02*
X216586666Y-113724809D01*
X216586666Y-113724809D02*
X216515237Y-113748619D01*
X216515237Y-113748619D02*
X216491428Y-113772428D01*
X216015237Y-114224809D02*
X216300951Y-114224809D01*
X216158094Y-114224809D02*
X216158094Y-113724809D01*
X216158094Y-113724809D02*
X216205713Y-113796238D01*
X216205713Y-113796238D02*
X216253332Y-113843857D01*
X216253332Y-113843857D02*
X216300951Y-113867666D01*
X215848571Y-113724809D02*
X215515238Y-113724809D01*
X215515238Y-113724809D02*
X215729523Y-114224809D01*
X201677190Y-100878571D02*
X201701000Y-100854762D01*
X201701000Y-100854762D02*
X201724809Y-100783333D01*
X201724809Y-100783333D02*
X201724809Y-100735714D01*
X201724809Y-100735714D02*
X201701000Y-100664286D01*
X201701000Y-100664286D02*
X201653380Y-100616667D01*
X201653380Y-100616667D02*
X201605761Y-100592857D01*
X201605761Y-100592857D02*
X201510523Y-100569048D01*
X201510523Y-100569048D02*
X201439095Y-100569048D01*
X201439095Y-100569048D02*
X201343857Y-100592857D01*
X201343857Y-100592857D02*
X201296238Y-100616667D01*
X201296238Y-100616667D02*
X201248619Y-100664286D01*
X201248619Y-100664286D02*
X201224809Y-100735714D01*
X201224809Y-100735714D02*
X201224809Y-100783333D01*
X201224809Y-100783333D02*
X201248619Y-100854762D01*
X201248619Y-100854762D02*
X201272428Y-100878571D01*
X201724809Y-101354762D02*
X201724809Y-101069048D01*
X201724809Y-101211905D02*
X201224809Y-101211905D01*
X201224809Y-101211905D02*
X201296238Y-101164286D01*
X201296238Y-101164286D02*
X201343857Y-101116667D01*
X201343857Y-101116667D02*
X201367666Y-101069048D01*
X201224809Y-101807142D02*
X201224809Y-101569047D01*
X201224809Y-101569047D02*
X201462904Y-101545238D01*
X201462904Y-101545238D02*
X201439095Y-101569047D01*
X201439095Y-101569047D02*
X201415285Y-101616666D01*
X201415285Y-101616666D02*
X201415285Y-101735714D01*
X201415285Y-101735714D02*
X201439095Y-101783333D01*
X201439095Y-101783333D02*
X201462904Y-101807142D01*
X201462904Y-101807142D02*
X201510523Y-101830952D01*
X201510523Y-101830952D02*
X201629571Y-101830952D01*
X201629571Y-101830952D02*
X201677190Y-101807142D01*
X201677190Y-101807142D02*
X201701000Y-101783333D01*
X201701000Y-101783333D02*
X201724809Y-101735714D01*
X201724809Y-101735714D02*
X201724809Y-101616666D01*
X201724809Y-101616666D02*
X201701000Y-101569047D01*
X201701000Y-101569047D02*
X201677190Y-101545238D01*
X191513002Y-111974809D02*
X191679668Y-111736714D01*
X191798716Y-111974809D02*
X191798716Y-111474809D01*
X191798716Y-111474809D02*
X191608240Y-111474809D01*
X191608240Y-111474809D02*
X191560621Y-111498619D01*
X191560621Y-111498619D02*
X191536811Y-111522428D01*
X191536811Y-111522428D02*
X191513002Y-111570047D01*
X191513002Y-111570047D02*
X191513002Y-111641476D01*
X191513002Y-111641476D02*
X191536811Y-111689095D01*
X191536811Y-111689095D02*
X191560621Y-111712904D01*
X191560621Y-111712904D02*
X191608240Y-111736714D01*
X191608240Y-111736714D02*
X191798716Y-111736714D01*
X191036811Y-111974809D02*
X191322525Y-111974809D01*
X191179668Y-111974809D02*
X191179668Y-111474809D01*
X191179668Y-111474809D02*
X191227287Y-111546238D01*
X191227287Y-111546238D02*
X191274906Y-111593857D01*
X191274906Y-111593857D02*
X191322525Y-111617666D01*
X198474809Y-105916666D02*
X198236714Y-105750000D01*
X198474809Y-105630952D02*
X197974809Y-105630952D01*
X197974809Y-105630952D02*
X197974809Y-105821428D01*
X197974809Y-105821428D02*
X197998619Y-105869047D01*
X197998619Y-105869047D02*
X198022428Y-105892857D01*
X198022428Y-105892857D02*
X198070047Y-105916666D01*
X198070047Y-105916666D02*
X198141476Y-105916666D01*
X198141476Y-105916666D02*
X198189095Y-105892857D01*
X198189095Y-105892857D02*
X198212904Y-105869047D01*
X198212904Y-105869047D02*
X198236714Y-105821428D01*
X198236714Y-105821428D02*
X198236714Y-105630952D01*
X198022428Y-106107143D02*
X197998619Y-106130952D01*
X197998619Y-106130952D02*
X197974809Y-106178571D01*
X197974809Y-106178571D02*
X197974809Y-106297619D01*
X197974809Y-106297619D02*
X197998619Y-106345238D01*
X197998619Y-106345238D02*
X198022428Y-106369047D01*
X198022428Y-106369047D02*
X198070047Y-106392857D01*
X198070047Y-106392857D02*
X198117666Y-106392857D01*
X198117666Y-106392857D02*
X198189095Y-106369047D01*
X198189095Y-106369047D02*
X198474809Y-106083333D01*
X198474809Y-106083333D02*
X198474809Y-106392857D01*
X204527190Y-100476666D02*
X204551000Y-100452857D01*
X204551000Y-100452857D02*
X204574809Y-100381428D01*
X204574809Y-100381428D02*
X204574809Y-100333809D01*
X204574809Y-100333809D02*
X204551000Y-100262381D01*
X204551000Y-100262381D02*
X204503380Y-100214762D01*
X204503380Y-100214762D02*
X204455761Y-100190952D01*
X204455761Y-100190952D02*
X204360523Y-100167143D01*
X204360523Y-100167143D02*
X204289095Y-100167143D01*
X204289095Y-100167143D02*
X204193857Y-100190952D01*
X204193857Y-100190952D02*
X204146238Y-100214762D01*
X204146238Y-100214762D02*
X204098619Y-100262381D01*
X204098619Y-100262381D02*
X204074809Y-100333809D01*
X204074809Y-100333809D02*
X204074809Y-100381428D01*
X204074809Y-100381428D02*
X204098619Y-100452857D01*
X204098619Y-100452857D02*
X204122428Y-100476666D01*
X204289095Y-100762381D02*
X204265285Y-100714762D01*
X204265285Y-100714762D02*
X204241476Y-100690952D01*
X204241476Y-100690952D02*
X204193857Y-100667143D01*
X204193857Y-100667143D02*
X204170047Y-100667143D01*
X204170047Y-100667143D02*
X204122428Y-100690952D01*
X204122428Y-100690952D02*
X204098619Y-100714762D01*
X204098619Y-100714762D02*
X204074809Y-100762381D01*
X204074809Y-100762381D02*
X204074809Y-100857619D01*
X204074809Y-100857619D02*
X204098619Y-100905238D01*
X204098619Y-100905238D02*
X204122428Y-100929047D01*
X204122428Y-100929047D02*
X204170047Y-100952857D01*
X204170047Y-100952857D02*
X204193857Y-100952857D01*
X204193857Y-100952857D02*
X204241476Y-100929047D01*
X204241476Y-100929047D02*
X204265285Y-100905238D01*
X204265285Y-100905238D02*
X204289095Y-100857619D01*
X204289095Y-100857619D02*
X204289095Y-100762381D01*
X204289095Y-100762381D02*
X204312904Y-100714762D01*
X204312904Y-100714762D02*
X204336714Y-100690952D01*
X204336714Y-100690952D02*
X204384333Y-100667143D01*
X204384333Y-100667143D02*
X204479571Y-100667143D01*
X204479571Y-100667143D02*
X204527190Y-100690952D01*
X204527190Y-100690952D02*
X204551000Y-100714762D01*
X204551000Y-100714762D02*
X204574809Y-100762381D01*
X204574809Y-100762381D02*
X204574809Y-100857619D01*
X204574809Y-100857619D02*
X204551000Y-100905238D01*
X204551000Y-100905238D02*
X204527190Y-100929047D01*
X204527190Y-100929047D02*
X204479571Y-100952857D01*
X204479571Y-100952857D02*
X204384333Y-100952857D01*
X204384333Y-100952857D02*
X204336714Y-100929047D01*
X204336714Y-100929047D02*
X204312904Y-100905238D01*
X204312904Y-100905238D02*
X204289095Y-100857619D01*
X198427190Y-107666666D02*
X198451000Y-107642857D01*
X198451000Y-107642857D02*
X198474809Y-107571428D01*
X198474809Y-107571428D02*
X198474809Y-107523809D01*
X198474809Y-107523809D02*
X198451000Y-107452381D01*
X198451000Y-107452381D02*
X198403380Y-107404762D01*
X198403380Y-107404762D02*
X198355761Y-107380952D01*
X198355761Y-107380952D02*
X198260523Y-107357143D01*
X198260523Y-107357143D02*
X198189095Y-107357143D01*
X198189095Y-107357143D02*
X198093857Y-107380952D01*
X198093857Y-107380952D02*
X198046238Y-107404762D01*
X198046238Y-107404762D02*
X197998619Y-107452381D01*
X197998619Y-107452381D02*
X197974809Y-107523809D01*
X197974809Y-107523809D02*
X197974809Y-107571428D01*
X197974809Y-107571428D02*
X197998619Y-107642857D01*
X197998619Y-107642857D02*
X198022428Y-107666666D01*
X198141476Y-108095238D02*
X198474809Y-108095238D01*
X197951000Y-107976190D02*
X198308142Y-107857143D01*
X198308142Y-107857143D02*
X198308142Y-108166666D01*
X213824809Y-107716666D02*
X213586714Y-107550000D01*
X213824809Y-107430952D02*
X213324809Y-107430952D01*
X213324809Y-107430952D02*
X213324809Y-107621428D01*
X213324809Y-107621428D02*
X213348619Y-107669047D01*
X213348619Y-107669047D02*
X213372428Y-107692857D01*
X213372428Y-107692857D02*
X213420047Y-107716666D01*
X213420047Y-107716666D02*
X213491476Y-107716666D01*
X213491476Y-107716666D02*
X213539095Y-107692857D01*
X213539095Y-107692857D02*
X213562904Y-107669047D01*
X213562904Y-107669047D02*
X213586714Y-107621428D01*
X213586714Y-107621428D02*
X213586714Y-107430952D01*
X213824809Y-107954762D02*
X213824809Y-108050000D01*
X213824809Y-108050000D02*
X213801000Y-108097619D01*
X213801000Y-108097619D02*
X213777190Y-108121428D01*
X213777190Y-108121428D02*
X213705761Y-108169047D01*
X213705761Y-108169047D02*
X213610523Y-108192857D01*
X213610523Y-108192857D02*
X213420047Y-108192857D01*
X213420047Y-108192857D02*
X213372428Y-108169047D01*
X213372428Y-108169047D02*
X213348619Y-108145238D01*
X213348619Y-108145238D02*
X213324809Y-108097619D01*
X213324809Y-108097619D02*
X213324809Y-108002381D01*
X213324809Y-108002381D02*
X213348619Y-107954762D01*
X213348619Y-107954762D02*
X213372428Y-107930952D01*
X213372428Y-107930952D02*
X213420047Y-107907143D01*
X213420047Y-107907143D02*
X213539095Y-107907143D01*
X213539095Y-107907143D02*
X213586714Y-107930952D01*
X213586714Y-107930952D02*
X213610523Y-107954762D01*
X213610523Y-107954762D02*
X213634333Y-108002381D01*
X213634333Y-108002381D02*
X213634333Y-108097619D01*
X213634333Y-108097619D02*
X213610523Y-108145238D01*
X213610523Y-108145238D02*
X213586714Y-108169047D01*
X213586714Y-108169047D02*
X213539095Y-108192857D01*
X202877190Y-111908571D02*
X202901000Y-111884762D01*
X202901000Y-111884762D02*
X202924809Y-111813333D01*
X202924809Y-111813333D02*
X202924809Y-111765714D01*
X202924809Y-111765714D02*
X202901000Y-111694286D01*
X202901000Y-111694286D02*
X202853380Y-111646667D01*
X202853380Y-111646667D02*
X202805761Y-111622857D01*
X202805761Y-111622857D02*
X202710523Y-111599048D01*
X202710523Y-111599048D02*
X202639095Y-111599048D01*
X202639095Y-111599048D02*
X202543857Y-111622857D01*
X202543857Y-111622857D02*
X202496238Y-111646667D01*
X202496238Y-111646667D02*
X202448619Y-111694286D01*
X202448619Y-111694286D02*
X202424809Y-111765714D01*
X202424809Y-111765714D02*
X202424809Y-111813333D01*
X202424809Y-111813333D02*
X202448619Y-111884762D01*
X202448619Y-111884762D02*
X202472428Y-111908571D01*
X202924809Y-112384762D02*
X202924809Y-112099048D01*
X202924809Y-112241905D02*
X202424809Y-112241905D01*
X202424809Y-112241905D02*
X202496238Y-112194286D01*
X202496238Y-112194286D02*
X202543857Y-112146667D01*
X202543857Y-112146667D02*
X202567666Y-112099048D01*
X202924809Y-112860952D02*
X202924809Y-112575238D01*
X202924809Y-112718095D02*
X202424809Y-112718095D01*
X202424809Y-112718095D02*
X202496238Y-112670476D01*
X202496238Y-112670476D02*
X202543857Y-112622857D01*
X202543857Y-112622857D02*
X202567666Y-112575238D01*
X205677190Y-111878571D02*
X205701000Y-111854762D01*
X205701000Y-111854762D02*
X205724809Y-111783333D01*
X205724809Y-111783333D02*
X205724809Y-111735714D01*
X205724809Y-111735714D02*
X205701000Y-111664286D01*
X205701000Y-111664286D02*
X205653380Y-111616667D01*
X205653380Y-111616667D02*
X205605761Y-111592857D01*
X205605761Y-111592857D02*
X205510523Y-111569048D01*
X205510523Y-111569048D02*
X205439095Y-111569048D01*
X205439095Y-111569048D02*
X205343857Y-111592857D01*
X205343857Y-111592857D02*
X205296238Y-111616667D01*
X205296238Y-111616667D02*
X205248619Y-111664286D01*
X205248619Y-111664286D02*
X205224809Y-111735714D01*
X205224809Y-111735714D02*
X205224809Y-111783333D01*
X205224809Y-111783333D02*
X205248619Y-111854762D01*
X205248619Y-111854762D02*
X205272428Y-111878571D01*
X205724809Y-112354762D02*
X205724809Y-112069048D01*
X205724809Y-112211905D02*
X205224809Y-112211905D01*
X205224809Y-112211905D02*
X205296238Y-112164286D01*
X205296238Y-112164286D02*
X205343857Y-112116667D01*
X205343857Y-112116667D02*
X205367666Y-112069048D01*
X205272428Y-112545238D02*
X205248619Y-112569047D01*
X205248619Y-112569047D02*
X205224809Y-112616666D01*
X205224809Y-112616666D02*
X205224809Y-112735714D01*
X205224809Y-112735714D02*
X205248619Y-112783333D01*
X205248619Y-112783333D02*
X205272428Y-112807142D01*
X205272428Y-112807142D02*
X205320047Y-112830952D01*
X205320047Y-112830952D02*
X205367666Y-112830952D01*
X205367666Y-112830952D02*
X205439095Y-112807142D01*
X205439095Y-112807142D02*
X205724809Y-112521428D01*
X205724809Y-112521428D02*
X205724809Y-112830952D01*
X207717190Y-106116666D02*
X207741000Y-106092857D01*
X207741000Y-106092857D02*
X207764809Y-106021428D01*
X207764809Y-106021428D02*
X207764809Y-105973809D01*
X207764809Y-105973809D02*
X207741000Y-105902381D01*
X207741000Y-105902381D02*
X207693380Y-105854762D01*
X207693380Y-105854762D02*
X207645761Y-105830952D01*
X207645761Y-105830952D02*
X207550523Y-105807143D01*
X207550523Y-105807143D02*
X207479095Y-105807143D01*
X207479095Y-105807143D02*
X207383857Y-105830952D01*
X207383857Y-105830952D02*
X207336238Y-105854762D01*
X207336238Y-105854762D02*
X207288619Y-105902381D01*
X207288619Y-105902381D02*
X207264809Y-105973809D01*
X207264809Y-105973809D02*
X207264809Y-106021428D01*
X207264809Y-106021428D02*
X207288619Y-106092857D01*
X207288619Y-106092857D02*
X207312428Y-106116666D01*
X207264809Y-106545238D02*
X207264809Y-106450000D01*
X207264809Y-106450000D02*
X207288619Y-106402381D01*
X207288619Y-106402381D02*
X207312428Y-106378571D01*
X207312428Y-106378571D02*
X207383857Y-106330952D01*
X207383857Y-106330952D02*
X207479095Y-106307143D01*
X207479095Y-106307143D02*
X207669571Y-106307143D01*
X207669571Y-106307143D02*
X207717190Y-106330952D01*
X207717190Y-106330952D02*
X207741000Y-106354762D01*
X207741000Y-106354762D02*
X207764809Y-106402381D01*
X207764809Y-106402381D02*
X207764809Y-106497619D01*
X207764809Y-106497619D02*
X207741000Y-106545238D01*
X207741000Y-106545238D02*
X207717190Y-106569047D01*
X207717190Y-106569047D02*
X207669571Y-106592857D01*
X207669571Y-106592857D02*
X207550523Y-106592857D01*
X207550523Y-106592857D02*
X207502904Y-106569047D01*
X207502904Y-106569047D02*
X207479095Y-106545238D01*
X207479095Y-106545238D02*
X207455285Y-106497619D01*
X207455285Y-106497619D02*
X207455285Y-106402381D01*
X207455285Y-106402381D02*
X207479095Y-106354762D01*
X207479095Y-106354762D02*
X207502904Y-106330952D01*
X207502904Y-106330952D02*
X207550523Y-106307143D01*
X211624809Y-104716666D02*
X211624809Y-104478571D01*
X211624809Y-104478571D02*
X211124809Y-104478571D01*
X211624809Y-105145238D02*
X211624809Y-104859524D01*
X211624809Y-105002381D02*
X211124809Y-105002381D01*
X211124809Y-105002381D02*
X211196238Y-104954762D01*
X211196238Y-104954762D02*
X211243857Y-104907143D01*
X211243857Y-104907143D02*
X211267666Y-104859524D01*
X213221991Y-110482576D02*
X213221991Y-110516248D01*
X213221991Y-110516248D02*
X213255663Y-110583591D01*
X213255663Y-110583591D02*
X213289334Y-110617263D01*
X213289334Y-110617263D02*
X213356678Y-110650935D01*
X213356678Y-110650935D02*
X213424021Y-110650935D01*
X213424021Y-110650935D02*
X213474529Y-110634099D01*
X213474529Y-110634099D02*
X213558708Y-110583591D01*
X213558708Y-110583591D02*
X213609216Y-110533084D01*
X213609216Y-110533084D02*
X213659724Y-110448904D01*
X213659724Y-110448904D02*
X213676560Y-110398397D01*
X213676560Y-110398397D02*
X213676560Y-110331053D01*
X213676560Y-110331053D02*
X213642888Y-110263710D01*
X213642888Y-110263710D02*
X213609216Y-110230038D01*
X213609216Y-110230038D02*
X213541873Y-110196366D01*
X213541873Y-110196366D02*
X213508201Y-110196366D01*
X212851602Y-110179530D02*
X213053632Y-110381561D01*
X212952617Y-110280546D02*
X213306170Y-109926992D01*
X213306170Y-109926992D02*
X213289334Y-110011172D01*
X213289334Y-110011172D02*
X213289334Y-110078515D01*
X213289334Y-110078515D02*
X213306170Y-110129023D01*
X212784258Y-109640783D02*
X212548556Y-109876485D01*
X213003125Y-109590275D02*
X212834766Y-109926993D01*
X212834766Y-109926993D02*
X212615900Y-109708126D01*
X214886248Y-104171680D02*
X214835740Y-103885470D01*
X215088278Y-103969649D02*
X214734725Y-103616096D01*
X214734725Y-103616096D02*
X214600038Y-103750783D01*
X214600038Y-103750783D02*
X214583202Y-103801291D01*
X214583202Y-103801291D02*
X214583202Y-103834962D01*
X214583202Y-103834962D02*
X214600038Y-103885470D01*
X214600038Y-103885470D02*
X214650546Y-103935978D01*
X214650546Y-103935978D02*
X214701053Y-103952813D01*
X214701053Y-103952813D02*
X214734725Y-103952813D01*
X214734725Y-103952813D02*
X214785233Y-103935978D01*
X214785233Y-103935978D02*
X214919920Y-103801291D01*
X214549530Y-104508397D02*
X214751561Y-104306367D01*
X214650546Y-104407382D02*
X214296992Y-104053829D01*
X214296992Y-104053829D02*
X214381172Y-104070665D01*
X214381172Y-104070665D02*
X214448515Y-104070665D01*
X214448515Y-104070665D02*
X214499023Y-104053829D01*
X213892931Y-104457889D02*
X213960275Y-104390546D01*
X213960275Y-104390546D02*
X214010783Y-104373710D01*
X214010783Y-104373710D02*
X214044454Y-104373710D01*
X214044454Y-104373710D02*
X214128634Y-104390546D01*
X214128634Y-104390546D02*
X214212813Y-104441054D01*
X214212813Y-104441054D02*
X214347500Y-104575741D01*
X214347500Y-104575741D02*
X214364336Y-104626248D01*
X214364336Y-104626248D02*
X214364336Y-104659920D01*
X214364336Y-104659920D02*
X214347500Y-104710428D01*
X214347500Y-104710428D02*
X214280157Y-104777771D01*
X214280157Y-104777771D02*
X214229649Y-104794607D01*
X214229649Y-104794607D02*
X214195977Y-104794607D01*
X214195977Y-104794607D02*
X214145470Y-104777771D01*
X214145470Y-104777771D02*
X214061290Y-104693592D01*
X214061290Y-104693592D02*
X214044454Y-104643084D01*
X214044454Y-104643084D02*
X214044454Y-104609412D01*
X214044454Y-104609412D02*
X214061290Y-104558905D01*
X214061290Y-104558905D02*
X214128634Y-104491561D01*
X214128634Y-104491561D02*
X214179141Y-104474725D01*
X214179141Y-104474725D02*
X214212813Y-104474725D01*
X214212813Y-104474725D02*
X214263321Y-104491561D01*
X211453333Y-108054809D02*
X211619999Y-107816714D01*
X211739047Y-108054809D02*
X211739047Y-107554809D01*
X211739047Y-107554809D02*
X211548571Y-107554809D01*
X211548571Y-107554809D02*
X211500952Y-107578619D01*
X211500952Y-107578619D02*
X211477142Y-107602428D01*
X211477142Y-107602428D02*
X211453333Y-107650047D01*
X211453333Y-107650047D02*
X211453333Y-107721476D01*
X211453333Y-107721476D02*
X211477142Y-107769095D01*
X211477142Y-107769095D02*
X211500952Y-107792904D01*
X211500952Y-107792904D02*
X211548571Y-107816714D01*
X211548571Y-107816714D02*
X211739047Y-107816714D01*
X211286666Y-107554809D02*
X210953333Y-107554809D01*
X210953333Y-107554809D02*
X211167618Y-108054809D01*
X211563333Y-106974809D02*
X211729999Y-106736714D01*
X211849047Y-106974809D02*
X211849047Y-106474809D01*
X211849047Y-106474809D02*
X211658571Y-106474809D01*
X211658571Y-106474809D02*
X211610952Y-106498619D01*
X211610952Y-106498619D02*
X211587142Y-106522428D01*
X211587142Y-106522428D02*
X211563333Y-106570047D01*
X211563333Y-106570047D02*
X211563333Y-106641476D01*
X211563333Y-106641476D02*
X211587142Y-106689095D01*
X211587142Y-106689095D02*
X211610952Y-106712904D01*
X211610952Y-106712904D02*
X211658571Y-106736714D01*
X211658571Y-106736714D02*
X211849047Y-106736714D01*
X211277618Y-106689095D02*
X211325237Y-106665285D01*
X211325237Y-106665285D02*
X211349047Y-106641476D01*
X211349047Y-106641476D02*
X211372856Y-106593857D01*
X211372856Y-106593857D02*
X211372856Y-106570047D01*
X211372856Y-106570047D02*
X211349047Y-106522428D01*
X211349047Y-106522428D02*
X211325237Y-106498619D01*
X211325237Y-106498619D02*
X211277618Y-106474809D01*
X211277618Y-106474809D02*
X211182380Y-106474809D01*
X211182380Y-106474809D02*
X211134761Y-106498619D01*
X211134761Y-106498619D02*
X211110952Y-106522428D01*
X211110952Y-106522428D02*
X211087142Y-106570047D01*
X211087142Y-106570047D02*
X211087142Y-106593857D01*
X211087142Y-106593857D02*
X211110952Y-106641476D01*
X211110952Y-106641476D02*
X211134761Y-106665285D01*
X211134761Y-106665285D02*
X211182380Y-106689095D01*
X211182380Y-106689095D02*
X211277618Y-106689095D01*
X211277618Y-106689095D02*
X211325237Y-106712904D01*
X211325237Y-106712904D02*
X211349047Y-106736714D01*
X211349047Y-106736714D02*
X211372856Y-106784333D01*
X211372856Y-106784333D02*
X211372856Y-106879571D01*
X211372856Y-106879571D02*
X211349047Y-106927190D01*
X211349047Y-106927190D02*
X211325237Y-106951000D01*
X211325237Y-106951000D02*
X211277618Y-106974809D01*
X211277618Y-106974809D02*
X211182380Y-106974809D01*
X211182380Y-106974809D02*
X211134761Y-106951000D01*
X211134761Y-106951000D02*
X211110952Y-106927190D01*
X211110952Y-106927190D02*
X211087142Y-106879571D01*
X211087142Y-106879571D02*
X211087142Y-106784333D01*
X211087142Y-106784333D02*
X211110952Y-106736714D01*
X211110952Y-106736714D02*
X211134761Y-106712904D01*
X211134761Y-106712904D02*
X211182380Y-106689095D01*
X189933632Y-102384217D02*
X189933632Y-102417889D01*
X189933632Y-102417889D02*
X189967304Y-102485233D01*
X189967304Y-102485233D02*
X190000976Y-102518904D01*
X190000976Y-102518904D02*
X190068319Y-102552576D01*
X190068319Y-102552576D02*
X190135663Y-102552576D01*
X190135663Y-102552576D02*
X190186170Y-102535740D01*
X190186170Y-102535740D02*
X190270350Y-102485233D01*
X190270350Y-102485233D02*
X190320857Y-102434725D01*
X190320857Y-102434725D02*
X190371365Y-102350546D01*
X190371365Y-102350546D02*
X190388201Y-102300038D01*
X190388201Y-102300038D02*
X190388201Y-102232695D01*
X190388201Y-102232695D02*
X190354529Y-102165351D01*
X190354529Y-102165351D02*
X190320857Y-102131679D01*
X190320857Y-102131679D02*
X190253514Y-102098008D01*
X190253514Y-102098008D02*
X190219842Y-102098008D01*
X189563243Y-102081172D02*
X189765274Y-102283202D01*
X189664258Y-102182187D02*
X190017812Y-101828634D01*
X190017812Y-101828634D02*
X190000976Y-101912813D01*
X190000976Y-101912813D02*
X190000976Y-101980156D01*
X190000976Y-101980156D02*
X190017812Y-102030664D01*
X204633333Y-113824809D02*
X204799999Y-113586714D01*
X204919047Y-113824809D02*
X204919047Y-113324809D01*
X204919047Y-113324809D02*
X204728571Y-113324809D01*
X204728571Y-113324809D02*
X204680952Y-113348619D01*
X204680952Y-113348619D02*
X204657142Y-113372428D01*
X204657142Y-113372428D02*
X204633333Y-113420047D01*
X204633333Y-113420047D02*
X204633333Y-113491476D01*
X204633333Y-113491476D02*
X204657142Y-113539095D01*
X204657142Y-113539095D02*
X204680952Y-113562904D01*
X204680952Y-113562904D02*
X204728571Y-113586714D01*
X204728571Y-113586714D02*
X204919047Y-113586714D01*
X204204761Y-113324809D02*
X204299999Y-113324809D01*
X204299999Y-113324809D02*
X204347618Y-113348619D01*
X204347618Y-113348619D02*
X204371428Y-113372428D01*
X204371428Y-113372428D02*
X204419047Y-113443857D01*
X204419047Y-113443857D02*
X204442856Y-113539095D01*
X204442856Y-113539095D02*
X204442856Y-113729571D01*
X204442856Y-113729571D02*
X204419047Y-113777190D01*
X204419047Y-113777190D02*
X204395237Y-113801000D01*
X204395237Y-113801000D02*
X204347618Y-113824809D01*
X204347618Y-113824809D02*
X204252380Y-113824809D01*
X204252380Y-113824809D02*
X204204761Y-113801000D01*
X204204761Y-113801000D02*
X204180952Y-113777190D01*
X204180952Y-113777190D02*
X204157142Y-113729571D01*
X204157142Y-113729571D02*
X204157142Y-113610523D01*
X204157142Y-113610523D02*
X204180952Y-113562904D01*
X204180952Y-113562904D02*
X204204761Y-113539095D01*
X204204761Y-113539095D02*
X204252380Y-113515285D01*
X204252380Y-113515285D02*
X204347618Y-113515285D01*
X204347618Y-113515285D02*
X204395237Y-113539095D01*
X204395237Y-113539095D02*
X204419047Y-113562904D01*
X204419047Y-113562904D02*
X204442856Y-113610523D01*
X208563333Y-101709809D02*
X208729999Y-101471714D01*
X208849047Y-101709809D02*
X208849047Y-101209809D01*
X208849047Y-101209809D02*
X208658571Y-101209809D01*
X208658571Y-101209809D02*
X208610952Y-101233619D01*
X208610952Y-101233619D02*
X208587142Y-101257428D01*
X208587142Y-101257428D02*
X208563333Y-101305047D01*
X208563333Y-101305047D02*
X208563333Y-101376476D01*
X208563333Y-101376476D02*
X208587142Y-101424095D01*
X208587142Y-101424095D02*
X208610952Y-101447904D01*
X208610952Y-101447904D02*
X208658571Y-101471714D01*
X208658571Y-101471714D02*
X208849047Y-101471714D01*
X208110952Y-101209809D02*
X208349047Y-101209809D01*
X208349047Y-101209809D02*
X208372856Y-101447904D01*
X208372856Y-101447904D02*
X208349047Y-101424095D01*
X208349047Y-101424095D02*
X208301428Y-101400285D01*
X208301428Y-101400285D02*
X208182380Y-101400285D01*
X208182380Y-101400285D02*
X208134761Y-101424095D01*
X208134761Y-101424095D02*
X208110952Y-101447904D01*
X208110952Y-101447904D02*
X208087142Y-101495523D01*
X208087142Y-101495523D02*
X208087142Y-101614571D01*
X208087142Y-101614571D02*
X208110952Y-101662190D01*
X208110952Y-101662190D02*
X208134761Y-101686000D01*
X208134761Y-101686000D02*
X208182380Y-101709809D01*
X208182380Y-101709809D02*
X208301428Y-101709809D01*
X208301428Y-101709809D02*
X208349047Y-101686000D01*
X208349047Y-101686000D02*
X208372856Y-101662190D01*
X208484217Y-103466367D02*
X208517889Y-103466367D01*
X208517889Y-103466367D02*
X208585233Y-103432695D01*
X208585233Y-103432695D02*
X208618904Y-103399023D01*
X208618904Y-103399023D02*
X208652576Y-103331680D01*
X208652576Y-103331680D02*
X208652576Y-103264336D01*
X208652576Y-103264336D02*
X208635740Y-103213829D01*
X208635740Y-103213829D02*
X208585233Y-103129649D01*
X208585233Y-103129649D02*
X208534725Y-103079142D01*
X208534725Y-103079142D02*
X208450546Y-103028634D01*
X208450546Y-103028634D02*
X208400038Y-103011798D01*
X208400038Y-103011798D02*
X208332695Y-103011798D01*
X208332695Y-103011798D02*
X208265351Y-103045470D01*
X208265351Y-103045470D02*
X208231679Y-103079142D01*
X208231679Y-103079142D02*
X208198008Y-103146485D01*
X208198008Y-103146485D02*
X208198008Y-103180157D01*
X208349530Y-103668397D02*
X208282187Y-103735741D01*
X208282187Y-103735741D02*
X208231679Y-103752577D01*
X208231679Y-103752577D02*
X208198008Y-103752577D01*
X208198008Y-103752577D02*
X208113828Y-103735741D01*
X208113828Y-103735741D02*
X208029649Y-103685233D01*
X208029649Y-103685233D02*
X207894962Y-103550546D01*
X207894962Y-103550546D02*
X207878126Y-103500038D01*
X207878126Y-103500038D02*
X207878126Y-103466367D01*
X207878126Y-103466367D02*
X207894962Y-103415859D01*
X207894962Y-103415859D02*
X207962305Y-103348516D01*
X207962305Y-103348516D02*
X208012813Y-103331680D01*
X208012813Y-103331680D02*
X208046485Y-103331680D01*
X208046485Y-103331680D02*
X208096992Y-103348516D01*
X208096992Y-103348516D02*
X208181172Y-103432695D01*
X208181172Y-103432695D02*
X208198008Y-103483203D01*
X208198008Y-103483203D02*
X208198008Y-103516874D01*
X208198008Y-103516874D02*
X208181172Y-103567382D01*
X208181172Y-103567382D02*
X208113828Y-103634725D01*
X208113828Y-103634725D02*
X208063321Y-103651561D01*
X208063321Y-103651561D02*
X208029649Y-103651561D01*
X208029649Y-103651561D02*
X207979141Y-103634725D01*
X198177190Y-100948571D02*
X198201000Y-100924762D01*
X198201000Y-100924762D02*
X198224809Y-100853333D01*
X198224809Y-100853333D02*
X198224809Y-100805714D01*
X198224809Y-100805714D02*
X198201000Y-100734286D01*
X198201000Y-100734286D02*
X198153380Y-100686667D01*
X198153380Y-100686667D02*
X198105761Y-100662857D01*
X198105761Y-100662857D02*
X198010523Y-100639048D01*
X198010523Y-100639048D02*
X197939095Y-100639048D01*
X197939095Y-100639048D02*
X197843857Y-100662857D01*
X197843857Y-100662857D02*
X197796238Y-100686667D01*
X197796238Y-100686667D02*
X197748619Y-100734286D01*
X197748619Y-100734286D02*
X197724809Y-100805714D01*
X197724809Y-100805714D02*
X197724809Y-100853333D01*
X197724809Y-100853333D02*
X197748619Y-100924762D01*
X197748619Y-100924762D02*
X197772428Y-100948571D01*
X198224809Y-101424762D02*
X198224809Y-101139048D01*
X198224809Y-101281905D02*
X197724809Y-101281905D01*
X197724809Y-101281905D02*
X197796238Y-101234286D01*
X197796238Y-101234286D02*
X197843857Y-101186667D01*
X197843857Y-101186667D02*
X197867666Y-101139048D01*
X197939095Y-101710476D02*
X197915285Y-101662857D01*
X197915285Y-101662857D02*
X197891476Y-101639047D01*
X197891476Y-101639047D02*
X197843857Y-101615238D01*
X197843857Y-101615238D02*
X197820047Y-101615238D01*
X197820047Y-101615238D02*
X197772428Y-101639047D01*
X197772428Y-101639047D02*
X197748619Y-101662857D01*
X197748619Y-101662857D02*
X197724809Y-101710476D01*
X197724809Y-101710476D02*
X197724809Y-101805714D01*
X197724809Y-101805714D02*
X197748619Y-101853333D01*
X197748619Y-101853333D02*
X197772428Y-101877142D01*
X197772428Y-101877142D02*
X197820047Y-101900952D01*
X197820047Y-101900952D02*
X197843857Y-101900952D01*
X197843857Y-101900952D02*
X197891476Y-101877142D01*
X197891476Y-101877142D02*
X197915285Y-101853333D01*
X197915285Y-101853333D02*
X197939095Y-101805714D01*
X197939095Y-101805714D02*
X197939095Y-101710476D01*
X197939095Y-101710476D02*
X197962904Y-101662857D01*
X197962904Y-101662857D02*
X197986714Y-101639047D01*
X197986714Y-101639047D02*
X198034333Y-101615238D01*
X198034333Y-101615238D02*
X198129571Y-101615238D01*
X198129571Y-101615238D02*
X198177190Y-101639047D01*
X198177190Y-101639047D02*
X198201000Y-101662857D01*
X198201000Y-101662857D02*
X198224809Y-101710476D01*
X198224809Y-101710476D02*
X198224809Y-101805714D01*
X198224809Y-101805714D02*
X198201000Y-101853333D01*
X198201000Y-101853333D02*
X198177190Y-101877142D01*
X198177190Y-101877142D02*
X198129571Y-101900952D01*
X198129571Y-101900952D02*
X198034333Y-101900952D01*
X198034333Y-101900952D02*
X197986714Y-101877142D01*
X197986714Y-101877142D02*
X197962904Y-101853333D01*
X197962904Y-101853333D02*
X197939095Y-101805714D01*
X205613333Y-101157190D02*
X205637142Y-101181000D01*
X205637142Y-101181000D02*
X205708571Y-101204809D01*
X205708571Y-101204809D02*
X205756190Y-101204809D01*
X205756190Y-101204809D02*
X205827618Y-101181000D01*
X205827618Y-101181000D02*
X205875237Y-101133380D01*
X205875237Y-101133380D02*
X205899047Y-101085761D01*
X205899047Y-101085761D02*
X205922856Y-100990523D01*
X205922856Y-100990523D02*
X205922856Y-100919095D01*
X205922856Y-100919095D02*
X205899047Y-100823857D01*
X205899047Y-100823857D02*
X205875237Y-100776238D01*
X205875237Y-100776238D02*
X205827618Y-100728619D01*
X205827618Y-100728619D02*
X205756190Y-100704809D01*
X205756190Y-100704809D02*
X205708571Y-100704809D01*
X205708571Y-100704809D02*
X205637142Y-100728619D01*
X205637142Y-100728619D02*
X205613333Y-100752428D01*
X205422856Y-100752428D02*
X205399047Y-100728619D01*
X205399047Y-100728619D02*
X205351428Y-100704809D01*
X205351428Y-100704809D02*
X205232380Y-100704809D01*
X205232380Y-100704809D02*
X205184761Y-100728619D01*
X205184761Y-100728619D02*
X205160952Y-100752428D01*
X205160952Y-100752428D02*
X205137142Y-100800047D01*
X205137142Y-100800047D02*
X205137142Y-100847666D01*
X205137142Y-100847666D02*
X205160952Y-100919095D01*
X205160952Y-100919095D02*
X205446666Y-101204809D01*
X205446666Y-101204809D02*
X205137142Y-101204809D01*
X197177190Y-102928571D02*
X197201000Y-102904762D01*
X197201000Y-102904762D02*
X197224809Y-102833333D01*
X197224809Y-102833333D02*
X197224809Y-102785714D01*
X197224809Y-102785714D02*
X197201000Y-102714286D01*
X197201000Y-102714286D02*
X197153380Y-102666667D01*
X197153380Y-102666667D02*
X197105761Y-102642857D01*
X197105761Y-102642857D02*
X197010523Y-102619048D01*
X197010523Y-102619048D02*
X196939095Y-102619048D01*
X196939095Y-102619048D02*
X196843857Y-102642857D01*
X196843857Y-102642857D02*
X196796238Y-102666667D01*
X196796238Y-102666667D02*
X196748619Y-102714286D01*
X196748619Y-102714286D02*
X196724809Y-102785714D01*
X196724809Y-102785714D02*
X196724809Y-102833333D01*
X196724809Y-102833333D02*
X196748619Y-102904762D01*
X196748619Y-102904762D02*
X196772428Y-102928571D01*
X197224809Y-103404762D02*
X197224809Y-103119048D01*
X197224809Y-103261905D02*
X196724809Y-103261905D01*
X196724809Y-103261905D02*
X196796238Y-103214286D01*
X196796238Y-103214286D02*
X196843857Y-103166667D01*
X196843857Y-103166667D02*
X196867666Y-103119048D01*
X196724809Y-103714285D02*
X196724809Y-103761904D01*
X196724809Y-103761904D02*
X196748619Y-103809523D01*
X196748619Y-103809523D02*
X196772428Y-103833333D01*
X196772428Y-103833333D02*
X196820047Y-103857142D01*
X196820047Y-103857142D02*
X196915285Y-103880952D01*
X196915285Y-103880952D02*
X197034333Y-103880952D01*
X197034333Y-103880952D02*
X197129571Y-103857142D01*
X197129571Y-103857142D02*
X197177190Y-103833333D01*
X197177190Y-103833333D02*
X197201000Y-103809523D01*
X197201000Y-103809523D02*
X197224809Y-103761904D01*
X197224809Y-103761904D02*
X197224809Y-103714285D01*
X197224809Y-103714285D02*
X197201000Y-103666666D01*
X197201000Y-103666666D02*
X197177190Y-103642857D01*
X197177190Y-103642857D02*
X197129571Y-103619047D01*
X197129571Y-103619047D02*
X197034333Y-103595238D01*
X197034333Y-103595238D02*
X196915285Y-103595238D01*
X196915285Y-103595238D02*
X196820047Y-103619047D01*
X196820047Y-103619047D02*
X196772428Y-103642857D01*
X196772428Y-103642857D02*
X196748619Y-103666666D01*
X196748619Y-103666666D02*
X196724809Y-103714285D01*
X196071428Y-111927190D02*
X196095237Y-111951000D01*
X196095237Y-111951000D02*
X196166666Y-111974809D01*
X196166666Y-111974809D02*
X196214285Y-111974809D01*
X196214285Y-111974809D02*
X196285713Y-111951000D01*
X196285713Y-111951000D02*
X196333332Y-111903380D01*
X196333332Y-111903380D02*
X196357142Y-111855761D01*
X196357142Y-111855761D02*
X196380951Y-111760523D01*
X196380951Y-111760523D02*
X196380951Y-111689095D01*
X196380951Y-111689095D02*
X196357142Y-111593857D01*
X196357142Y-111593857D02*
X196333332Y-111546238D01*
X196333332Y-111546238D02*
X196285713Y-111498619D01*
X196285713Y-111498619D02*
X196214285Y-111474809D01*
X196214285Y-111474809D02*
X196166666Y-111474809D01*
X196166666Y-111474809D02*
X196095237Y-111498619D01*
X196095237Y-111498619D02*
X196071428Y-111522428D01*
X195595237Y-111974809D02*
X195880951Y-111974809D01*
X195738094Y-111974809D02*
X195738094Y-111474809D01*
X195738094Y-111474809D02*
X195785713Y-111546238D01*
X195785713Y-111546238D02*
X195833332Y-111593857D01*
X195833332Y-111593857D02*
X195880951Y-111617666D01*
X195428571Y-111474809D02*
X195119047Y-111474809D01*
X195119047Y-111474809D02*
X195285714Y-111665285D01*
X195285714Y-111665285D02*
X195214285Y-111665285D01*
X195214285Y-111665285D02*
X195166666Y-111689095D01*
X195166666Y-111689095D02*
X195142857Y-111712904D01*
X195142857Y-111712904D02*
X195119047Y-111760523D01*
X195119047Y-111760523D02*
X195119047Y-111879571D01*
X195119047Y-111879571D02*
X195142857Y-111927190D01*
X195142857Y-111927190D02*
X195166666Y-111951000D01*
X195166666Y-111951000D02*
X195214285Y-111974809D01*
X195214285Y-111974809D02*
X195357142Y-111974809D01*
X195357142Y-111974809D02*
X195404761Y-111951000D01*
X195404761Y-111951000D02*
X195428571Y-111927190D01*
X195263002Y-103474809D02*
X195429668Y-103236714D01*
X195548716Y-103474809D02*
X195548716Y-102974809D01*
X195548716Y-102974809D02*
X195358240Y-102974809D01*
X195358240Y-102974809D02*
X195310621Y-102998619D01*
X195310621Y-102998619D02*
X195286811Y-103022428D01*
X195286811Y-103022428D02*
X195263002Y-103070047D01*
X195263002Y-103070047D02*
X195263002Y-103141476D01*
X195263002Y-103141476D02*
X195286811Y-103189095D01*
X195286811Y-103189095D02*
X195310621Y-103212904D01*
X195310621Y-103212904D02*
X195358240Y-103236714D01*
X195358240Y-103236714D02*
X195548716Y-103236714D01*
X195096335Y-102974809D02*
X194786811Y-102974809D01*
X194786811Y-102974809D02*
X194953478Y-103165285D01*
X194953478Y-103165285D02*
X194882049Y-103165285D01*
X194882049Y-103165285D02*
X194834430Y-103189095D01*
X194834430Y-103189095D02*
X194810621Y-103212904D01*
X194810621Y-103212904D02*
X194786811Y-103260523D01*
X194786811Y-103260523D02*
X194786811Y-103379571D01*
X194786811Y-103379571D02*
X194810621Y-103427190D01*
X194810621Y-103427190D02*
X194834430Y-103451000D01*
X194834430Y-103451000D02*
X194882049Y-103474809D01*
X194882049Y-103474809D02*
X195024906Y-103474809D01*
X195024906Y-103474809D02*
X195072525Y-103451000D01*
X195072525Y-103451000D02*
X195096335Y-103427190D01*
X211683333Y-110377190D02*
X211707142Y-110401000D01*
X211707142Y-110401000D02*
X211778571Y-110424809D01*
X211778571Y-110424809D02*
X211826190Y-110424809D01*
X211826190Y-110424809D02*
X211897618Y-110401000D01*
X211897618Y-110401000D02*
X211945237Y-110353380D01*
X211945237Y-110353380D02*
X211969047Y-110305761D01*
X211969047Y-110305761D02*
X211992856Y-110210523D01*
X211992856Y-110210523D02*
X211992856Y-110139095D01*
X211992856Y-110139095D02*
X211969047Y-110043857D01*
X211969047Y-110043857D02*
X211945237Y-109996238D01*
X211945237Y-109996238D02*
X211897618Y-109948619D01*
X211897618Y-109948619D02*
X211826190Y-109924809D01*
X211826190Y-109924809D02*
X211778571Y-109924809D01*
X211778571Y-109924809D02*
X211707142Y-109948619D01*
X211707142Y-109948619D02*
X211683333Y-109972428D01*
X211230952Y-109924809D02*
X211469047Y-109924809D01*
X211469047Y-109924809D02*
X211492856Y-110162904D01*
X211492856Y-110162904D02*
X211469047Y-110139095D01*
X211469047Y-110139095D02*
X211421428Y-110115285D01*
X211421428Y-110115285D02*
X211302380Y-110115285D01*
X211302380Y-110115285D02*
X211254761Y-110139095D01*
X211254761Y-110139095D02*
X211230952Y-110162904D01*
X211230952Y-110162904D02*
X211207142Y-110210523D01*
X211207142Y-110210523D02*
X211207142Y-110329571D01*
X211207142Y-110329571D02*
X211230952Y-110377190D01*
X211230952Y-110377190D02*
X211254761Y-110401000D01*
X211254761Y-110401000D02*
X211302380Y-110424809D01*
X211302380Y-110424809D02*
X211421428Y-110424809D01*
X211421428Y-110424809D02*
X211469047Y-110401000D01*
X211469047Y-110401000D02*
X211492856Y-110377190D01*
X200857190Y-111368571D02*
X200881000Y-111344762D01*
X200881000Y-111344762D02*
X200904809Y-111273333D01*
X200904809Y-111273333D02*
X200904809Y-111225714D01*
X200904809Y-111225714D02*
X200881000Y-111154286D01*
X200881000Y-111154286D02*
X200833380Y-111106667D01*
X200833380Y-111106667D02*
X200785761Y-111082857D01*
X200785761Y-111082857D02*
X200690523Y-111059048D01*
X200690523Y-111059048D02*
X200619095Y-111059048D01*
X200619095Y-111059048D02*
X200523857Y-111082857D01*
X200523857Y-111082857D02*
X200476238Y-111106667D01*
X200476238Y-111106667D02*
X200428619Y-111154286D01*
X200428619Y-111154286D02*
X200404809Y-111225714D01*
X200404809Y-111225714D02*
X200404809Y-111273333D01*
X200404809Y-111273333D02*
X200428619Y-111344762D01*
X200428619Y-111344762D02*
X200452428Y-111368571D01*
X200904809Y-111844762D02*
X200904809Y-111559048D01*
X200904809Y-111701905D02*
X200404809Y-111701905D01*
X200404809Y-111701905D02*
X200476238Y-111654286D01*
X200476238Y-111654286D02*
X200523857Y-111606667D01*
X200523857Y-111606667D02*
X200547666Y-111559048D01*
X200404809Y-112273333D02*
X200404809Y-112178095D01*
X200404809Y-112178095D02*
X200428619Y-112130476D01*
X200428619Y-112130476D02*
X200452428Y-112106666D01*
X200452428Y-112106666D02*
X200523857Y-112059047D01*
X200523857Y-112059047D02*
X200619095Y-112035238D01*
X200619095Y-112035238D02*
X200809571Y-112035238D01*
X200809571Y-112035238D02*
X200857190Y-112059047D01*
X200857190Y-112059047D02*
X200881000Y-112082857D01*
X200881000Y-112082857D02*
X200904809Y-112130476D01*
X200904809Y-112130476D02*
X200904809Y-112225714D01*
X200904809Y-112225714D02*
X200881000Y-112273333D01*
X200881000Y-112273333D02*
X200857190Y-112297142D01*
X200857190Y-112297142D02*
X200809571Y-112320952D01*
X200809571Y-112320952D02*
X200690523Y-112320952D01*
X200690523Y-112320952D02*
X200642904Y-112297142D01*
X200642904Y-112297142D02*
X200619095Y-112273333D01*
X200619095Y-112273333D02*
X200595285Y-112225714D01*
X200595285Y-112225714D02*
X200595285Y-112130476D01*
X200595285Y-112130476D02*
X200619095Y-112082857D01*
X200619095Y-112082857D02*
X200642904Y-112059047D01*
X200642904Y-112059047D02*
X200690523Y-112035238D01*
X195513002Y-110974809D02*
X195679668Y-110736714D01*
X195798716Y-110974809D02*
X195798716Y-110474809D01*
X195798716Y-110474809D02*
X195608240Y-110474809D01*
X195608240Y-110474809D02*
X195560621Y-110498619D01*
X195560621Y-110498619D02*
X195536811Y-110522428D01*
X195536811Y-110522428D02*
X195513002Y-110570047D01*
X195513002Y-110570047D02*
X195513002Y-110641476D01*
X195513002Y-110641476D02*
X195536811Y-110689095D01*
X195536811Y-110689095D02*
X195560621Y-110712904D01*
X195560621Y-110712904D02*
X195608240Y-110736714D01*
X195608240Y-110736714D02*
X195798716Y-110736714D01*
X195036811Y-110974809D02*
X195322525Y-110974809D01*
X195179668Y-110974809D02*
X195179668Y-110474809D01*
X195179668Y-110474809D02*
X195227287Y-110546238D01*
X195227287Y-110546238D02*
X195274906Y-110593857D01*
X195274906Y-110593857D02*
X195322525Y-110617666D01*
X194727288Y-110474809D02*
X194679669Y-110474809D01*
X194679669Y-110474809D02*
X194632050Y-110498619D01*
X194632050Y-110498619D02*
X194608240Y-110522428D01*
X194608240Y-110522428D02*
X194584431Y-110570047D01*
X194584431Y-110570047D02*
X194560621Y-110665285D01*
X194560621Y-110665285D02*
X194560621Y-110784333D01*
X194560621Y-110784333D02*
X194584431Y-110879571D01*
X194584431Y-110879571D02*
X194608240Y-110927190D01*
X194608240Y-110927190D02*
X194632050Y-110951000D01*
X194632050Y-110951000D02*
X194679669Y-110974809D01*
X194679669Y-110974809D02*
X194727288Y-110974809D01*
X194727288Y-110974809D02*
X194774907Y-110951000D01*
X194774907Y-110951000D02*
X194798716Y-110927190D01*
X194798716Y-110927190D02*
X194822526Y-110879571D01*
X194822526Y-110879571D02*
X194846335Y-110784333D01*
X194846335Y-110784333D02*
X194846335Y-110665285D01*
X194846335Y-110665285D02*
X194822526Y-110570047D01*
X194822526Y-110570047D02*
X194798716Y-110522428D01*
X194798716Y-110522428D02*
X194774907Y-110498619D01*
X194774907Y-110498619D02*
X194727288Y-110474809D01*
X192417190Y-101178571D02*
X192441000Y-101154762D01*
X192441000Y-101154762D02*
X192464809Y-101083333D01*
X192464809Y-101083333D02*
X192464809Y-101035714D01*
X192464809Y-101035714D02*
X192441000Y-100964286D01*
X192441000Y-100964286D02*
X192393380Y-100916667D01*
X192393380Y-100916667D02*
X192345761Y-100892857D01*
X192345761Y-100892857D02*
X192250523Y-100869048D01*
X192250523Y-100869048D02*
X192179095Y-100869048D01*
X192179095Y-100869048D02*
X192083857Y-100892857D01*
X192083857Y-100892857D02*
X192036238Y-100916667D01*
X192036238Y-100916667D02*
X191988619Y-100964286D01*
X191988619Y-100964286D02*
X191964809Y-101035714D01*
X191964809Y-101035714D02*
X191964809Y-101083333D01*
X191964809Y-101083333D02*
X191988619Y-101154762D01*
X191988619Y-101154762D02*
X192012428Y-101178571D01*
X192464809Y-101654762D02*
X192464809Y-101369048D01*
X192464809Y-101511905D02*
X191964809Y-101511905D01*
X191964809Y-101511905D02*
X192036238Y-101464286D01*
X192036238Y-101464286D02*
X192083857Y-101416667D01*
X192083857Y-101416667D02*
X192107666Y-101369048D01*
X192464809Y-101892857D02*
X192464809Y-101988095D01*
X192464809Y-101988095D02*
X192441000Y-102035714D01*
X192441000Y-102035714D02*
X192417190Y-102059523D01*
X192417190Y-102059523D02*
X192345761Y-102107142D01*
X192345761Y-102107142D02*
X192250523Y-102130952D01*
X192250523Y-102130952D02*
X192060047Y-102130952D01*
X192060047Y-102130952D02*
X192012428Y-102107142D01*
X192012428Y-102107142D02*
X191988619Y-102083333D01*
X191988619Y-102083333D02*
X191964809Y-102035714D01*
X191964809Y-102035714D02*
X191964809Y-101940476D01*
X191964809Y-101940476D02*
X191988619Y-101892857D01*
X191988619Y-101892857D02*
X192012428Y-101869047D01*
X192012428Y-101869047D02*
X192060047Y-101845238D01*
X192060047Y-101845238D02*
X192179095Y-101845238D01*
X192179095Y-101845238D02*
X192226714Y-101869047D01*
X192226714Y-101869047D02*
X192250523Y-101892857D01*
X192250523Y-101892857D02*
X192274333Y-101940476D01*
X192274333Y-101940476D02*
X192274333Y-102035714D01*
X192274333Y-102035714D02*
X192250523Y-102083333D01*
X192250523Y-102083333D02*
X192226714Y-102107142D01*
X192226714Y-102107142D02*
X192179095Y-102130952D01*
X208677190Y-106116666D02*
X208701000Y-106092857D01*
X208701000Y-106092857D02*
X208724809Y-106021428D01*
X208724809Y-106021428D02*
X208724809Y-105973809D01*
X208724809Y-105973809D02*
X208701000Y-105902381D01*
X208701000Y-105902381D02*
X208653380Y-105854762D01*
X208653380Y-105854762D02*
X208605761Y-105830952D01*
X208605761Y-105830952D02*
X208510523Y-105807143D01*
X208510523Y-105807143D02*
X208439095Y-105807143D01*
X208439095Y-105807143D02*
X208343857Y-105830952D01*
X208343857Y-105830952D02*
X208296238Y-105854762D01*
X208296238Y-105854762D02*
X208248619Y-105902381D01*
X208248619Y-105902381D02*
X208224809Y-105973809D01*
X208224809Y-105973809D02*
X208224809Y-106021428D01*
X208224809Y-106021428D02*
X208248619Y-106092857D01*
X208248619Y-106092857D02*
X208272428Y-106116666D01*
X208224809Y-106283333D02*
X208224809Y-106616666D01*
X208224809Y-106616666D02*
X208724809Y-106402381D01*
X207924809Y-110619047D02*
X208329571Y-110619047D01*
X208329571Y-110619047D02*
X208377190Y-110642857D01*
X208377190Y-110642857D02*
X208401000Y-110666666D01*
X208401000Y-110666666D02*
X208424809Y-110714285D01*
X208424809Y-110714285D02*
X208424809Y-110809523D01*
X208424809Y-110809523D02*
X208401000Y-110857142D01*
X208401000Y-110857142D02*
X208377190Y-110880952D01*
X208377190Y-110880952D02*
X208329571Y-110904761D01*
X208329571Y-110904761D02*
X207924809Y-110904761D01*
X207924809Y-111095238D02*
X207924809Y-111404762D01*
X207924809Y-111404762D02*
X208115285Y-111238095D01*
X208115285Y-111238095D02*
X208115285Y-111309524D01*
X208115285Y-111309524D02*
X208139095Y-111357143D01*
X208139095Y-111357143D02*
X208162904Y-111380952D01*
X208162904Y-111380952D02*
X208210523Y-111404762D01*
X208210523Y-111404762D02*
X208329571Y-111404762D01*
X208329571Y-111404762D02*
X208377190Y-111380952D01*
X208377190Y-111380952D02*
X208401000Y-111357143D01*
X208401000Y-111357143D02*
X208424809Y-111309524D01*
X208424809Y-111309524D02*
X208424809Y-111166667D01*
X208424809Y-111166667D02*
X208401000Y-111119048D01*
X208401000Y-111119048D02*
X208377190Y-111095238D01*
X193923333Y-109847190D02*
X193947142Y-109871000D01*
X193947142Y-109871000D02*
X194018571Y-109894809D01*
X194018571Y-109894809D02*
X194066190Y-109894809D01*
X194066190Y-109894809D02*
X194137618Y-109871000D01*
X194137618Y-109871000D02*
X194185237Y-109823380D01*
X194185237Y-109823380D02*
X194209047Y-109775761D01*
X194209047Y-109775761D02*
X194232856Y-109680523D01*
X194232856Y-109680523D02*
X194232856Y-109609095D01*
X194232856Y-109609095D02*
X194209047Y-109513857D01*
X194209047Y-109513857D02*
X194185237Y-109466238D01*
X194185237Y-109466238D02*
X194137618Y-109418619D01*
X194137618Y-109418619D02*
X194066190Y-109394809D01*
X194066190Y-109394809D02*
X194018571Y-109394809D01*
X194018571Y-109394809D02*
X193947142Y-109418619D01*
X193947142Y-109418619D02*
X193923333Y-109442428D01*
X193756666Y-109394809D02*
X193447142Y-109394809D01*
X193447142Y-109394809D02*
X193613809Y-109585285D01*
X193613809Y-109585285D02*
X193542380Y-109585285D01*
X193542380Y-109585285D02*
X193494761Y-109609095D01*
X193494761Y-109609095D02*
X193470952Y-109632904D01*
X193470952Y-109632904D02*
X193447142Y-109680523D01*
X193447142Y-109680523D02*
X193447142Y-109799571D01*
X193447142Y-109799571D02*
X193470952Y-109847190D01*
X193470952Y-109847190D02*
X193494761Y-109871000D01*
X193494761Y-109871000D02*
X193542380Y-109894809D01*
X193542380Y-109894809D02*
X193685237Y-109894809D01*
X193685237Y-109894809D02*
X193732856Y-109871000D01*
X193732856Y-109871000D02*
X193756666Y-109847190D01*
X194333333Y-114224809D02*
X194499999Y-113986714D01*
X194619047Y-114224809D02*
X194619047Y-113724809D01*
X194619047Y-113724809D02*
X194428571Y-113724809D01*
X194428571Y-113724809D02*
X194380952Y-113748619D01*
X194380952Y-113748619D02*
X194357142Y-113772428D01*
X194357142Y-113772428D02*
X194333333Y-113820047D01*
X194333333Y-113820047D02*
X194333333Y-113891476D01*
X194333333Y-113891476D02*
X194357142Y-113939095D01*
X194357142Y-113939095D02*
X194380952Y-113962904D01*
X194380952Y-113962904D02*
X194428571Y-113986714D01*
X194428571Y-113986714D02*
X194619047Y-113986714D01*
X193904761Y-113891476D02*
X193904761Y-114224809D01*
X194023809Y-113701000D02*
X194142856Y-114058142D01*
X194142856Y-114058142D02*
X193833333Y-114058142D01*
D11*
%TO.C,U1*%
X206300000Y-109960000D02*
X206300000Y-110410000D01*
X206300000Y-103640000D02*
X206300000Y-103190000D01*
X206300000Y-103190000D02*
X205850000Y-103190000D01*
X199080000Y-110410000D02*
X199530000Y-110410000D01*
X199080000Y-109960000D02*
X199080000Y-110410000D01*
X199080000Y-103640000D02*
X199080000Y-103190000D01*
X199080000Y-103190000D02*
X199530000Y-103190000D01*
%TO.C,C17*%
X216062164Y-113490000D02*
X216277836Y-113490000D01*
X216062164Y-112770000D02*
X216277836Y-112770000D01*
%TO.C,C15*%
X201910000Y-101307836D02*
X201910000Y-101092164D01*
X202630000Y-101307836D02*
X202630000Y-101092164D01*
%TO.C,R1*%
X191346359Y-110620000D02*
X191653641Y-110620000D01*
X191346359Y-111380000D02*
X191653641Y-111380000D01*
%TO.C,R2*%
X197050000Y-105596359D02*
X197050000Y-105903641D01*
X197810000Y-105596359D02*
X197810000Y-105903641D01*
%TO.C,C8*%
X203140000Y-101157836D02*
X203140000Y-100942164D01*
X203860000Y-101157836D02*
X203860000Y-100942164D01*
%TO.C,C4*%
X197070000Y-107492164D02*
X197070000Y-107707836D01*
X197790000Y-107492164D02*
X197790000Y-107707836D01*
%TO.C,R9*%
X214090000Y-107933641D02*
X214090000Y-107626359D01*
X214850000Y-107933641D02*
X214850000Y-107626359D01*
%TO.C,TP2*%
X196960000Y-101960000D02*
G75*
G02*
X195560000Y-101960000I-700000J0D01*
G01*
X195560000Y-101960000D02*
G75*
G02*
X196960000Y-101960000I700000J0D01*
G01*
%TO.C,C11*%
X203140000Y-112122164D02*
X203140000Y-112337836D01*
X203860000Y-112122164D02*
X203860000Y-112337836D01*
%TO.C,C12*%
X204220000Y-112122164D02*
X204220000Y-112337836D01*
X204940000Y-112122164D02*
X204940000Y-112337836D01*
%TO.C,TP4*%
X200700000Y-113000000D02*
G75*
G02*
X199300000Y-113000000I-700000J0D01*
G01*
X199300000Y-113000000D02*
G75*
G02*
X200700000Y-113000000I700000J0D01*
G01*
%TO.C,L1*%
D12*
X211445710Y-105699947D02*
G75*
G02*
X211254290Y-105699947I-95710J0D01*
G01*
X211254290Y-105699947D02*
G75*
G02*
X211445710Y-105699947I95710J0D01*
G01*
D11*
%TO.C,C14*%
X213419190Y-109678307D02*
X213571693Y-109830810D01*
X213928307Y-109169190D02*
X214080810Y-109321693D01*
%TO.C,R16*%
X213702659Y-103339940D02*
X213919940Y-103122659D01*
X214240060Y-103877341D02*
X214457341Y-103660060D01*
%TO.C,R7*%
X210153641Y-107370000D02*
X209846359Y-107370000D01*
X210153641Y-108130000D02*
X209846359Y-108130000D01*
%TO.C,R8*%
X210153641Y-106370000D02*
X209846359Y-106370000D01*
X210153641Y-107130000D02*
X209846359Y-107130000D01*
%TO.C,C1*%
X189232706Y-104006741D02*
X188863239Y-104376208D01*
X188193259Y-102967294D02*
X187823792Y-103336761D01*
%TO.C,R6*%
X206153641Y-113220000D02*
X205846359Y-113220000D01*
X206153641Y-113980000D02*
X205846359Y-113980000D01*
%TO.C,TP3*%
X198700000Y-113000000D02*
G75*
G02*
X197300000Y-113000000I-700000J0D01*
G01*
X197300000Y-113000000D02*
G75*
G02*
X198700000Y-113000000I700000J0D01*
G01*
%TO.C,R5*%
X206876359Y-101080000D02*
X207183641Y-101080000D01*
X206876359Y-101840000D02*
X207183641Y-101840000D01*
%TO.C,C9*%
X207489190Y-102701693D02*
X207641693Y-102549190D01*
X207998307Y-103210810D02*
X208150810Y-103058307D01*
%TO.C,C18*%
X198390000Y-101377836D02*
X198390000Y-101162164D01*
X199110000Y-101377836D02*
X199110000Y-101162164D01*
%TO.C,C2*%
X205207836Y-101400000D02*
X204992164Y-101400000D01*
X205207836Y-102120000D02*
X204992164Y-102120000D01*
%TO.C,C10*%
X197390000Y-103357836D02*
X197390000Y-103142164D01*
X198110000Y-103357836D02*
X198110000Y-103142164D01*
%TO.C,C13*%
X195857836Y-112860000D02*
X195642164Y-112860000D01*
X195857836Y-112140000D02*
X195642164Y-112140000D01*
%TO.C,R3*%
X195112840Y-103778983D02*
X195420122Y-103778983D01*
X195112840Y-104538983D02*
X195420122Y-104538983D01*
%TO.C,Y1*%
X193600000Y-109000000D02*
X193600000Y-105000000D01*
X196900000Y-109000000D02*
X193600000Y-109000000D01*
%TO.C,TP1*%
X193950000Y-113250000D02*
G75*
G02*
X192550000Y-113250000I-700000J0D01*
G01*
X192550000Y-113250000D02*
G75*
G02*
X193950000Y-113250000I700000J0D01*
G01*
%TO.C,C5*%
X213261253Y-110765000D02*
X212738747Y-110765000D01*
X213261253Y-112235000D02*
X212738747Y-112235000D01*
D13*
%TO.C,LED1*%
X190103000Y-105339000D02*
X190103000Y-108641000D01*
X190103000Y-108641000D02*
X192897000Y-108641000D01*
X192897000Y-105339000D02*
X190103000Y-105339000D01*
X192897000Y-108641000D02*
X192897000Y-105339000D01*
D11*
%TO.C,C16*%
X201140000Y-112142164D02*
X201140000Y-112357836D01*
X201860000Y-112142164D02*
X201860000Y-112357836D01*
%TO.C,R10*%
X193346359Y-110370000D02*
X193653641Y-110370000D01*
X193346359Y-111130000D02*
X193653641Y-111130000D01*
%TO.C,C19*%
X192765000Y-101238747D02*
X192765000Y-101761253D01*
X194235000Y-101238747D02*
X194235000Y-101761253D01*
D14*
%TO.C,U3*%
X208673500Y-112576000D02*
X208673500Y-109423500D01*
X210826000Y-109423500D02*
X210826000Y-112576000D01*
D15*
X210611998Y-113032000D02*
G75*
G02*
X210412000Y-113032000I-99999J0D01*
G01*
X210412000Y-113032000D02*
G75*
G02*
X210611998Y-113032000I99999J0D01*
G01*
D13*
%TO.C,USB1*%
X215330000Y-103322999D02*
X215330000Y-104034999D01*
X215330000Y-109964500D02*
X215330000Y-110677001D01*
X217280000Y-102681000D02*
X229480000Y-102765000D01*
X229480000Y-102765000D02*
X229480000Y-111295001D01*
X229480000Y-111295001D02*
X217280000Y-111317000D01*
X215307001Y-109580000D02*
G75*
G02*
X215053001Y-109580000I-127000J0D01*
G01*
X215053001Y-109580000D02*
G75*
G02*
X215307001Y-109580000I127000J0D01*
G01*
D11*
%TO.C,C3*%
X195212164Y-109310000D02*
X195427836Y-109310000D01*
X195212164Y-110030000D02*
X195427836Y-110030000D01*
%TO.C,R4*%
X195596359Y-113370000D02*
X195903641Y-113370000D01*
X195596359Y-114130000D02*
X195903641Y-114130000D01*
D13*
%TO.C,U2*%
X210558455Y-101816283D02*
X211546283Y-100828455D01*
X211231974Y-102759210D02*
X211770790Y-103298026D01*
X212819076Y-103686581D02*
X213416581Y-103089076D01*
D16*
X213022462Y-100299893D02*
G75*
G02*
X212722462Y-100299893I-150000J0D01*
G01*
X212722462Y-100299893D02*
G75*
G02*
X213022462Y-100299893I150000J0D01*
G01*
%TD*%
%LPC*%
G36*
X190600000Y-114500000D02*
G01*
X218600000Y-114500000D01*
X218600000Y-115640000D01*
X190600000Y-115640000D01*
X190600000Y-114500000D01*
G37*
G36*
X189750000Y-98470000D02*
G01*
X218500000Y-98470000D01*
X218500000Y-99470000D01*
X189750000Y-99470000D01*
X189750000Y-98470000D01*
G37*
G36*
X217750000Y-111500000D02*
G01*
X218760000Y-111500000D01*
X218760000Y-115500000D01*
X217750000Y-115500000D01*
X217750000Y-111500000D01*
G37*
G36*
X217750000Y-98500000D02*
G01*
X218600000Y-98500000D01*
X218600000Y-102500000D01*
X217750000Y-102500000D01*
X217750000Y-98500000D01*
G37*
D17*
G36*
X212207613Y-113200280D02*
G01*
X212245695Y-113214443D01*
X212276674Y-113237240D01*
X212300099Y-113267648D01*
X212314464Y-113304331D01*
X212319538Y-113349103D01*
X212319538Y-113788923D01*
X212314424Y-113833624D01*
X212299929Y-113870310D01*
X212276246Y-113900786D01*
X212245051Y-113923613D01*
X212206947Y-113937762D01*
X212159987Y-113942796D01*
X212113036Y-113937753D01*
X212075088Y-113923597D01*
X212044154Y-113900786D01*
X212020688Y-113870337D01*
X212006306Y-113833651D01*
X212001229Y-113788923D01*
X212001229Y-113564403D01*
X212068212Y-113564403D01*
X212074800Y-113603839D01*
X212093492Y-113633524D01*
X212122199Y-113652994D01*
X212160109Y-113659780D01*
X212198039Y-113653037D01*
X212227031Y-113633646D01*
X212245897Y-113604009D01*
X212252555Y-113564403D01*
X212245953Y-113526337D01*
X212227153Y-113497786D01*
X212198311Y-113479165D01*
X212160109Y-113472629D01*
X212121969Y-113479203D01*
X212093369Y-113497908D01*
X212074744Y-113526506D01*
X212068212Y-113564403D01*
X212001229Y-113564403D01*
X212001229Y-113349103D01*
X212006309Y-113304335D01*
X212020693Y-113267653D01*
X212044154Y-113237240D01*
X212075097Y-113214448D01*
X212113175Y-113200283D01*
X212160414Y-113195230D01*
X212207613Y-113200280D01*
G37*
G36*
X214267628Y-114218982D02*
G01*
X211710999Y-114218982D01*
X211710999Y-113349103D01*
X211835999Y-113349103D01*
X211835999Y-113788923D01*
X211840672Y-113849153D01*
X211854110Y-113902282D01*
X211875871Y-113949513D01*
X211905975Y-113991763D01*
X211943193Y-114027111D01*
X211988284Y-114056064D01*
X212038018Y-114076625D01*
X212094814Y-114089477D01*
X212159987Y-114093982D01*
X212225160Y-114089484D01*
X212282109Y-114076638D01*
X212332117Y-114056064D01*
X212377445Y-114027091D01*
X212414798Y-113991740D01*
X212434447Y-113964228D01*
X212868657Y-113964228D01*
X212872854Y-114002224D01*
X212884690Y-114033191D01*
X212903889Y-114058689D01*
X212929348Y-114077855D01*
X212960699Y-114089743D01*
X212999633Y-114093982D01*
X213038001Y-114089774D01*
X213069247Y-114077910D01*
X213094948Y-114058689D01*
X213114363Y-114033163D01*
X213126313Y-114002197D01*
X213130547Y-113964228D01*
X213126376Y-113925882D01*
X213486470Y-113925882D01*
X213486470Y-114080000D01*
X214140979Y-114080000D01*
X214140979Y-113925882D01*
X213875304Y-113925882D01*
X213875304Y-113213792D01*
X214142628Y-113412789D01*
X214142628Y-113227775D01*
X213906750Y-113058026D01*
X213700121Y-113058026D01*
X213700121Y-113925882D01*
X213486470Y-113925882D01*
X213126376Y-113925882D01*
X213126269Y-113924900D01*
X213114276Y-113893250D01*
X213094948Y-113867569D01*
X213069233Y-113848241D01*
X213037987Y-113836320D01*
X212999633Y-113832093D01*
X212960713Y-113836351D01*
X212929362Y-113848297D01*
X212903889Y-113867569D01*
X212884776Y-113893222D01*
X212872898Y-113924871D01*
X212868657Y-113964228D01*
X212434447Y-113964228D01*
X212444957Y-113949513D01*
X212466683Y-113902285D01*
X212480102Y-113849156D01*
X212484769Y-113788923D01*
X212484769Y-113349103D01*
X212480093Y-113288584D01*
X212466665Y-113235363D01*
X212444957Y-113188208D01*
X212414836Y-113146025D01*
X212377525Y-113110736D01*
X212332239Y-113081840D01*
X212282277Y-113061293D01*
X212225445Y-113048470D01*
X212160475Y-113043982D01*
X212094554Y-113048503D01*
X212037523Y-113061356D01*
X211987979Y-113081840D01*
X211943081Y-113110700D01*
X211905960Y-113145984D01*
X211875871Y-113188208D01*
X211854128Y-113235366D01*
X211840681Y-113288587D01*
X211835999Y-113349103D01*
X211710999Y-113349103D01*
X211710999Y-112918982D01*
X214267628Y-112918982D01*
X214267628Y-114218982D01*
G37*
D16*
G36*
X187136243Y-106654699D02*
G01*
X186850388Y-106654699D01*
X186850388Y-107149200D01*
X186843983Y-107293779D01*
X186828227Y-107385612D01*
X186807340Y-107440093D01*
X186775836Y-107484917D01*
X186739246Y-107515335D01*
X186696730Y-107533527D01*
X186646414Y-107539836D01*
X186591274Y-107530809D01*
X186537879Y-107502833D01*
X186493770Y-107459309D01*
X186462042Y-107400068D01*
X186445141Y-107319739D01*
X186437404Y-107152314D01*
X186437404Y-106654699D01*
X186146419Y-106654699D01*
X186146419Y-107745000D01*
X186414872Y-107745000D01*
X186414872Y-107614391D01*
X186446762Y-107668096D01*
X186473307Y-107701677D01*
X186504522Y-107728086D01*
X186547588Y-107752510D01*
X186593819Y-107769244D01*
X186633134Y-107774309D01*
X186702154Y-107764071D01*
X186762277Y-107733825D01*
X186800175Y-107694349D01*
X186850388Y-107614391D01*
X186850388Y-108161189D01*
X187136243Y-108161189D01*
X187136243Y-106654699D01*
G37*
D18*
%TO.C,LED1*%
G36*
X192800000Y-108540000D02*
G01*
X190200000Y-108540000D01*
X190200000Y-105440000D01*
X192800000Y-105440000D01*
X192800000Y-108540000D01*
G37*
%TD*%
D19*
%TO.C,U1*%
X202690000Y-106800000D03*
D20*
X206127501Y-109600000D03*
D21*
X206127500Y-109200000D03*
X206127500Y-108800000D03*
X206127500Y-108400000D03*
X206127500Y-108000001D03*
X206127500Y-107600000D03*
X206127500Y-107200000D03*
X206127501Y-106800000D03*
X206127500Y-106400000D03*
X206127500Y-106000000D03*
X206127500Y-105599999D03*
X206127500Y-105200000D03*
X206127500Y-104800000D03*
X206127500Y-104400000D03*
D22*
X206127501Y-104000000D03*
D23*
X205490000Y-103362499D03*
D24*
X205090000Y-103362500D03*
X204690000Y-103362500D03*
X204290000Y-103362500D03*
X203890001Y-103362500D03*
X203490000Y-103362500D03*
X203090000Y-103362500D03*
X202690000Y-103362499D03*
X202290000Y-103362500D03*
X201890000Y-103362500D03*
X201489999Y-103362500D03*
X201090000Y-103362500D03*
X200690000Y-103362500D03*
X200290000Y-103362500D03*
D25*
X199890000Y-103362499D03*
D26*
X199252499Y-104000000D03*
D21*
X199252500Y-104400000D03*
X199252500Y-104800000D03*
X199252500Y-105200000D03*
X199252500Y-105599999D03*
X199252500Y-106000000D03*
X199252500Y-106400000D03*
X199252499Y-106800000D03*
X199252500Y-107200000D03*
X199252500Y-107600000D03*
X199252500Y-108000001D03*
X199252500Y-108400000D03*
X199252500Y-108800000D03*
X199252500Y-109200000D03*
D27*
X199252499Y-109600000D03*
D28*
X199890000Y-110237501D03*
D24*
X200290000Y-110237500D03*
X200690000Y-110237500D03*
X201090000Y-110237500D03*
X201489999Y-110237500D03*
X201890000Y-110237500D03*
X202290000Y-110237500D03*
X202690000Y-110237501D03*
X203090000Y-110237500D03*
X203490000Y-110237500D03*
X203890001Y-110237500D03*
X204290000Y-110237500D03*
X204690000Y-110237500D03*
X205090000Y-110237500D03*
D29*
X205490000Y-110237501D03*
%TD*%
D30*
%TO.C,C17*%
X216650000Y-113130000D03*
X215690000Y-113130000D03*
%TD*%
D31*
%TO.C,H1*%
X184360000Y-107645000D03*
D32*
X185370000Y-100395000D03*
D33*
X185370000Y-113655000D03*
D34*
X185470000Y-112655000D03*
D35*
X185530000Y-101245000D03*
D36*
X186220000Y-112745000D03*
D37*
X186220000Y-113495000D03*
D38*
X186280000Y-101245000D03*
D37*
X186370000Y-100495000D03*
%TD*%
D39*
%TO.C,C15*%
X202270000Y-101680000D03*
X202270000Y-100720000D03*
%TD*%
D40*
%TO.C,R1*%
X190990000Y-111000000D03*
X192010000Y-111000000D03*
%TD*%
D41*
%TO.C,R2*%
X197430000Y-105240001D03*
X197430000Y-106259999D03*
%TD*%
D39*
%TO.C,C8*%
X203500000Y-101530000D03*
X203500000Y-100570000D03*
%TD*%
D42*
%TO.C,C4*%
X197430000Y-107120000D03*
X197430000Y-108080000D03*
%TD*%
D43*
%TO.C,R9*%
X214470000Y-108289999D03*
X214470000Y-107270001D03*
%TD*%
D44*
%TO.C,TP2*%
X196260000Y-101960000D03*
%TD*%
D42*
%TO.C,C11*%
X203500000Y-111750000D03*
X203500000Y-112710000D03*
%TD*%
%TO.C,C12*%
X204580000Y-111750000D03*
X204580000Y-112710000D03*
%TD*%
D45*
%TO.C,C6*%
X207540000Y-105275000D03*
X207540000Y-104245000D03*
%TD*%
D44*
%TO.C,TP4*%
X200000000Y-113000000D03*
%TD*%
D46*
%TO.C,L1*%
X210050000Y-105499947D03*
X210050000Y-104099947D03*
%TD*%
D47*
%TO.C,C14*%
X213410589Y-109160589D03*
X214089411Y-109839411D03*
%TD*%
D48*
%TO.C,R16*%
X213719376Y-103860624D03*
X214440624Y-103139376D03*
%TD*%
D49*
%TO.C,R7*%
X210509999Y-107750000D03*
X209490001Y-107750000D03*
%TD*%
%TO.C,R8*%
X210509999Y-106750000D03*
X209490001Y-106750000D03*
%TD*%
D50*
%TO.C,C1*%
X189200000Y-103000000D03*
X187856498Y-104343502D03*
%TD*%
D49*
%TO.C,R6*%
X206509999Y-113600000D03*
X205490001Y-113600000D03*
%TD*%
D44*
%TO.C,TP3*%
X198000000Y-113000000D03*
%TD*%
D40*
%TO.C,R5*%
X206520000Y-101460000D03*
X207540000Y-101460000D03*
%TD*%
D51*
%TO.C,C9*%
X207480589Y-103219411D03*
X208159411Y-102540589D03*
%TD*%
D39*
%TO.C,C18*%
X198750000Y-101750000D03*
X198750000Y-100790000D03*
%TD*%
D52*
%TO.C,C2*%
X205580000Y-101760000D03*
X204620000Y-101760000D03*
%TD*%
D39*
%TO.C,C10*%
X197750000Y-103730000D03*
X197750000Y-102770000D03*
%TD*%
D52*
%TO.C,C13*%
X196230000Y-112500000D03*
X195270000Y-112500000D03*
%TD*%
D40*
%TO.C,R3*%
X194756481Y-104158983D03*
X195776481Y-104158983D03*
%TD*%
D53*
%TO.C,Y1*%
X194400000Y-108100000D03*
X194400000Y-105900000D03*
X196100000Y-105900000D03*
X196100000Y-108100000D03*
%TD*%
D44*
%TO.C,TP1*%
X193250000Y-113250000D03*
%TD*%
D54*
%TO.C,C5*%
X213949999Y-111500000D03*
X212050001Y-111500000D03*
%TD*%
D55*
%TO.C,LED1*%
X190775000Y-109590000D03*
X190775000Y-104390000D03*
X192225000Y-104390000D03*
X192225000Y-109590000D03*
%TD*%
D42*
%TO.C,C16*%
X201500000Y-111770000D03*
X201500000Y-112730000D03*
%TD*%
D40*
%TO.C,R10*%
X192990000Y-110750000D03*
X194010000Y-110750000D03*
%TD*%
D56*
%TO.C,C19*%
X193500000Y-100550001D03*
X193500000Y-102449999D03*
%TD*%
D45*
%TO.C,C7*%
X208490000Y-105275000D03*
X208490000Y-104245000D03*
%TD*%
D57*
%TO.C,U3*%
X210500001Y-112507500D03*
X210000000Y-112507500D03*
X209500000Y-112507500D03*
X208999999Y-112507500D03*
X208999999Y-109492500D03*
X209500000Y-109492500D03*
X210000000Y-109492500D03*
X210500001Y-109492500D03*
D58*
X209750000Y-111000000D03*
%TD*%
D59*
%TO.C,USB1*%
X216349999Y-102725000D03*
D60*
X217000000Y-102999999D03*
X217000000Y-111000001D03*
D59*
X216349999Y-111275000D03*
D61*
X216000000Y-109750000D03*
X216000000Y-109250000D03*
X216000000Y-108749999D03*
X216000000Y-108250000D03*
X216000000Y-105750000D03*
X216000000Y-105250001D03*
X216000000Y-104750000D03*
X216000000Y-104250000D03*
X216000001Y-106250000D03*
X216000000Y-106750000D03*
X216000000Y-107250000D03*
X216000001Y-107750000D03*
%TD*%
D30*
%TO.C,C3*%
X194840000Y-109670000D03*
X195800000Y-109670000D03*
%TD*%
D40*
%TO.C,R4*%
X195240001Y-113750000D03*
X196259999Y-113750000D03*
%TD*%
D62*
%TO.C,U2*%
X212236066Y-100950431D03*
X212907817Y-101622183D03*
X213579569Y-102293934D03*
X212023934Y-103849569D03*
X210680431Y-102506066D03*
%TD*%
%LPD*%
M02*
